<svg width="114" height="30" viewBox="0 0 114 30" fill="none" xmlns="http://www.w3.org/2000/svg">
<rect x="0.000488281" y="13.812" width="32" height="1.54334" rx="0.771672" fill="#E3B873"/>
<rect x="82.0005" y="13.812" width="32" height="1.54334" rx="0.771672" fill="#E3B873"/>
<path d="M73.8511 9.76553L73.6774 10.2344L73.899 10.3165L74.1031 10.1974L73.8511 9.76553ZM49.7306 0.829306L49.9043 0.360449L49.9039 0.360304L49.7306 0.829306ZM46.2949 8.45071L46.7642 8.62323L46.7642 8.62314L46.2949 8.45071ZM46.6484 9.2155L46.4759 9.6848L46.4761 9.68487L46.6484 9.2155ZM49.4448 10.2421L49.9142 10.4143L50.0865 9.94498L49.6171 9.77268L49.4448 10.2421ZM48.8288 11.9204L48.3594 11.7481L48.3594 11.7482L48.8288 11.9204ZM49.1825 12.6847L49.01 13.154L49.0102 13.1541L49.1825 12.6847ZM54.7753 14.738L55.2447 14.9105L55.4171 14.441L54.9477 14.2687L54.7753 14.738ZM54.3643 15.8569L54.8328 16.0315L54.8336 16.0293L54.3643 15.8569ZM55.2134 18.6032H55.7134V18.344L55.5015 18.1946L55.2134 18.6032ZM55.2134 21.6434V22.1434H55.7134V21.6434H55.2134ZM47.1974 21.6434L46.7393 21.8438L46.8704 22.1434H47.1974V21.6434ZM45.0671 19.9158H44.5671V20.3228L44.9656 20.4054L45.0671 19.9158ZM45.0671 26.9457L44.9655 26.4561L44.5671 26.5388V26.9457H45.0671ZM47.1974 25.2178V24.7178H46.8704L46.7393 25.0175L47.1974 25.2178ZM55.2134 25.2178H55.7134V24.7178H55.2134V25.2178ZM58.7878 19.214L58.5657 18.7661L58.2878 18.9039V19.214H58.7878ZM59.9561 17.9122L60.4254 18.0846L60.4254 18.0846L59.9561 17.9122ZM60.3671 16.7934L60.5394 16.324L60.0702 16.1518L59.8978 16.621L60.3671 16.7934ZM65.4004 18.6403L65.5734 18.1711L65.5726 18.1709L65.4004 18.6403ZM66.1649 18.2865L66.6342 18.4591L66.6343 18.4588L66.1649 18.2865ZM66.3882 17.6782L66.4807 17.1868L66.0647 17.1085L65.9188 17.5059L66.3882 17.6782ZM70.5584 14.8288L70.067 14.7364L70.067 14.7364L70.5584 14.8288ZM70.3077 12.7072L70.0793 12.2624L69.6575 12.479L69.8514 12.9117L70.3077 12.7072ZM73.9191 10.8528L73.6911 10.4078L73.6907 10.408L73.9191 10.8528ZM74.1776 10.051L73.7324 10.2787L73.7326 10.2791L74.1776 10.051ZM73.8541 9.76378L74.0275 9.29479L73.806 9.21293L73.6021 9.33195L73.8541 9.76378ZM56.4047 19.146L56.575 18.6759L55.9047 18.433V19.146H56.4047ZM56.898 19.3248L56.7276 19.7949L56.7292 19.7954L56.898 19.3248ZM57.5962 19.4618H58.0962V18.9828L57.6177 18.9623L57.5962 19.4618ZM57.5962 21.6434V22.1434H58.0962V21.6434H57.5962ZM56.4047 21.6434H55.9047V22.1434H56.4047V21.6434ZM43.8758 27.601V28.101H44.3758V27.601H43.8758ZM42.6652 27.601H42.1652V28.101H42.6652V27.601ZM42.6652 19.2605V18.7605H42.1652V19.2605H42.6652ZM43.8758 19.2605H44.3758V18.7605H43.8758V19.2605ZM46.2586 24.0265L46.7586 24.0272V24.0265H46.2586ZM45.0671 25.7119H44.5671V26.4201L45.2345 26.183L45.0671 25.7119ZM45.0671 21.1496L45.2343 20.6784L44.5671 20.4416V21.1496H45.0671ZM46.2586 22.835L46.7586 22.835L46.7586 22.8343L46.2586 22.835ZM47.4687 22.835V22.335H46.9687V22.835H47.4687ZM57.5962 22.835H58.0962V22.335H57.5962V22.835ZM57.5962 24.0265V24.5265H58.0962V24.0265H57.5962ZM47.4687 24.0265H46.9687V24.5265H47.4687V24.0265ZM56.4047 25.2178V24.7178H55.9047V25.2178H56.4047ZM57.5962 25.2178H58.0962V24.7178H57.5962V25.2178ZM59.2488 16.3831L59.7182 16.5556L59.8906 16.0861L59.4211 15.9137L59.2488 16.3831ZM58.8378 17.5019L59.3071 17.6746L59.3071 17.6744L58.8378 17.5019ZM57.309 18.209L57.4812 17.7396L57.481 17.7395L57.309 18.209ZM56.1884 17.7985L56.0161 18.2678L56.0164 18.2679L56.1884 17.7985ZM55.4806 16.2694L55.0114 16.0968L55.0112 16.0971L55.4806 16.2694ZM55.8919 15.1511L56.0642 14.6817L55.5951 14.5095L55.4226 14.9785L55.8919 15.1511ZM65.2521 17.3184L65.0798 17.7878L65.5492 17.9601L65.7215 17.4908L65.2521 17.3184ZM50.1523 11.7736L49.683 11.6011L49.5105 12.0706L49.98 12.243L50.1523 11.7736ZM50.5636 10.6548L50.736 10.1855L50.2668 10.0132L50.0943 10.4823L50.5636 10.6548ZM59.5111 13.9405L59.3387 14.4099L59.3402 14.4104L59.5111 13.9405ZM60.1251 13.8152L60.4666 14.1805L60.4678 14.1793L60.1251 13.8152ZM61.797 12.2414L61.9693 11.7721L61.6793 11.6655L61.4542 11.8773L61.797 12.2414ZM66.4842 13.963L66.9536 14.1353L67.1259 13.666L66.6566 13.4937L66.4842 13.963ZM69.2801 14.9901L69.7489 15.1639L69.7502 15.1603L69.2801 14.9901ZM66.807 16.5391L66.3376 16.3668L66.1146 16.9743L66.7587 17.0368L66.807 16.5391ZM67.7275 14.0315L67.4986 13.587L67.3253 13.6762L67.2582 13.8592L67.7275 14.0315ZM69.2311 13.2572L69.6909 13.0607L69.4798 12.5668L69.0022 12.8127L69.2311 13.2572ZM67.2693 12.9302L67.3127 13.4283L67.4105 13.4198L67.4978 13.3749L67.2693 12.9302ZM67.1757 12.9467L67.0034 13.4161L67.1522 13.4707L67.3053 13.4296L67.1757 12.9467ZM61.8642 10.9963L62.0366 10.527L62.0366 10.527L61.8642 10.9963ZM61.2504 11.1214L60.9081 10.7569L60.9079 10.7571L61.2504 11.1214ZM59.5766 12.6954L59.4042 13.1648L59.6941 13.2713L59.9191 13.0597L59.5766 12.6954ZM47.6187 8.3042L47.1494 8.13183L46.977 8.60119L47.4464 8.77356L47.6187 8.3042ZM49.8773 2.15438L50.051 1.68552L49.5808 1.51132L49.408 1.982L49.8773 2.15438ZM72.1675 10.4126L72.3961 10.8573L73.406 10.3382L72.3412 9.94371L72.1675 10.4126ZM53.5981 8.8769C53.694 8.61792 53.5617 8.33028 53.3028 8.23445C53.0438 8.13861 52.7561 8.27086 52.6603 8.52983L53.5981 8.8769ZM52.1348 9.94976C52.039 10.2087 52.1713 10.4964 52.4302 10.5922C52.6892 10.6881 52.9768 10.5558 53.0727 10.2968L52.1348 9.94976ZM55.8879 9.71693C55.9837 9.45795 55.8515 9.17032 55.5925 9.07448C55.3335 8.97864 55.0459 9.11089 54.9501 9.36987L55.8879 9.71693ZM54.4246 10.7898C54.3288 11.0488 54.461 11.3364 54.72 11.4322C54.979 11.5281 55.2666 11.3958 55.3624 11.1369L54.4246 10.7898ZM58.1099 10.5434C58.2058 10.2844 58.0735 9.9968 57.8145 9.90096C57.5556 9.80512 57.2679 9.93737 57.1721 10.1963L58.1099 10.5434ZM56.6466 11.6163C56.5508 11.8753 56.683 12.1629 56.942 12.2587C57.201 12.3546 57.4886 12.2223 57.5845 11.9633L56.6466 11.6163ZM74.0248 9.29667L49.9043 0.360449L49.5569 1.29816L73.6774 10.2344L74.0248 9.29667ZM49.9039 0.360304C49.3364 0.150603 48.7057 0.440671 48.4964 1.00897L49.4347 1.35468C49.4528 1.30545 49.5077 1.28 49.5573 1.29831L49.9039 0.360304ZM48.6119 0.828356C48.6119 0.828387 48.6118 0.828401 48.6118 0.828405C48.6118 0.828418 48.6119 0.828392 48.6119 0.828361C48.6119 0.828354 48.6119 0.828342 48.6119 0.828326C48.6119 0.828317 48.612 0.828275 48.612 0.828221C48.612 0.828203 48.6121 0.828125 48.6122 0.828026C48.6123 0.827966 48.6125 0.827795 48.6126 0.827684C48.6128 0.827414 48.6148 0.825504 48.6164 0.823872C49.3197 0.829075 49.3211 1.53332 49.3202 1.53424C49.32 1.53445 49.3197 1.53476 49.3196 1.53486C49.3195 1.535 49.3194 1.53511 49.3193 1.53512C49.3193 1.53519 49.3192 1.53524 49.3192 1.53524C49.3192 1.53526 49.3192 1.53527 49.3192 1.53528C49.3192 1.5353 49.3192 1.53531 49.3192 1.53531C49.3191 1.53533 49.3191 1.53533 49.3192 1.53528C49.3192 1.53524 49.3192 1.53524 49.3192 1.53526C49.3192 1.53526 49.3192 1.53527 49.3192 1.53528C49.3192 1.53529 49.3192 1.53531 49.3191 1.53532C49.3191 1.53533 49.3191 1.53538 49.319 1.53544C49.319 1.53546 49.3189 1.53557 49.3188 1.53571C49.3187 1.5358 49.3183 1.53612 49.3181 1.53633C49.3172 1.53726 48.6129 1.53614 48.6075 0.832802C48.6091 0.83119 48.6109 0.829316 48.6112 0.829047C48.6113 0.828937 48.6115 0.828766 48.6115 0.828706C48.6116 0.828607 48.6117 0.828529 48.6117 0.828511C48.6118 0.828458 48.6118 0.828416 48.6118 0.828407C48.6119 0.828391 48.6119 0.828378 48.6119 0.828372C48.6119 0.828341 48.6119 0.828314 48.6119 0.828328C48.6119 0.828332 48.6119 0.828346 48.6119 0.828377L49.3192 1.53527C49.3192 1.53524 49.3192 1.53522 49.3193 1.5352C49.3193 1.53519 49.3193 1.53519 49.3193 1.53518C49.3193 1.53518 49.3193 1.53516 49.3193 1.53514C49.3193 1.53513 49.3193 1.53512 49.3194 1.5351C49.3194 1.53509 49.3194 1.53505 49.3195 1.53499C49.3195 1.53498 49.3196 1.5349 49.3197 1.5348C49.3197 1.53474 49.3199 1.53457 49.32 1.53446C49.3203 1.53419 49.3221 1.53232 49.3237 1.5307C49.3183 0.827363 48.614 0.826241 48.6131 0.827174C48.6129 0.82739 48.6125 0.827702 48.6125 0.827798C48.6123 0.827937 48.6122 0.828047 48.6122 0.828061C48.6121 0.828124 48.6121 0.828174 48.6121 0.828182C48.612 0.8282 48.612 0.828214 48.612 0.828222C48.612 0.828237 48.612 0.828249 48.612 0.828254C48.612 0.828288 48.6119 0.828347 48.6119 0.828366C48.6119 0.828385 48.6118 0.828444 48.6118 0.828479C48.6118 0.828484 48.6118 0.828496 48.6117 0.828511C48.6117 0.828518 48.6117 0.828532 48.6117 0.82855C48.6117 0.828558 48.6116 0.828608 48.6116 0.828672C48.6116 0.828686 48.6115 0.828796 48.6113 0.828934C48.6112 0.82903 48.6109 0.82934 48.6107 0.829556C48.6098 0.830475 48.6112 1.53472 49.3145 1.53992C49.3161 1.53829 49.3181 1.53638 49.3184 1.53611C49.3185 1.536 49.3186 1.53583 49.3187 1.53577C49.3188 1.53567 49.3189 1.53559 49.3189 1.53557C49.3189 1.53552 49.319 1.53548 49.319 1.53547C49.319 1.53545 49.319 1.53544 49.319 1.53543C49.3191 1.53541 49.3191 1.53539 49.3191 1.53539C49.3191 1.53538 49.3191 1.53537 49.3191 1.53537C49.3191 1.53535 49.3191 1.53533 49.3192 1.53529L48.6119 0.828356ZM48.4962 1.00939L45.8256 8.27828L46.7642 8.62314L49.4349 1.35426L48.4962 1.00939ZM45.8256 8.27819C45.6169 8.84598 45.9078 9.47595 46.4759 9.6848L46.8209 8.74621C46.7715 8.72804 46.7459 8.67297 46.7642 8.62323L45.8256 8.27819ZM46.4761 9.68487L49.2725 10.7114L49.6171 9.77268L46.8207 8.74613L46.4761 9.68487ZM48.9754 10.0698L48.3594 11.7481L49.2982 12.0927L49.9142 10.4143L48.9754 10.0698ZM48.3594 11.7482C48.1511 12.3161 48.4422 12.9452 49.01 13.154L49.3551 12.2154C49.3054 12.1971 49.28 12.1422 49.2982 12.0926L48.3594 11.7482ZM49.0102 13.1541L54.603 15.2074L54.9477 14.2687L49.3549 12.2153L49.0102 13.1541ZM54.306 14.5656L53.895 15.6844L54.8336 16.0293L55.2447 14.9105L54.306 14.5656ZM53.8958 15.6822C53.443 16.897 53.8655 18.2646 54.9252 19.0119L55.5015 18.1946C54.8132 17.7093 54.5386 16.8208 54.8328 16.0315L53.8958 15.6822ZM54.7134 18.6032V21.6434H55.7134V18.6032H54.7134ZM55.2134 21.1434H47.1974V22.1434H55.2134V21.1434ZM47.6555 21.443C47.2025 20.4075 46.2756 19.6556 45.1685 19.4262L44.9656 20.4054C45.7552 20.569 46.4163 21.1053 46.7393 21.8438L47.6555 21.443ZM45.5671 19.9158V18.6648H44.5671V19.9158H45.5671ZM45.5671 18.6648C45.5671 18.0597 45.0768 17.569 44.4713 17.569V18.569C44.5243 18.569 44.5671 18.6117 44.5671 18.6648H45.5671ZM44.4713 17.569H42.0694V18.569H44.4713V17.569ZM42.0694 17.569C41.4643 17.569 40.9736 18.0596 40.9736 18.6648H41.9736C41.9736 18.6119 42.0165 18.569 42.0694 18.569V17.569ZM40.9736 18.6648V28.1965H41.9736V18.6648H40.9736ZM40.9736 28.1965C40.9736 28.8021 41.4644 29.2923 42.0694 29.2923V28.2923C42.0164 28.2923 41.9736 28.2495 41.9736 28.1965H40.9736ZM42.0694 29.2923H44.4713V28.2923H42.0694V29.2923ZM44.4713 29.2923C45.0767 29.2923 45.5671 28.8019 45.5671 28.1965H44.5671C44.5671 28.2496 44.5244 28.2923 44.4713 28.2923V29.2923ZM45.5671 28.1965V26.9457H44.5671V28.1965H45.5671ZM45.1687 27.4353C46.2755 27.2056 47.2025 26.4541 47.6555 25.4182L46.7393 25.0175C46.4163 25.7562 45.7552 26.2923 44.9655 26.4561L45.1687 27.4353ZM47.1974 25.7178H55.2134V24.7178H47.1974V25.7178ZM54.7134 25.2178V25.8136H55.7134V25.2178H54.7134ZM54.7134 25.8136C54.7134 27.0767 55.7372 28.101 57.0005 28.101V27.101C56.2896 27.101 55.7134 26.5246 55.7134 25.8136H54.7134ZM57.0005 28.101C58.2637 28.101 59.2878 27.0768 59.2878 25.8136H58.2878C58.2878 26.5245 57.7114 27.101 57.0005 27.101V28.101ZM59.2878 25.8136V19.214H58.2878V25.8136H59.2878ZM59.0099 19.662C59.6659 19.3367 60.1728 18.7724 60.4254 18.0846L59.4868 17.7398C59.3224 18.1871 58.9927 18.5543 58.5657 18.7661L59.0099 19.662ZM60.4254 18.0846L60.8365 16.9658L59.8978 16.621L59.4868 17.7398L60.4254 18.0846ZM60.1949 17.2628L65.2282 19.1096L65.5726 18.1709L60.5394 16.324L60.1949 17.2628ZM65.2274 19.1094C65.349 19.1542 65.4769 19.1768 65.6054 19.1768V18.1768C65.5939 18.1768 65.5833 18.1748 65.5734 18.1711L65.2274 19.1094ZM65.6054 19.1768C66.0645 19.1768 66.4755 18.8905 66.6342 18.4591L65.6957 18.1139C65.6818 18.1515 65.6458 18.1768 65.6054 18.1768V19.1768ZM66.6343 18.4588L66.8576 17.8505L65.9188 17.5059L65.6956 18.1142L66.6343 18.4588ZM66.2957 18.1696C68.5057 18.5854 70.6342 17.131 71.0498 14.9212L70.067 14.7364C69.7536 16.4033 68.1479 17.5005 66.4807 17.1868L66.2957 18.1696ZM71.0498 14.9212C71.2034 14.1047 71.1037 13.2608 70.7639 12.5027L69.8514 12.9117C70.1077 13.4836 70.1829 14.1203 70.067 14.7364L71.0498 14.9212ZM70.536 13.152L74.1475 11.2976L73.6907 10.408L70.0793 12.2624L70.536 13.152ZM74.1471 11.2978C74.6856 11.0219 74.8985 10.3616 74.6226 9.82304L73.7326 10.2791C73.7567 10.3261 73.7381 10.3838 73.6911 10.4078L74.1471 11.2978ZM74.6228 9.82343C74.4977 9.57866 74.2851 9.39003 74.0275 9.29479L73.6807 10.2328C73.7031 10.241 73.7216 10.2574 73.7324 10.2787L74.6228 9.82343ZM73.6021 9.33195L73.5991 9.3337L74.1031 10.1974L74.1061 10.1956L73.6021 9.33195ZM56.2343 19.6161L56.7276 19.7949L57.0683 18.8547L56.575 18.6759L56.2343 19.6161ZM56.7292 19.7954C57.001 19.8929 57.2861 19.9489 57.5747 19.9613L57.6177 18.9623C57.4298 18.9542 57.244 18.9177 57.0667 18.8541L56.7292 19.7954ZM57.0962 19.4618V21.6434H58.0962V19.4618H57.0962ZM57.5962 21.1434H56.4047V22.1434H57.5962V21.1434ZM56.9047 21.6434V19.146H55.9047V21.6434H56.9047ZM43.8758 27.101H42.6652V28.101H43.8758V27.101ZM43.1652 27.601V19.2605H42.1652V27.601H43.1652ZM42.6652 19.7605H43.8758V18.7605H42.6652V19.7605ZM43.3758 19.2605V27.601H44.3758V19.2605H43.3758ZM45.7586 24.0259C45.7579 24.5715 45.4141 25.058 44.8997 25.2407L45.2345 26.183C46.1471 25.8588 46.7574 24.9956 46.7586 24.0272L45.7586 24.0259ZM45.5671 25.7119V21.1496H44.5671V25.7119H45.5671ZM44.8998 21.6208C45.414 21.8033 45.7579 22.2897 45.7586 22.8356L46.7586 22.8343C46.7574 21.8657 46.1472 21.0025 45.2343 20.6784L44.8998 21.6208ZM45.7586 22.835V24.0265H46.7586V22.835H45.7586ZM47.4687 23.335H57.5962V22.335H47.4687V23.335ZM57.0962 22.835V24.0265H58.0962V22.835H57.0962ZM57.5962 23.5265H47.4687V24.5265H57.5962V23.5265ZM47.9687 24.0265V22.835H46.9687V24.0265H47.9687ZM57.0005 25.9094C56.9476 25.9094 56.9047 25.8665 56.9047 25.8136H55.9047C55.9047 26.4188 56.3953 26.9094 57.0005 26.9094V25.9094ZM56.9047 25.8136V25.2178H55.9047V25.8136H56.9047ZM56.4047 25.7178H57.5962V24.7178H56.4047V25.7178ZM57.0962 25.2178V25.8136H58.0962V25.2178H57.0962ZM57.0962 25.8136C57.0962 25.8665 57.0533 25.9094 57.0005 25.9094V26.9094C57.6056 26.9094 58.0962 26.4188 58.0962 25.8136H57.0962ZM58.7795 16.2107L58.3685 17.3295L59.3071 17.6744L59.7182 16.5556L58.7795 16.2107ZM58.3686 17.3293C58.2369 17.6872 57.8397 17.8711 57.4812 17.7396L57.1368 18.6784C58.0133 18.9999 58.9847 18.5507 59.3071 17.6746L58.3686 17.3293ZM57.481 17.7395L56.3604 17.329L56.0164 18.2679L57.137 18.6785L57.481 17.7395ZM56.3608 17.3291C56.0024 17.1975 55.8184 16.8002 55.95 16.4417L55.0112 16.0971C54.6893 16.9741 55.1394 17.9459 56.0161 18.2678L56.3608 17.3291ZM55.9499 16.442L56.3612 15.3236L55.4226 14.9785L55.0114 16.0968L55.9499 16.442ZM65.4245 16.8491L50.3247 11.3043L49.98 12.243L65.0798 17.7878L65.4245 16.8491ZM50.6216 11.9461L51.0329 10.8273L50.0943 10.4823L49.683 11.6011L50.6216 11.9461ZM50.3913 11.1242L59.3387 14.4099L59.6834 13.4711L50.736 10.1855L50.3913 11.1242ZM59.3402 14.4104C59.7285 14.5516 60.1641 14.4633 60.4666 14.1805L59.7837 13.45C59.7567 13.4752 59.7172 13.4834 59.682 13.4706L59.3402 14.4104ZM60.4678 14.1793L62.1397 12.6055L61.4542 11.8773L59.7824 13.4512L60.4678 14.1793ZM61.6246 12.7108L66.3118 14.4323L66.6566 13.4937L61.9693 11.7721L61.6246 12.7108ZM66.0148 13.7907L64.7828 17.1461L65.7215 17.4908L66.9536 14.1353L66.0148 13.7907ZM68.8113 14.8162C68.5127 15.6213 67.7096 16.1243 66.8552 16.0415L66.7587 17.0368C68.065 17.1635 69.2925 16.3944 69.7489 15.1639L68.8113 14.8162ZM67.2763 16.7114L68.1969 14.2038L67.2582 13.8592L66.3376 16.3668L67.2763 16.7114ZM67.9564 14.476L69.46 13.7017L69.0022 12.8127L67.4986 13.587L67.9564 14.476ZM68.7713 13.4537C68.9568 13.8877 68.9706 14.3762 68.81 14.8198L69.7502 15.1603C69.9971 14.4783 69.9759 13.7278 69.6909 13.0607L68.7713 13.4537ZM67.2258 12.4321C67.1652 12.4374 67.1052 12.448 67.0462 12.4638L67.3053 13.4296C67.3078 13.4289 67.3103 13.4285 67.3127 13.4283L67.2258 12.4321ZM67.3481 12.4773L62.0366 10.527L61.6919 11.4657L67.0034 13.4161L67.3481 12.4773ZM62.0366 10.527C61.6474 10.3841 61.2107 10.4727 60.9081 10.7569L61.5927 11.4858C61.6192 11.461 61.6575 11.4531 61.6919 11.4657L62.0366 10.527ZM60.9079 10.7571L59.2341 12.3312L59.9191 13.0597L61.593 11.4856L60.9079 10.7571ZM59.749 12.2261L47.7911 7.83485L47.4464 8.77356L59.4042 13.1648L59.749 12.2261ZM48.0881 8.47658L50.3467 2.32675L49.408 1.982L47.1494 8.13183L48.0881 8.47658ZM49.7036 2.62323L71.9938 10.8814L72.3412 9.94371L50.051 1.68552L49.7036 2.62323ZM71.9389 9.96787L67.0407 12.4855L67.4978 13.3749L72.3961 10.8573L71.9389 9.96787ZM52.6603 8.52983L52.1348 9.94976L53.0727 10.2968L53.5981 8.8769L52.6603 8.52983ZM54.9501 9.36987L54.4246 10.7898L55.3624 11.1369L55.8879 9.71693L54.9501 9.36987ZM57.1721 10.1963L56.6466 11.6163L57.5845 11.9633L58.1099 10.5434L57.1721 10.1963ZM55.7196 15.6205L59.0766 16.8525L59.4211 15.9137L56.0642 14.6817L55.7196 15.6205Z" fill="#E3B873"/>
</svg>
