<svg width="1438" height="559" viewBox="0 0 1438 559" fill="none" xmlns="http://www.w3.org/2000/svg">
<g opacity="1">
<path d="M1327.68 355.648H1368.7V551.671H1327.68V355.648Z" fill="#333333"/>
<path d="M1338.99 345.71H1357.64V356.766H1338.99V345.71Z" fill="#333333"/>
<path d="M1342.85 339.251H1353.66V345.586H1342.85V339.251Z" fill="#333333"/>
<path d="M1348.94 355.275L1348.19 248.444L1347.57 355.275H1348.94Z" fill="#333333"/>
<path opacity="0.09" d="M1346.08 370.431H1350.43V374.778H1346.08V370.431Z" fill="white"/>
<path opacity="0.33" d="M1346.08 384.219H1350.43V388.567H1346.08V384.219Z" fill="white"/>
<path opacity="0.37" d="M1346.08 398.132H1350.43V402.48H1346.08V398.132Z" fill="white"/>
<path opacity="0.14" d="M1346.08 411.921H1350.43V416.269H1346.08V411.921Z" fill="white"/>
<path opacity="0.3" d="M1346.08 425.834H1350.43V430.182H1346.08V425.834Z" fill="white"/>
<path opacity="0.16" d="M1346.08 439.622H1350.43V443.97H1346.08V439.622Z" fill="white"/>
<path opacity="0.34" d="M1346.08 453.535H1350.43V457.883H1346.08V453.535Z" fill="white"/>
<path opacity="0.29" d="M1346.08 467.324H1350.43V471.672H1346.08V467.324Z" fill="white"/>
<path opacity="0.12" d="M1346.08 481.237H1350.43V485.585H1346.08V481.237Z" fill="white"/>
<path d="M1402.63 399.996H1531.15V571.05H1402.63V399.996Z" fill="#4D4D4D"/>
<path d="M1436.31 407.076H1443.15V413.908H1436.31V407.076Z" fill="white"/>
<path d="M1427.24 407.076H1434.08V413.908H1427.24V407.076Z" fill="white"/>
<path d="M1436.31 416.02H1443.15V422.853H1436.31V416.02Z" fill="white"/>
<path d="M1427.24 416.02H1434.08V422.853H1427.24V416.02Z" fill="white"/>
<path d="M1436.31 424.964H1443.15V431.797H1436.31V424.964Z" fill="white"/>
<path d="M1427.24 424.964H1434.08V431.797H1427.24V424.964Z" fill="white"/>
<path d="M1436.31 433.784H1443.15V440.616H1436.31V433.784Z" fill="white"/>
<path d="M1427.24 433.784H1434.08V440.616H1427.24V433.784Z" fill="white"/>
<path d="M1436.31 442.728H1443.15V449.56H1436.31V442.728Z" fill="white"/>
<path d="M1427.24 442.728H1434.08V449.56H1427.24V442.728Z" fill="white"/>
<path d="M1436.31 451.672H1443.15V458.504H1436.31V451.672Z" fill="white"/>
<path d="M1427.24 451.672H1434.08V458.504H1427.24V451.672Z" fill="white"/>
<path d="M1436.31 460.616H1443.15V467.448H1436.31V460.616Z" fill="white"/>
<path d="M1427.24 460.616H1434.08V467.448H1427.24V460.616Z" fill="white"/>
<path d="M1436.31 469.56H1443.15V476.392H1436.31V469.56Z" fill="white"/>
<path d="M1427.24 469.56H1434.08V476.392H1427.24V469.56Z" fill="white"/>
<path d="M1436.31 478.38H1443.15V485.212H1436.31V478.38Z" fill="white"/>
<path d="M1427.24 478.38H1434.08V485.212H1427.24V478.38Z" fill="white"/>
<path d="M1436.31 487.324H1443.15V494.156H1436.31V487.324Z" fill="white"/>
<path d="M1427.24 487.324H1434.08V494.156H1427.24V487.324Z" fill="white"/>
<path d="M1436.31 496.268H1443.15V503.1H1436.31V496.268Z" fill="white"/>
<path d="M1427.24 496.268H1434.08V503.1H1427.24V496.268Z" fill="white"/>
<path d="M1436.31 505.212H1443.15V512.044H1436.31V505.212Z" fill="white"/>
<path d="M1427.24 505.212H1434.08V512.044H1427.24V505.212Z" fill="white"/>
<path d="M1436.31 514.156H1443.15V520.988H1436.31V514.156Z" fill="white"/>
<path d="M1427.24 514.156H1434.08V520.988H1427.24V514.156Z" fill="white"/>
<path d="M1436.31 522.976H1443.15V529.808H1436.31V522.976Z" fill="white"/>
<path d="M1427.24 522.976H1434.08V529.808H1427.24V522.976Z" fill="white"/>
<path d="M1418.17 522.976H1425V529.808H1418.17V522.976Z" fill="white"/>
<path d="M1436.31 531.92H1443.15V538.752H1436.31V531.92Z" fill="white"/>
<path d="M1427.24 531.92H1434.08V538.752H1427.24V531.92Z" fill="white"/>
<path d="M1418.17 531.92H1425V538.752H1418.17V531.92Z" fill="white"/>
<path d="M1436.31 540.864H1443.15V547.696H1436.31V540.864Z" fill="white"/>
<path d="M1427.24 540.864H1434.08V547.696H1427.24V540.864Z" fill="white"/>
<path d="M1418.17 540.864H1425V547.696H1418.17V540.864Z" fill="white"/>
<path d="M1436.31 549.808H1443.15V556.64H1436.31V549.808Z" fill="white"/>
<path d="M1427.24 549.808H1434.08V556.64H1427.24V549.808Z" fill="white"/>
<path d="M1418.17 549.808H1425V556.64H1418.17V549.808Z" fill="white"/>
<path d="M1436.31 558.751H1443.15V565.584H1436.31V558.751Z" fill="white"/>
<path d="M1427.24 558.751H1434.08V565.584H1427.24V558.751Z" fill="white"/>
<path d="M1418.17 558.751H1425V565.584H1418.17V558.751Z" fill="white"/>
<path d="M1421.65 382.604H1512.13V399.996H1421.65V382.604Z" fill="#4D4D4D"/>
<path opacity="0.19" d="M1418.17 407.076H1425V413.908H1418.17V407.076Z" fill="white"/>
<path opacity="0.24" d="M1418.17 416.02H1425V422.852H1418.17V416.02Z" fill="white"/>
<path opacity="0.29" d="M1418.17 424.964H1425V431.796H1418.17V424.964Z" fill="white"/>
<path opacity="0.39" d="M1418.17 433.784H1425V440.616H1418.17V433.784Z" fill="white"/>
<path opacity="0.21" d="M1418.17 442.728H1425V449.56H1418.17V442.728Z" fill="white"/>
<path opacity="0.48" d="M1418.17 451.672H1425V458.504H1418.17V451.672Z" fill="white"/>
<path opacity="0.32" d="M1418.17 460.616H1425V467.448H1418.17V460.616Z" fill="white"/>
<path opacity="0.13" d="M1418.17 469.56H1425V476.392H1418.17V469.56Z" fill="white"/>
<path opacity="0.19" d="M1418.17 478.38H1425V485.212H1418.17V478.38Z" fill="white"/>
<path opacity="0.03" d="M1418.17 487.324H1425V494.156H1418.17V487.324Z" fill="white"/>
<path opacity="0.36" d="M1418.17 496.268H1425V503.1H1418.17V496.268Z" fill="white"/>
<path opacity="0.25" d="M1418.17 505.212H1425V512.044H1418.17V505.212Z" fill="white"/>
<path d="M1418.17 514.156H1425V520.988H1418.17V514.156Z" fill="white"/>
<path d="M1142.12 477.634H1183.13V573.658H1142.12V477.634Z" fill="#333333"/>
<path d="M1164.49 472.79H1183.13V478.255H1164.49V472.79Z" fill="#333333"/>
<path d="M1172.32 469.684H1183.13V472.79H1172.32V469.684Z" fill="#333333"/>
<path opacity="0.06" d="M1159.27 484.342H1165.98V489.311H1159.27V484.342Z" fill="white"/>
<path opacity="0.12" d="M1159.27 496.64H1165.98V501.609H1159.27V496.64Z" fill="white"/>
<path opacity="0.19" d="M1159.27 521.236H1165.98V526.205H1159.27V521.236Z" fill="white"/>
<path opacity="0.14" d="M1159.27 545.832H1165.98V550.801H1159.27V545.832Z" fill="white"/>
<path opacity="0.1" d="M1159.27 558.13H1165.98V563.099H1159.27V558.13Z" fill="white"/>
<path d="M1245.03 488.069H1301.21V539.497H1245.03V488.069Z" fill="#333333"/>
<path d="M1253.85 483.473H1292.26V505.584H1253.85V483.473Z" fill="#333333"/>
<path d="M1240.93 520.491H1297.11V571.919H1240.93V520.491Z" fill="#333333"/>
<path d="M1249.88 515.895H1288.28V538.006H1249.88V515.895Z" fill="#333333"/>
<path d="M1166.1 513.659H1222.28V572.913H1166.1V513.659Z" fill="#333333"/>
<path d="M1174.93 508.441H1213.34V534.031H1174.93V508.441Z" fill="#333333"/>
<path d="M978.052 531.671H1034.23V588.938H978.052V531.671Z" fill="#333333"/>
<path d="M986.877 526.578H1025.28V551.298H986.877V526.578Z" fill="#333333"/>
<path d="M1099.86 413.411H1162.62V572.789H1099.86V413.411Z" fill="#333333"/>
<path opacity="0.46" d="M1144.35 420.616H1159.52V423.474H1144.35V420.616Z" fill="#E6E6E6"/>
<path opacity="0.34" d="M1123.6 420.616H1138.76V423.474H1123.6V420.616Z" fill="#E6E6E6"/>
<path opacity="0.52" d="M1102.96 420.616H1118.13V423.474H1102.96V420.616Z" fill="#E6E6E6"/>
<path opacity="0.54" d="M1144.35 427.2H1159.52V430.057H1144.35V427.2Z" fill="#E6E6E6"/>
<path opacity="0.3" d="M1123.6 427.2H1138.76V430.057H1123.6V427.2Z" fill="#E6E6E6"/>
<path opacity="0.06" d="M1102.96 427.2H1118.13V430.057H1102.96V427.2Z" fill="#E6E6E6"/>
<path opacity="0.15" d="M1144.35 433.784H1159.52V436.641H1144.35V433.784Z" fill="#E6E6E6"/>
<path opacity="0.42" d="M1123.6 433.784H1138.76V436.641H1123.6V433.784Z" fill="#E6E6E6"/>
<path opacity="0.48" d="M1102.96 433.784H1118.13V436.641H1102.96V433.784Z" fill="#E6E6E6"/>
<path opacity="0.18" d="M1144.35 440.368H1159.52V443.225H1144.35V440.368Z" fill="#E6E6E6"/>
<path opacity="0.28" d="M1102.96 440.368H1118.13V443.225H1102.96V440.368Z" fill="#E6E6E6"/>
<path opacity="0.29" d="M1144.35 446.951H1159.52V449.809H1144.35V446.951Z" fill="#E6E6E6"/>
<path opacity="0.28" d="M1123.6 446.951H1138.76V449.809H1123.6V446.951Z" fill="#E6E6E6"/>
<path opacity="0.56" d="M1102.96 446.951H1118.13V449.809H1102.96V446.951Z" fill="#E6E6E6"/>
<path opacity="0.41" d="M1144.35 453.535H1159.52V456.392H1144.35V453.535Z" fill="#E6E6E6"/>
<path opacity="0.16" d="M1123.6 453.535H1138.76V456.392H1123.6V453.535Z" fill="#E6E6E6"/>
<path opacity="0.4" d="M1102.96 453.535H1118.13V456.392H1102.96V453.535Z" fill="#E6E6E6"/>
<path opacity="0.1" d="M1144.35 460.119H1159.52V462.976H1144.35V460.119Z" fill="#E6E6E6"/>
<path opacity="0.17" d="M1123.6 460.119H1138.76V462.976H1123.6V460.119Z" fill="#E6E6E6"/>
<path opacity="0.08" d="M1102.96 460.119H1118.13V462.976H1102.96V460.119Z" fill="#E6E6E6"/>
<path opacity="0.49" d="M1144.35 466.703H1159.52V469.56H1144.35V466.703Z" fill="#E6E6E6"/>
<path opacity="0.58" d="M1123.6 466.703H1138.76V469.56H1123.6V466.703Z" fill="#E6E6E6"/>
<path opacity="0.58" d="M1102.96 466.703H1118.13V469.56H1102.96V466.703Z" fill="#E6E6E6"/>
<path opacity="0.26" d="M1144.35 473.287H1159.52V476.144H1144.35V473.287Z" fill="#E6E6E6"/>
<path opacity="0.37" d="M1123.6 473.287H1138.76V476.144H1123.6V473.287Z" fill="#E6E6E6"/>
<path opacity="0.34" d="M1102.96 473.287H1118.13V476.144H1102.96V473.287Z" fill="#E6E6E6"/>
<path opacity="0.55" d="M1144.35 479.87H1159.52V482.727H1144.35V479.87Z" fill="#E6E6E6"/>
<path opacity="0.12" d="M1123.6 479.87H1138.76V482.727H1123.6V479.87Z" fill="#E6E6E6"/>
<path opacity="0.6" d="M1102.96 479.87H1118.13V482.727H1102.96V479.87Z" fill="#E6E6E6"/>
<path opacity="0.02" d="M1144.35 486.454H1159.52V489.311H1144.35V486.454Z" fill="#E6E6E6"/>
<path opacity="0.28" d="M1123.6 486.454H1138.76V489.311H1123.6V486.454Z" fill="#E6E6E6"/>
<path opacity="0.21" d="M1102.96 486.454H1118.13V489.311H1102.96V486.454Z" fill="#E6E6E6"/>
<path opacity="0.57" d="M1144.35 493.038H1159.52V495.895H1144.35V493.038Z" fill="#E6E6E6"/>
<path opacity="0.38" d="M1123.6 493.038H1138.76V495.895H1123.6V493.038Z" fill="#E6E6E6"/>
<path opacity="0.25" d="M1102.96 493.038H1118.13V495.895H1102.96V493.038Z" fill="#E6E6E6"/>
<path opacity="0.15" d="M1144.35 499.622H1159.52V502.479H1144.35V499.622Z" fill="#E6E6E6"/>
<path opacity="0.47" d="M1123.6 499.622H1138.76V502.479H1123.6V499.622Z" fill="#E6E6E6"/>
<path opacity="0.3" d="M1102.96 499.622H1118.13V502.479H1102.96V499.622Z" fill="#E6E6E6"/>
<path opacity="0.4" d="M1144.35 506.206H1159.52V509.063H1144.35V506.206Z" fill="#E6E6E6"/>
<path opacity="0.39" d="M1123.6 506.206H1138.76V509.063H1123.6V506.206Z" fill="#E6E6E6"/>
<path opacity="0.24" d="M1102.96 506.206H1118.13V509.063H1102.96V506.206Z" fill="#E6E6E6"/>
<path opacity="0.46" d="M1144.35 512.789H1159.52V515.646H1144.35V512.789Z" fill="#E6E6E6"/>
<path opacity="0.22" d="M1123.6 512.789H1138.76V515.646H1123.6V512.789Z" fill="#E6E6E6"/>
<path opacity="0.11" d="M1102.96 512.789H1118.13V515.646H1102.96V512.789Z" fill="#E6E6E6"/>
<path opacity="0.11" d="M1123.6 519.373H1138.76V522.23H1123.6V519.373Z" fill="#E6E6E6"/>
<path opacity="0.02" d="M1102.96 519.373H1118.13V522.23H1102.96V519.373Z" fill="#E6E6E6"/>
<path opacity="0.27" d="M1144.35 525.957H1159.52V528.814H1144.35V525.957Z" fill="#E6E6E6"/>
<path opacity="0.21" d="M1123.6 525.957H1138.76V528.814H1123.6V525.957Z" fill="#E6E6E6"/>
<path opacity="0.49" d="M1102.96 525.957H1118.13V528.814H1102.96V525.957Z" fill="#E6E6E6"/>
<path opacity="0.6" d="M1144.35 532.541H1159.52V535.398H1144.35V532.541Z" fill="#E6E6E6"/>
<path opacity="0.31" d="M1123.6 532.541H1138.76V535.398H1123.6V532.541Z" fill="#E6E6E6"/>
<path opacity="0.22" d="M1102.96 532.541H1118.13V535.398H1102.96V532.541Z" fill="#E6E6E6"/>
<path opacity="0.54" d="M1144.35 539.125H1159.52V541.982H1144.35V539.125Z" fill="#E6E6E6"/>
<path opacity="0.6" d="M1123.6 539.125H1138.76V541.982H1123.6V539.125Z" fill="#E6E6E6"/>
<path opacity="0.08" d="M1102.96 539.125H1118.13V541.982H1102.96V539.125Z" fill="#E6E6E6"/>
<path opacity="0.55" d="M1123.6 545.708H1138.76V548.565H1123.6V545.708Z" fill="#E6E6E6"/>
<path d="M1102.96 545.708H1118.13V548.565H1102.96V545.708Z" fill="#E6E6E6"/>
<path opacity="0.6" d="M1143.36 420.616H1144.35V548.565H1143.36V420.616Z" fill="#E6E6E6"/>
<path opacity="0.6" d="M1118.13 420.616H1119.12V548.565H1118.13V420.616Z" fill="#E6E6E6"/>
<path d="M1068.54 413.411H1099.86V572.789H1068.54V413.411Z" fill="#4D4D4D"/>
<path opacity="0.69" d="M1073.13 420.616H1096.75V423.474H1073.13V420.616Z" fill="#E6E6E6"/>
<path opacity="0.79" d="M1073.13 427.2H1096.75V430.057H1073.13V427.2Z" fill="#E6E6E6"/>
<path opacity="0.19" d="M1073.13 433.784H1096.75V436.641H1073.13V433.784Z" fill="#E6E6E6"/>
<path opacity="0.88" d="M1073.13 440.368H1096.75V443.225H1073.13V440.368Z" fill="#E6E6E6"/>
<path opacity="0.5" d="M1073.13 446.951H1096.75V449.809H1073.13V446.951Z" fill="#E6E6E6"/>
<path opacity="0.25" d="M1073.13 453.535H1096.75V456.392H1073.13V453.535Z" fill="#E6E6E6"/>
<path opacity="0.91" d="M1073.13 460.119H1096.75V462.976H1073.13V460.119Z" fill="#E6E6E6"/>
<path opacity="0.02" d="M1073.13 466.703H1096.75V469.56H1073.13V466.703Z" fill="#E6E6E6"/>
<path opacity="0.53" d="M1073.13 473.287H1096.75V476.144H1073.13V473.287Z" fill="#E6E6E6"/>
<path opacity="0.65" d="M1073.13 479.87H1096.75V482.727H1073.13V479.87Z" fill="#E6E6E6"/>
<path d="M1073.13 486.454H1096.75V489.311H1073.13V486.454Z" fill="#E6E6E6"/>
<path opacity="0.8" d="M1073.13 493.038H1096.75V495.895H1073.13V493.038Z" fill="#E6E6E6"/>
<path opacity="0.82" d="M1073.13 499.622H1096.75V502.479H1073.13V499.622Z" fill="#E6E6E6"/>
<path opacity="0.75" d="M1073.13 506.206H1096.75V509.063H1073.13V506.206Z" fill="#E6E6E6"/>
<path opacity="0.31" d="M1073.13 512.789H1096.75V515.646H1073.13V512.789Z" fill="#E6E6E6"/>
<path opacity="0.22" d="M1073.13 519.373H1096.75V522.23H1073.13V519.373Z" fill="#E6E6E6"/>
<path opacity="0.43" d="M1073.13 525.957H1096.75V528.814H1073.13V525.957Z" fill="#E6E6E6"/>
<path opacity="0.68" d="M1073.13 532.541H1096.75V535.398H1073.13V532.541Z" fill="#E6E6E6"/>
<path opacity="0.38" d="M1073.13 539.125H1096.75V541.982H1073.13V539.125Z" fill="#E6E6E6"/>
<path opacity="0.84" d="M1073.13 545.708H1096.75V548.565H1073.13V545.708Z" fill="#E6E6E6"/>
<path d="M1151.56 404.964V413.411H1110.92V404.964H1151.56ZM1142.49 410.679H1146.72V407.821H1142.49V410.679ZM1135.9 410.679H1140V407.821H1135.9V410.679ZM1129.19 410.679H1133.29V407.821H1129.19V410.679ZM1122.48 410.679H1126.7V407.821H1122.48V410.679ZM1115.77 410.679H1119.99V407.821H1115.77V410.679Z" fill="#333333"/>
<path d="M1103.46 407.822H1104.58V410.679H1103.46V407.822Z" fill="#333333"/>
<path d="M1110.92 404.964V413.411H1091.78V404.964H1110.92ZM1103.46 410.679H1107.56V407.821H1103.46V410.679ZM1094.64 410.679H1098.74V407.821H1094.64V410.679Z" fill="#4D4D4D"/>
<path d="M1094.76 407.822H1095.88V410.679H1094.76V407.822Z" fill="#333333"/>
<path d="M1091.53 583.596H1176.05L1091.53 521.236V583.596Z" fill="#333333"/>
<path d="M1217.56 379.623H1224.4V405.586H1217.56V379.623Z" fill="#4D4D4D"/>
<path d="M1224.27 379.623H1231.23V405.586H1224.27V379.623Z" fill="#333333"/>
<path d="M1210.48 379.623H1217.44V405.586H1210.48V379.623Z" fill="#666666"/>
<path d="M1190.34 423.349H1209.73V571.422H1190.34V423.349Z" fill="#666666"/>
<path d="M1232.48 423.349H1249.38V571.422H1232.48V423.349Z" fill="#333333"/>
<path d="M1209.73 423.349H1232.6V571.422H1209.73V423.349Z" fill="#4D4D4D"/>
<path opacity="0.6" d="M1244.53 427.697H1247.02V569.435H1244.53V427.697Z" fill="#E6E6E6"/>
<path opacity="0.6" d="M1239.69 427.697H1242.17V569.435H1239.69V427.697Z" fill="#E6E6E6"/>
<path opacity="0.6" d="M1234.84 427.697H1237.32V569.435H1234.84V427.697Z" fill="#E6E6E6"/>
<path d="M1205.88 427.697H1208.36V569.435H1205.88V427.697Z" fill="#E6E6E6"/>
<path d="M1201.03 427.697H1203.52V569.435H1201.03V427.697Z" fill="#E6E6E6"/>
<path d="M1191.58 427.697H1194.07V569.435H1191.58V427.697Z" fill="#E6E6E6"/>
<path d="M1196.18 427.697H1198.67V569.435H1196.18V427.697Z" fill="#E6E6E6"/>
<path opacity="0.8" d="M1229.74 569.435H1212.59V427.697H1229.74V569.435ZM1227.01 430.181H1215.32V566.95H1227.01V430.181Z" fill="#E6E6E6"/>
<path opacity="0.8" d="M1224.77 564.59H1217.44V432.417H1224.77V564.59ZM1222.28 435.523H1221.41H1220.92H1219.92V561.484H1220.92H1221.41H1222.28V435.523Z" fill="#E6E6E6"/>
<path opacity="0.8" d="M1220.92 435.523H1221.41V561.484H1220.92V435.523Z" fill="#E6E6E6"/>
<path d="M1212.34 397.387H1229.49V423.349H1212.34V397.387Z" fill="#4D4D4D"/>
<path d="M1212.34 397.387H1229.49V423.349H1212.34V397.387Z" fill="#4D4D4D"/>
<path d="M1195.19 397.387H1212.34V423.349H1195.19V397.387Z" fill="#666666"/>
<path d="M1229.49 397.387H1246.65V423.349H1229.49V397.387Z" fill="#333333"/>
<path d="M1210.6 379.623H1231.23L1224.4 384.343H1217.44L1210.6 379.623Z" fill="#808080"/>
<path d="M841.829 370.058H851.772V399.25H841.829V370.058Z" fill="#4D4D4D"/>
<path d="M851.897 370.058H861.84V399.25H851.897V370.058Z" fill="#333333"/>
<path d="M831.886 370.058H841.829V399.25H831.886V370.058Z" fill="#666666"/>
<path d="M802.553 419.374H830.643V586.204H802.553V419.374Z" fill="#666666"/>
<path d="M863.704 419.374H888.065V586.204H863.704V419.374Z" fill="#333333"/>
<path d="M830.643 419.374H863.704V586.204H830.643V419.374Z" fill="#4D4D4D"/>
<path opacity="0.4" d="M881.105 424.343H884.709V583.969H881.105V424.343Z" fill="#E6E6E6"/>
<path opacity="0.4" d="M874.02 424.343H877.625V583.969H874.02V424.343Z" fill="#E6E6E6"/>
<path opacity="0.4" d="M866.936 424.343H870.54V583.969H866.936V424.343Z" fill="#E6E6E6"/>
<path d="M825.05 424.343H828.654V583.969H825.05V424.343Z" fill="#E6E6E6"/>
<path d="M817.965 424.343H821.57V583.969H817.965V424.343Z" fill="#E6E6E6"/>
<path d="M804.417 424.343H808.022V583.969H804.417V424.343Z" fill="#E6E6E6"/>
<path d="M811.005 424.343H814.609V583.969H811.005V424.343Z" fill="#E6E6E6"/>
<path d="M859.478 583.969H834.62V424.343H859.478V583.969ZM855.625 427.076H838.722V581.236H855.625V427.076Z" fill="#E6E6E6"/>
<path d="M852.518 578.627H841.829V429.685H852.518V578.627ZM848.789 433.163H847.422H846.801H845.433V575.149H846.801H847.422H848.789V433.163Z" fill="#E6E6E6"/>
<path d="M846.801 433.163H847.422V575.149H846.801V433.163Z" fill="#E6E6E6"/>
<path d="M834.372 390.182H859.23V419.374H834.372V390.182Z" fill="#4D4D4D"/>
<path d="M834.372 390.182H859.23V419.374H834.372V390.182Z" fill="#4D4D4D"/>
<path d="M809.513 390.182H834.372V419.374H809.513V390.182Z" fill="#666666"/>
<path d="M859.105 390.182H883.964V419.374H859.105V390.182Z" fill="#333333"/>
<path d="M831.761 370.058H861.84L851.772 375.399H841.829L831.761 370.058Z" fill="#808080"/>
<path d="M913.545 442.479H981.532V465.088H913.545V442.479Z" fill="#E6E6E6"/>
<path d="M954.81 442.479H981.532V465.088H954.81V442.479Z" fill="#B3B3B3"/>
<path d="M954.81 465.212H1007.63V575.025H954.81V465.212Z" fill="#333333"/>
<path d="M872.28 465.212H954.81V575.025H872.28V465.212Z" fill="#4D4D4D"/>
<path d="M961.273 454.032H1001.92V465.212H961.273V454.032Z" fill="#333333"/>
<path d="M884.585 454.032H942.629V465.212H884.585V454.032Z" fill="#4D4D4D"/>
<path d="M931.567 433.908H954.81V442.479H931.567V433.908Z" fill="#E6E6E6"/>
<path d="M943.251 425.213H954.81V433.784H943.251V425.213Z" fill="#4D4D4D"/>
<path d="M954.934 425.213H966.493V433.784H954.934V425.213Z" fill="#333333"/>
<path d="M954.81 433.908H972.583V442.479H954.81V433.908Z" fill="#B3B3B3"/>
<path d="M955.555 425.213L954.81 405.337L954.188 425.213H955.555Z" fill="#333333"/>
<path opacity="0.12" d="M990.978 469.684H995.329V474.032H990.978V469.684Z" fill="white"/>
<path opacity="0.25" d="M985.012 469.684H989.363V474.032H985.012V469.684Z" fill="white"/>
<path opacity="0.36" d="M979.047 469.684H983.397V474.032H979.047V469.684Z" fill="white"/>
<path opacity="0.12" d="M973.081 469.684H977.431V474.032H973.081V469.684Z" fill="white"/>
<path opacity="0.14" d="M967.115 469.684H971.465V474.032H967.115V469.684Z" fill="white"/>
<path opacity="0.28" d="M990.978 475.399H995.329V479.746H990.978V475.399Z" fill="white"/>
<path opacity="0.4" d="M985.012 475.399H989.363V479.746H985.012V475.399Z" fill="white"/>
<path opacity="0.16" d="M979.047 475.399H983.397V479.746H979.047V475.399Z" fill="white"/>
<path opacity="0.17" d="M967.115 475.399H971.465V479.746H967.115V475.399Z" fill="white"/>
<path opacity="0.27" d="M990.978 481.113H995.329V485.461H990.978V481.113Z" fill="white"/>
<path opacity="0.45" d="M985.012 481.113H989.363V485.461H985.012V481.113Z" fill="white"/>
<path opacity="0.45" d="M979.047 481.113H983.397V485.461H979.047V481.113Z" fill="white"/>
<path opacity="0.48" d="M973.081 481.113H977.431V485.461H973.081V481.113Z" fill="white"/>
<path opacity="0.25" d="M967.115 481.113H971.465V485.461H967.115V481.113Z" fill="white"/>
<path opacity="0.28" d="M990.978 486.827H995.329V491.175H990.978V486.827Z" fill="white"/>
<path opacity="0.13" d="M985.012 486.827H989.363V491.175H985.012V486.827Z" fill="white"/>
<path opacity="0.07" d="M979.047 486.827H983.397V491.175H979.047V486.827Z" fill="white"/>
<path opacity="0.39" d="M973.081 486.827H977.431V491.175H973.081V486.827Z" fill="white"/>
<path opacity="0.47" d="M967.115 486.827H971.465V491.175H967.115V486.827Z" fill="white"/>
<path opacity="0.28" d="M990.978 492.541H995.329V496.889H990.978V492.541Z" fill="white"/>
<path opacity="0.2" d="M985.012 492.541H989.363V496.889H985.012V492.541Z" fill="white"/>
<path opacity="0.04" d="M979.047 492.541H983.397V496.889H979.047V492.541Z" fill="white"/>
<path opacity="0.43" d="M973.081 492.541H977.431V496.889H973.081V492.541Z" fill="white"/>
<path opacity="0.48" d="M967.115 492.541H971.465V496.889H967.115V492.541Z" fill="white"/>
<path opacity="0.28" d="M990.978 498.255H995.329V502.603H990.978V498.255Z" fill="white"/>
<path opacity="0.19" d="M985.012 498.255H989.363V502.603H985.012V498.255Z" fill="white"/>
<path opacity="0.01" d="M979.047 498.255H983.397V502.603H979.047V498.255Z" fill="white"/>
<path opacity="0.27" d="M973.081 498.255H977.431V502.603H973.081V498.255Z" fill="white"/>
<path opacity="0.24" d="M967.115 498.255H971.465V502.603H967.115V498.255Z" fill="white"/>
<path opacity="0.07" d="M990.978 504.094H995.329V508.442H990.978V504.094Z" fill="white"/>
<path opacity="0.25" d="M985.012 504.094H989.363V508.442H985.012V504.094Z" fill="white"/>
<path opacity="0.26" d="M979.047 504.094H983.397V508.442H979.047V504.094Z" fill="white"/>
<path opacity="0.39" d="M973.081 504.094H977.431V508.442H973.081V504.094Z" fill="white"/>
<path opacity="0.22" d="M967.115 504.094H971.465V508.442H967.115V504.094Z" fill="white"/>
<path opacity="0.15" d="M990.978 509.808H995.329V514.156H990.978V509.808Z" fill="white"/>
<path opacity="0.23" d="M985.012 509.808H989.363V514.156H985.012V509.808Z" fill="white"/>
<path opacity="0.05" d="M979.047 509.808H983.397V514.156H979.047V509.808Z" fill="white"/>
<path opacity="0.2" d="M973.081 509.808H977.431V514.156H973.081V509.808Z" fill="white"/>
<path opacity="0.31" d="M967.115 509.808H971.465V514.156H967.115V509.808Z" fill="white"/>
<path opacity="0.15" d="M990.978 515.522H995.329V519.87H990.978V515.522Z" fill="white"/>
<path opacity="0.33" d="M985.012 515.522H989.363V519.87H985.012V515.522Z" fill="white"/>
<path opacity="0.46" d="M979.047 515.522H983.397V519.87H979.047V515.522Z" fill="white"/>
<path opacity="0.25" d="M973.081 515.522H977.431V519.87H973.081V515.522Z" fill="white"/>
<path opacity="0.43" d="M967.115 515.522H971.465V519.87H967.115V515.522Z" fill="white"/>
<path opacity="0.4" d="M990.978 521.237H995.329V525.584H990.978V521.237Z" fill="white"/>
<path opacity="0.39" d="M985.012 521.237H989.363V525.584H985.012V521.237Z" fill="white"/>
<path opacity="0.01" d="M979.047 521.237H983.397V525.584H979.047V521.237Z" fill="white"/>
<path opacity="0.12" d="M973.081 521.237H977.431V525.584H973.081V521.237Z" fill="white"/>
<path opacity="0.07" d="M967.115 521.237H971.465V525.584H967.115V521.237Z" fill="white"/>
<path opacity="0.07" d="M990.978 526.951H995.329V531.299H990.978V526.951Z" fill="white"/>
<path opacity="0.02" d="M985.012 526.951H989.363V531.299H985.012V526.951Z" fill="white"/>
<path opacity="0.12" d="M979.047 526.951H983.397V531.299H979.047V526.951Z" fill="white"/>
<path opacity="0.23" d="M973.081 526.951H977.431V531.299H973.081V526.951Z" fill="white"/>
<path opacity="0.26" d="M967.115 526.951H971.465V531.299H967.115V526.951Z" fill="white"/>
<path opacity="0.27" d="M990.978 532.665H995.329V537.013H990.978V532.665Z" fill="white"/>
<path opacity="0.38" d="M985.012 532.665H989.363V537.013H985.012V532.665Z" fill="white"/>
<path opacity="0.05" d="M979.047 532.665H983.397V537.013H979.047V532.665Z" fill="white"/>
<path opacity="0.45" d="M973.081 532.665H977.431V537.013H973.081V532.665Z" fill="white"/>
<path opacity="0.15" d="M967.115 532.665H971.465V537.013H967.115V532.665Z" fill="white"/>
<path opacity="0.06" d="M990.978 538.379H995.329V542.727H990.978V538.379Z" fill="white"/>
<path opacity="0.47" d="M985.012 538.379H989.363V542.727H985.012V538.379Z" fill="white"/>
<path opacity="0.15" d="M979.047 538.379H983.397V542.727H979.047V538.379Z" fill="white"/>
<path opacity="0.44" d="M973.081 538.379H977.431V542.727H973.081V538.379Z" fill="white"/>
<path opacity="0.14" d="M967.115 538.379H971.465V542.727H967.115V538.379Z" fill="white"/>
<path opacity="0.15" d="M990.978 544.094H995.329V548.441H990.978V544.094Z" fill="white"/>
<path opacity="0.43" d="M985.012 544.094H989.363V548.441H985.012V544.094Z" fill="white"/>
<path opacity="0.07" d="M979.047 544.094H983.397V548.441H979.047V544.094Z" fill="white"/>
<path opacity="0.47" d="M973.081 544.094H977.431V548.441H973.081V544.094Z" fill="white"/>
<path opacity="0.11" d="M967.115 544.094H971.465V548.441H967.115V544.094Z" fill="white"/>
<path opacity="0.07" d="M990.978 549.808H995.329V554.155H990.978V549.808Z" fill="white"/>
<path opacity="0.34" d="M985.012 549.808H989.363V554.155H985.012V549.808Z" fill="white"/>
<path opacity="0.5" d="M979.047 549.808H983.397V554.155H979.047V549.808Z" fill="white"/>
<path opacity="0.36" d="M973.081 549.808H977.431V554.155H973.081V549.808Z" fill="white"/>
<path opacity="0.34" d="M967.115 549.808H971.465V554.155H967.115V549.808Z" fill="white"/>
<path opacity="0.47" d="M990.978 555.522H995.329V559.87H990.978V555.522Z" fill="white"/>
<path opacity="0.41" d="M985.012 555.522H989.363V559.87H985.012V555.522Z" fill="white"/>
<path opacity="0.3" d="M979.047 555.522H983.397V559.87H979.047V555.522Z" fill="white"/>
<path opacity="0.33" d="M973.081 555.522H977.431V559.87H973.081V555.522Z" fill="white"/>
<path opacity="0.12" d="M967.115 555.522H971.465V559.87H967.115V555.522Z" fill="white"/>
<path opacity="0.3" d="M940.392 469.684H944.742V474.032H940.392V469.684Z" fill="white"/>
<path opacity="0.72" d="M934.674 469.684H939.025V474.032H934.674V469.684Z" fill="white"/>
<path opacity="0.7" d="M928.833 469.684H933.183V474.032H928.833V469.684Z" fill="white"/>
<path opacity="0.52" d="M922.991 469.684H927.341V474.032H922.991V469.684Z" fill="white"/>
<path opacity="0.2" d="M917.149 469.684H921.5V474.032H917.149V469.684Z" fill="white"/>
<path opacity="0.32" d="M911.432 469.684H915.782V474.032H911.432V469.684Z" fill="white"/>
<path opacity="0.13" d="M905.59 469.684H909.941V474.032H905.59V469.684Z" fill="white"/>
<path opacity="0.38" d="M899.749 469.684H904.099V474.032H899.749V469.684Z" fill="white"/>
<path opacity="0.61" d="M894.031 469.684H898.381V474.032H894.031V469.684Z" fill="white"/>
<path d="M888.19 469.684H892.54V474.032H888.19V469.684Z" fill="white"/>
<path opacity="0.91" d="M882.348 469.684H886.698V474.032H882.348V469.684Z" fill="white"/>
<path opacity="0.66" d="M940.392 475.399H944.742V479.746H940.392V475.399Z" fill="white"/>
<path opacity="0.31" d="M934.674 475.399H939.025V479.746H934.674V475.399Z" fill="white"/>
<path opacity="0.95" d="M928.833 475.399H933.183V479.746H928.833V475.399Z" fill="white"/>
<path opacity="0.7" d="M922.991 475.399H927.341V479.746H922.991V475.399Z" fill="white"/>
<path opacity="0.12" d="M917.149 475.399H921.5V479.746H917.149V475.399Z" fill="white"/>
<path opacity="0.24" d="M911.432 475.399H915.782V479.746H911.432V475.399Z" fill="white"/>
<path opacity="0.66" d="M905.59 475.399H909.941V479.746H905.59V475.399Z" fill="white"/>
<path opacity="0.71" d="M899.749 475.399H904.099V479.746H899.749V475.399Z" fill="white"/>
<path opacity="0.42" d="M894.031 475.399H898.381V479.746H894.031V475.399Z" fill="white"/>
<path opacity="0.09" d="M888.19 475.399H892.54V479.746H888.19V475.399Z" fill="white"/>
<path opacity="0.32" d="M882.348 475.399H886.698V479.746H882.348V475.399Z" fill="white"/>
<path opacity="0.65" d="M940.392 481.113H944.742V485.461H940.392V481.113Z" fill="white"/>
<path d="M934.674 481.113H939.025V485.461H934.674V481.113Z" fill="white"/>
<path d="M928.833 481.113H933.183V485.461H928.833V481.113Z" fill="white"/>
<path opacity="0.71" d="M922.991 481.113H927.341V485.461H922.991V481.113Z" fill="white"/>
<path opacity="0.2" d="M917.149 481.113H921.5V485.461H917.149V481.113Z" fill="white"/>
<path opacity="0.19" d="M911.432 481.113H915.782V485.461H911.432V481.113Z" fill="white"/>
<path opacity="0.62" d="M905.59 481.113H909.941V485.461H905.59V481.113Z" fill="white"/>
<path opacity="0.93" d="M899.749 481.113H904.099V485.461H899.749V481.113Z" fill="white"/>
<path opacity="0.56" d="M894.031 481.113H898.381V485.461H894.031V481.113Z" fill="white"/>
<path opacity="0.57" d="M888.19 481.113H892.54V485.461H888.19V481.113Z" fill="white"/>
<path opacity="0.52" d="M882.348 481.113H886.698V485.461H882.348V481.113Z" fill="white"/>
<path opacity="0.74" d="M940.392 486.827H944.742V491.175H940.392V486.827Z" fill="white"/>
<path opacity="0.56" d="M934.674 486.827H939.025V491.175H934.674V486.827Z" fill="white"/>
<path opacity="0.78" d="M928.833 486.827H933.183V491.175H928.833V486.827Z" fill="white"/>
<path opacity="0.41" d="M922.991 486.827H927.341V491.175H922.991V486.827Z" fill="white"/>
<path opacity="0.14" d="M917.149 486.827H921.5V491.175H917.149V486.827Z" fill="white"/>
<path opacity="0.28" d="M911.432 486.827H915.782V491.175H911.432V486.827Z" fill="white"/>
<path opacity="0.36" d="M905.59 486.827H909.941V491.175H905.59V486.827Z" fill="white"/>
<path opacity="0.14" d="M899.749 486.827H904.099V491.175H899.749V486.827Z" fill="white"/>
<path opacity="0.5" d="M894.031 486.827H898.381V491.175H894.031V486.827Z" fill="white"/>
<path opacity="0.98" d="M888.19 486.827H892.54V491.175H888.19V486.827Z" fill="white"/>
<path opacity="0.59" d="M882.348 486.827H886.698V491.175H882.348V486.827Z" fill="white"/>
<path opacity="0.07" d="M940.392 492.541H944.742V496.889H940.392V492.541Z" fill="white"/>
<path opacity="0.1" d="M934.674 492.541H939.025V496.889H934.674V492.541Z" fill="white"/>
<path opacity="0.88" d="M928.833 492.541H933.183V496.889H928.833V492.541Z" fill="white"/>
<path opacity="0.68" d="M922.991 492.541H927.341V496.889H922.991V492.541Z" fill="white"/>
<path opacity="0.81" d="M917.149 492.541H921.5V496.889H917.149V492.541Z" fill="white"/>
<path opacity="0.62" d="M911.432 492.541H915.782V496.889H911.432V492.541Z" fill="white"/>
<path opacity="0.97" d="M905.59 492.541H909.941V496.889H905.59V492.541Z" fill="white"/>
<path opacity="0.81" d="M899.749 492.541H904.099V496.889H899.749V492.541Z" fill="white"/>
<path opacity="0.79" d="M894.031 492.541H898.381V496.889H894.031V492.541Z" fill="white"/>
<path opacity="0.03" d="M888.19 492.541H892.54V496.889H888.19V492.541Z" fill="white"/>
<path opacity="0.95" d="M882.348 492.541H886.698V496.889H882.348V492.541Z" fill="white"/>
<path opacity="0.62" d="M940.392 498.255H944.742V502.603H940.392V498.255Z" fill="white"/>
<path opacity="0.22" d="M934.674 498.255H939.025V502.603H934.674V498.255Z" fill="white"/>
<path opacity="0.42" d="M928.833 498.255H933.183V502.603H928.833V498.255Z" fill="white"/>
<path opacity="0.56" d="M922.991 498.255H927.341V502.603H922.991V498.255Z" fill="white"/>
<path opacity="0.03" d="M917.149 498.255H921.5V502.603H917.149V498.255Z" fill="white"/>
<path opacity="0.64" d="M911.432 498.255H915.782V502.603H911.432V498.255Z" fill="white"/>
<path opacity="0.82" d="M905.59 498.255H909.941V502.603H905.59V498.255Z" fill="white"/>
<path opacity="0.52" d="M899.749 498.255H904.099V502.603H899.749V498.255Z" fill="white"/>
<path opacity="0.46" d="M894.031 498.255H898.381V502.603H894.031V498.255Z" fill="white"/>
<path opacity="0.27" d="M888.19 498.255H892.54V502.603H888.19V498.255Z" fill="white"/>
<path opacity="0.46" d="M882.348 498.255H886.698V502.603H882.348V498.255Z" fill="white"/>
<path opacity="0.66" d="M940.392 504.094H944.742V508.442H940.392V504.094Z" fill="white"/>
<path opacity="0.7" d="M934.674 504.094H939.025V508.442H934.674V504.094Z" fill="white"/>
<path opacity="0.94" d="M928.833 504.094H933.183V508.442H928.833V504.094Z" fill="white"/>
<path opacity="0.5" d="M922.991 504.094H927.341V508.442H922.991V504.094Z" fill="white"/>
<path opacity="0.12" d="M917.149 504.094H921.5V508.442H917.149V504.094Z" fill="white"/>
<path opacity="0.36" d="M911.432 504.094H915.782V508.442H911.432V504.094Z" fill="white"/>
<path opacity="0.51" d="M905.59 504.094H909.941V508.442H905.59V504.094Z" fill="white"/>
<path opacity="0.37" d="M899.749 504.094H904.099V508.442H899.749V504.094Z" fill="white"/>
<path opacity="0.66" d="M894.031 504.094H898.381V508.442H894.031V504.094Z" fill="white"/>
<path opacity="0.42" d="M888.19 504.094H892.54V508.442H888.19V504.094Z" fill="white"/>
<path opacity="0.5" d="M882.348 504.094H886.698V508.442H882.348V504.094Z" fill="white"/>
<path opacity="0.52" d="M940.392 509.808H944.742V514.156H940.392V509.808Z" fill="white"/>
<path opacity="0.61" d="M934.674 509.808H939.025V514.156H934.674V509.808Z" fill="white"/>
<path opacity="0.84" d="M928.833 509.808H933.183V514.156H928.833V509.808Z" fill="white"/>
<path opacity="0.89" d="M922.991 509.808H927.341V514.156H922.991V509.808Z" fill="white"/>
<path opacity="0.33" d="M917.149 509.808H921.5V514.156H917.149V509.808Z" fill="white"/>
<path opacity="0.25" d="M911.432 509.808H915.782V514.156H911.432V509.808Z" fill="white"/>
<path opacity="0.95" d="M905.59 509.808H909.941V514.156H905.59V509.808Z" fill="white"/>
<path opacity="0.09" d="M899.749 509.808H904.099V514.156H899.749V509.808Z" fill="white"/>
<path opacity="0.44" d="M894.031 509.808H898.381V514.156H894.031V509.808Z" fill="white"/>
<path opacity="0.51" d="M888.19 509.808H892.54V514.156H888.19V509.808Z" fill="white"/>
<path opacity="0.97" d="M882.348 509.808H886.698V514.156H882.348V509.808Z" fill="white"/>
<path opacity="0.26" d="M940.392 515.522H944.742V519.87H940.392V515.522Z" fill="white"/>
<path opacity="0.92" d="M934.674 515.522H939.025V519.87H934.674V515.522Z" fill="white"/>
<path opacity="0.33" d="M928.833 515.522H933.183V519.87H928.833V515.522Z" fill="white"/>
<path opacity="0.23" d="M922.991 515.522H927.341V519.87H922.991V515.522Z" fill="white"/>
<path opacity="0.42" d="M917.149 515.522H921.5V519.87H917.149V515.522Z" fill="white"/>
<path opacity="0.57" d="M911.432 515.522H915.782V519.87H911.432V515.522Z" fill="white"/>
<path opacity="0.73" d="M905.59 515.522H909.941V519.87H905.59V515.522Z" fill="white"/>
<path opacity="0.87" d="M899.749 515.522H904.099V519.87H899.749V515.522Z" fill="white"/>
<path opacity="0.22" d="M894.031 515.522H898.381V519.87H894.031V515.522Z" fill="white"/>
<path opacity="0.89" d="M888.19 515.522H892.54V519.87H888.19V515.522Z" fill="white"/>
<path opacity="0.73" d="M882.348 515.522H886.698V519.87H882.348V515.522Z" fill="white"/>
<path opacity="0.35" d="M940.392 521.237H944.742V525.584H940.392V521.237Z" fill="white"/>
<path opacity="0.81" d="M934.674 521.237H939.025V525.584H934.674V521.237Z" fill="white"/>
<path opacity="0.56" d="M928.833 521.237H933.183V525.584H928.833V521.237Z" fill="white"/>
<path opacity="0.81" d="M922.991 521.237H927.341V525.584H922.991V521.237Z" fill="white"/>
<path opacity="0.87" d="M917.149 521.237H921.5V525.584H917.149V521.237Z" fill="white"/>
<path opacity="0.39" d="M911.432 521.237H915.782V525.584H911.432V521.237Z" fill="white"/>
<path opacity="0.31" d="M905.59 521.237H909.941V525.584H905.59V521.237Z" fill="white"/>
<path opacity="0.98" d="M899.749 521.237H904.099V525.584H899.749V521.237Z" fill="white"/>
<path opacity="0.17" d="M894.031 521.237H898.381V525.584H894.031V521.237Z" fill="white"/>
<path opacity="0.06" d="M888.19 521.237H892.54V525.584H888.19V521.237Z" fill="white"/>
<path opacity="0.57" d="M882.348 521.237H886.698V525.584H882.348V521.237Z" fill="white"/>
<path opacity="0.67" d="M940.392 526.951H944.742V531.299H940.392V526.951Z" fill="white"/>
<path opacity="0.83" d="M934.674 526.951H939.025V531.299H934.674V526.951Z" fill="white"/>
<path opacity="0.99" d="M928.833 526.951H933.183V531.299H928.833V526.951Z" fill="white"/>
<path opacity="0.62" d="M922.991 526.951H927.341V531.299H922.991V526.951Z" fill="white"/>
<path opacity="0.87" d="M917.149 526.951H921.5V531.299H917.149V526.951Z" fill="white"/>
<path opacity="0.14" d="M911.432 526.951H915.782V531.299H911.432V526.951Z" fill="white"/>
<path opacity="0.12" d="M905.59 526.951H909.941V531.299H905.59V526.951Z" fill="white"/>
<path opacity="0.11" d="M899.749 526.951H904.099V531.299H899.749V526.951Z" fill="white"/>
<path opacity="0.39" d="M894.031 526.951H898.381V531.299H894.031V526.951Z" fill="white"/>
<path opacity="0.58" d="M888.19 526.951H892.54V531.299H888.19V526.951Z" fill="white"/>
<path opacity="0.54" d="M882.348 526.951H886.698V531.299H882.348V526.951Z" fill="white"/>
<path opacity="0.99" d="M940.392 532.665H944.742V537.013H940.392V532.665Z" fill="white"/>
<path opacity="0.28" d="M934.674 532.665H939.025V537.013H934.674V532.665Z" fill="white"/>
<path opacity="0.78" d="M928.833 532.665H933.183V537.013H928.833V532.665Z" fill="white"/>
<path opacity="0.65" d="M922.991 532.665H927.341V537.013H922.991V532.665Z" fill="white"/>
<path opacity="0.32" d="M917.149 532.665H921.5V537.013H917.149V532.665Z" fill="white"/>
<path opacity="0.55" d="M911.432 532.665H915.782V537.013H911.432V532.665Z" fill="white"/>
<path opacity="0.4" d="M905.59 532.665H909.941V537.013H905.59V532.665Z" fill="white"/>
<path opacity="0.22" d="M899.749 532.665H904.099V537.013H899.749V532.665Z" fill="white"/>
<path opacity="0.87" d="M894.031 532.665H898.381V537.013H894.031V532.665Z" fill="white"/>
<path opacity="0.02" d="M888.19 532.665H892.54V537.013H888.19V532.665Z" fill="white"/>
<path opacity="0.39" d="M882.348 532.665H886.698V537.013H882.348V532.665Z" fill="white"/>
<path opacity="0.89" d="M940.392 538.379H944.742V542.727H940.392V538.379Z" fill="white"/>
<path opacity="0.97" d="M934.674 538.379H939.025V542.727H934.674V538.379Z" fill="white"/>
<path opacity="0.79" d="M928.833 538.379H933.183V542.727H928.833V538.379Z" fill="white"/>
<path opacity="0.41" d="M922.991 538.379H927.341V542.727H922.991V538.379Z" fill="white"/>
<path opacity="0.13" d="M917.149 538.379H921.5V542.727H917.149V538.379Z" fill="white"/>
<path opacity="0.9" d="M911.432 538.379H915.782V542.727H911.432V538.379Z" fill="white"/>
<path opacity="0.98" d="M905.59 538.379H909.941V542.727H905.59V538.379Z" fill="white"/>
<path opacity="0.67" d="M899.749 538.379H904.099V542.727H899.749V538.379Z" fill="white"/>
<path opacity="0.65" d="M894.031 538.379H898.381V542.727H894.031V538.379Z" fill="white"/>
<path opacity="0.89" d="M888.19 538.379H892.54V542.727H888.19V538.379Z" fill="white"/>
<path opacity="0.98" d="M882.348 538.379H886.698V542.727H882.348V538.379Z" fill="white"/>
<path opacity="0.29" d="M940.392 544.094H944.742V548.441H940.392V544.094Z" fill="white"/>
<path opacity="0.74" d="M934.674 544.094H939.025V548.441H934.674V544.094Z" fill="white"/>
<path opacity="0.64" d="M928.833 544.094H933.183V548.441H928.833V544.094Z" fill="white"/>
<path opacity="0.65" d="M922.991 544.094H927.341V548.441H922.991V544.094Z" fill="white"/>
<path opacity="0.07" d="M917.149 544.094H921.5V548.441H917.149V544.094Z" fill="white"/>
<path opacity="0.16" d="M911.432 544.094H915.782V548.441H911.432V544.094Z" fill="white"/>
<path opacity="0.84" d="M905.59 544.094H909.941V548.441H905.59V544.094Z" fill="white"/>
<path opacity="0.88" d="M899.749 544.094H904.099V548.441H899.749V544.094Z" fill="white"/>
<path opacity="0.57" d="M894.031 544.094H898.381V548.441H894.031V544.094Z" fill="white"/>
<path opacity="0.31" d="M888.19 544.094H892.54V548.441H888.19V544.094Z" fill="white"/>
<path opacity="0.03" d="M882.348 544.094H886.698V548.441H882.348V544.094Z" fill="white"/>
<path opacity="0.3" d="M940.392 549.808H944.742V554.155H940.392V549.808Z" fill="white"/>
<path opacity="0.59" d="M934.674 549.808H939.025V554.155H934.674V549.808Z" fill="white"/>
<path opacity="0.93" d="M928.833 549.808H933.183V554.155H928.833V549.808Z" fill="white"/>
<path opacity="0.06" d="M922.991 549.808H927.341V554.155H922.991V549.808Z" fill="white"/>
<path opacity="0.74" d="M917.149 549.808H921.5V554.155H917.149V549.808Z" fill="white"/>
<path opacity="0.22" d="M911.432 549.808H915.782V554.155H911.432V549.808Z" fill="white"/>
<path opacity="0.51" d="M905.59 549.808H909.941V554.155H905.59V549.808Z" fill="white"/>
<path opacity="0.7" d="M899.749 549.808H904.099V554.155H899.749V549.808Z" fill="white"/>
<path opacity="0.47" d="M894.031 549.808H898.381V554.155H894.031V549.808Z" fill="white"/>
<path opacity="0.08" d="M888.19 549.808H892.54V554.155H888.19V549.808Z" fill="white"/>
<path opacity="0.93" d="M882.348 549.808H886.698V554.155H882.348V549.808Z" fill="white"/>
<path opacity="0.81" d="M940.392 555.522H944.742V559.87H940.392V555.522Z" fill="white"/>
<path opacity="0.9" d="M934.674 555.522H939.025V559.87H934.674V555.522Z" fill="white"/>
<path opacity="0.55" d="M928.833 555.522H933.183V559.87H928.833V555.522Z" fill="white"/>
<path opacity="0.14" d="M922.991 555.522H927.341V559.87H922.991V555.522Z" fill="white"/>
<path opacity="0.66" d="M917.149 555.522H921.5V559.87H917.149V555.522Z" fill="white"/>
<path opacity="0.92" d="M911.432 555.522H915.782V559.87H911.432V555.522Z" fill="white"/>
<path opacity="0.4" d="M905.59 555.522H909.941V559.87H905.59V555.522Z" fill="white"/>
<path opacity="0.6" d="M899.749 555.522H904.099V559.87H899.749V555.522Z" fill="white"/>
<path opacity="0.99" d="M894.031 555.522H898.381V559.87H894.031V555.522Z" fill="white"/>
<path opacity="0.68" d="M888.19 555.522H892.54V559.87H888.19V555.522Z" fill="white"/>
<path opacity="0.01" d="M882.348 555.522H886.698V559.87H882.348V555.522Z" fill="white"/>
<path d="M1013.85 441.734H1054.86V570.18H1013.85V441.734Z" fill="#333333"/>
<path d="M1036.22 435.274H1054.86V442.479H1036.22V435.274Z" fill="#333333"/>
<path d="M1044.05 431.051H1054.86V435.275H1044.05V431.051Z" fill="#333333"/>
<path opacity="0.25" d="M1031.12 450.802H1037.84V457.51H1031.12V450.802Z" fill="white"/>
<path opacity="0.15" d="M1031.12 467.324H1037.84V474.032H1031.12V467.324Z" fill="white"/>
<path opacity="0.19" d="M1031.12 500.243H1037.84V506.951H1031.12V500.243Z" fill="white"/>
<path opacity="0.17" d="M1031.12 516.64H1037.84V523.348H1031.12V516.64Z" fill="white"/>
<path opacity="0.22" d="M1031.12 533.037H1037.84V539.745H1031.12V533.037Z" fill="white"/>
<path d="M1031.12 549.559H1037.84V556.267H1031.12V549.559Z" fill="white"/>
<path d="M1044.3 513.286H1082.71V524.591H1044.3V513.286Z" fill="#333333"/>
<path d="M1025.16 513.286H1044.3V524.591H1025.16V513.286Z" fill="#4D4D4D"/>
<path d="M1082.71 513.286L1070.77 507.572L1044.3 513.286H1082.71Z" fill="#333333"/>
<path d="M1070.77 507.572L1044.3 513.286H1025.16L1070.77 507.572Z" fill="#4D4D4D"/>
<path d="M1035.35 521.236H1091.53V572.664H1035.35V521.236Z" fill="#333333"/>
<path d="M1016.71 521.236H1035.35V572.664H1016.71V521.236Z" fill="#4D4D4D"/>
<path opacity="0.81" d="M1021.06 524.839H1031.12V528.565H1021.06V524.839Z" fill="white"/>
<path opacity="0.76" d="M1021.06 531.671H1031.12V535.398H1021.06V531.671Z" fill="white"/>
<path opacity="0.32" d="M1021.06 538.503H1031.12V542.23H1021.06V538.503Z" fill="white"/>
<path opacity="0.49" d="M1021.06 545.46H1031.12V549.186H1021.06V545.46Z" fill="white"/>
<path opacity="0.1" d="M1072.51 524.839H1082.58V528.565H1072.51V524.839Z" fill="white"/>
<path opacity="0.04" d="M1058.47 524.839H1068.54V528.565H1058.47V524.839Z" fill="white"/>
<path opacity="0.07" d="M1044.3 524.839H1054.37V528.565H1044.3V524.839Z" fill="white"/>
<path opacity="0.06" d="M1072.51 531.671H1082.58V535.398H1072.51V531.671Z" fill="white"/>
<path opacity="0.44" d="M1058.47 531.671H1068.54V535.398H1058.47V531.671Z" fill="white"/>
<path opacity="0.24" d="M1044.3 531.671H1054.37V535.398H1044.3V531.671Z" fill="white"/>
<path opacity="0.55" d="M1072.51 538.503H1082.58V542.23H1072.51V538.503Z" fill="white"/>
<path opacity="0.02" d="M1058.47 538.503H1068.54V542.23H1058.47V538.503Z" fill="white"/>
<path opacity="0.14" d="M1044.3 538.503H1054.37V542.23H1044.3V538.503Z" fill="white"/>
<path opacity="0.43" d="M1072.51 545.46H1082.58V549.186H1072.51V545.46Z" fill="white"/>
<path opacity="0.41" d="M1058.47 545.46H1068.54V549.186H1058.47V545.46Z" fill="white"/>
<path opacity="0.46" d="M1044.3 545.46H1054.37V549.186H1044.3V545.46Z" fill="white"/>
<path opacity="0.45" d="M1072.51 552.292H1082.58V556.019H1072.51V552.292Z" fill="white"/>
<path opacity="0.33" d="M1058.47 552.292H1068.54V556.019H1058.47V552.292Z" fill="white"/>
<path opacity="0.05" d="M1044.3 552.292H1054.37V556.019H1044.3V552.292Z" fill="white"/>
<path d="M1308.67 469.808H1343.47V577.012H1308.67V469.808Z" fill="#333333"/>
<path d="M1269.02 469.808H1308.54V577.012H1269.02V469.808Z" fill="#4D4D4D"/>
<path d="M1308.67 478.877H1343.47V480.74H1308.67V478.877Z" fill="#4D4D4D"/>
<path d="M1269.02 478.877H1308.54V480.74H1269.02V478.877Z" fill="#333333"/>
<path opacity="0.47" d="M1336.88 482.852H1340.61V486.578H1336.88V482.852Z" fill="white"/>
<path opacity="0.26" d="M1331.78 482.852H1335.51V486.578H1331.78V482.852Z" fill="white"/>
<path opacity="0.32" d="M1326.69 482.852H1330.42V486.578H1326.69V482.852Z" fill="white"/>
<path opacity="0.25" d="M1321.59 482.852H1325.32V486.578H1321.59V482.852Z" fill="white"/>
<path opacity="0.12" d="M1311.4 482.852H1315.13V486.578H1311.4V482.852Z" fill="white"/>
<path opacity="0.32" d="M1336.88 487.945H1340.61V491.671H1336.88V487.945Z" fill="white"/>
<path opacity="0.22" d="M1326.69 487.945H1330.42V491.671H1326.69V487.945Z" fill="white"/>
<path opacity="0.47" d="M1321.59 487.945H1325.32V491.671H1321.59V487.945Z" fill="white"/>
<path opacity="0.22" d="M1316.5 487.945H1320.23V491.671H1316.5V487.945Z" fill="white"/>
<path opacity="0.32" d="M1311.4 487.945H1315.13V491.671H1311.4V487.945Z" fill="white"/>
<path opacity="0.37" d="M1336.88 493.038H1340.61V496.765H1336.88V493.038Z" fill="white"/>
<path opacity="0.34" d="M1331.78 493.038H1335.51V496.765H1331.78V493.038Z" fill="white"/>
<path opacity="0.18" d="M1326.69 493.038H1330.42V496.765H1326.69V493.038Z" fill="white"/>
<path opacity="0.28" d="M1321.59 493.038H1325.32V496.765H1321.59V493.038Z" fill="white"/>
<path opacity="0.2" d="M1311.4 493.038H1315.13V496.765H1311.4V493.038Z" fill="white"/>
<path opacity="0.18" d="M1336.88 498.131H1340.61V501.858H1336.88V498.131Z" fill="white"/>
<path opacity="0.33" d="M1326.69 498.131H1330.42V501.858H1326.69V498.131Z" fill="white"/>
<path opacity="0.05" d="M1321.59 498.131H1325.32V501.858H1321.59V498.131Z" fill="white"/>
<path opacity="0.08" d="M1316.5 498.131H1320.23V501.858H1316.5V498.131Z" fill="white"/>
<path opacity="0.08" d="M1321.59 503.224H1325.32V506.951H1321.59V503.224Z" fill="white"/>
<path opacity="0.02" d="M1316.5 503.224H1320.23V506.951H1316.5V503.224Z" fill="white"/>
<path opacity="0.03" d="M1336.88 508.317H1340.61V512.044H1336.88V508.317Z" fill="white"/>
<path opacity="0.46" d="M1331.78 508.317H1335.51V512.044H1331.78V508.317Z" fill="white"/>
<path opacity="0.05" d="M1326.69 508.317H1330.42V512.044H1326.69V508.317Z" fill="white"/>
<path opacity="0.2" d="M1321.59 508.317H1325.32V512.044H1321.59V508.317Z" fill="white"/>
<path opacity="0.23" d="M1316.5 508.317H1320.23V512.044H1316.5V508.317Z" fill="white"/>
<path opacity="0.17" d="M1336.88 513.41H1340.61V517.137H1336.88V513.41Z" fill="white"/>
<path opacity="0.08" d="M1331.78 513.41H1335.51V517.137H1331.78V513.41Z" fill="white"/>
<path opacity="0.14" d="M1326.69 513.41H1330.42V517.137H1326.69V513.41Z" fill="white"/>
<path opacity="0.24" d="M1316.5 513.41H1320.23V517.137H1316.5V513.41Z" fill="white"/>
<path opacity="0.28" d="M1336.88 518.503H1340.61V522.23H1336.88V518.503Z" fill="white"/>
<path opacity="0.3" d="M1331.78 518.503H1335.51V522.23H1331.78V518.503Z" fill="white"/>
<path opacity="0.23" d="M1326.69 518.503H1330.42V522.23H1326.69V518.503Z" fill="white"/>
<path opacity="0.02" d="M1321.59 518.503H1325.32V522.23H1321.59V518.503Z" fill="white"/>
<path opacity="0.04" d="M1316.5 518.503H1320.23V522.23H1316.5V518.503Z" fill="white"/>
<path opacity="0.3" d="M1311.4 518.503H1315.13V522.23H1311.4V518.503Z" fill="white"/>
<path opacity="0.08" d="M1331.78 523.472H1335.51V527.199H1331.78V523.472Z" fill="white"/>
<path opacity="0.4" d="M1311.4 523.472H1315.13V527.199H1311.4V523.472Z" fill="white"/>
<path opacity="0.31" d="M1336.88 528.565H1340.61V532.292H1336.88V528.565Z" fill="white"/>
<path opacity="0.31" d="M1331.78 528.565H1335.51V532.292H1331.78V528.565Z" fill="white"/>
<path opacity="0.12" d="M1326.69 528.565H1330.42V532.292H1326.69V528.565Z" fill="white"/>
<path opacity="0.19" d="M1316.5 528.565H1320.23V532.292H1316.5V528.565Z" fill="white"/>
<path opacity="0.43" d="M1311.4 528.565H1315.13V532.292H1311.4V528.565Z" fill="white"/>
<path opacity="0.12" d="M1336.88 533.659H1340.61V537.385H1336.88V533.659Z" fill="white"/>
<path opacity="0.42" d="M1321.59 533.659H1325.32V537.385H1321.59V533.659Z" fill="white"/>
<path opacity="0.31" d="M1311.4 533.659H1315.13V537.385H1311.4V533.659Z" fill="white"/>
<path opacity="0.23" d="M1336.88 538.752H1340.61V542.478H1336.88V538.752Z" fill="white"/>
<path opacity="0.31" d="M1321.59 538.752H1325.32V542.478H1321.59V538.752Z" fill="white"/>
<path opacity="0.33" d="M1311.4 538.752H1315.13V542.478H1311.4V538.752Z" fill="white"/>
<path opacity="0.49" d="M1336.88 543.845H1340.61V547.572H1336.88V543.845Z" fill="white"/>
<path opacity="0.06" d="M1331.78 543.845H1335.51V547.572H1331.78V543.845Z" fill="white"/>
<path opacity="0.17" d="M1321.59 543.845H1325.32V547.572H1321.59V543.845Z" fill="white"/>
<path opacity="0.01" d="M1316.5 543.845H1320.23V547.572H1316.5V543.845Z" fill="white"/>
<path opacity="0.48" d="M1311.4 543.845H1315.13V547.572H1311.4V543.845Z" fill="white"/>
<path opacity="0.05" d="M1336.88 548.938H1340.61V552.665H1336.88V548.938Z" fill="white"/>
<path opacity="0.23" d="M1331.78 548.938H1335.51V552.665H1331.78V548.938Z" fill="white"/>
<path opacity="0.28" d="M1326.69 548.938H1330.42V552.665H1326.69V548.938Z" fill="white"/>
<path opacity="0.02" d="M1321.59 548.938H1325.32V552.665H1321.59V548.938Z" fill="white"/>
<path opacity="0.17" d="M1316.5 548.938H1320.23V552.665H1316.5V548.938Z" fill="white"/>
<path opacity="0.42" d="M1311.4 548.938H1315.13V552.665H1311.4V548.938Z" fill="white"/>
<path opacity="0.13" d="M1336.88 554.031H1340.61V557.758H1336.88V554.031Z" fill="white"/>
<path opacity="0.11" d="M1326.69 554.031H1330.42V557.758H1326.69V554.031Z" fill="white"/>
<path opacity="0.02" d="M1321.59 554.031H1325.32V557.758H1321.59V554.031Z" fill="white"/>
<path opacity="0.3" d="M1311.4 554.031H1315.13V557.758H1311.4V554.031Z" fill="white"/>
<path opacity="0.08" d="M1316.5 482.852H1320.23V486.578H1316.5V482.852Z" fill="white"/>
<path opacity="0.1" d="M1331.78 487.945H1335.51V491.671H1331.78V487.945Z" fill="white"/>
<path opacity="0.08" d="M1316.5 493.038H1320.23V496.765H1316.5V493.038Z" fill="white"/>
<path opacity="0.1" d="M1331.78 498.131H1335.51V501.858H1331.78V498.131Z" fill="white"/>
<path opacity="0.01" d="M1311.4 498.131H1315.13V501.858H1311.4V498.131Z" fill="white"/>
<path opacity="0.17" d="M1336.88 503.224H1340.61V506.951H1336.88V503.224Z" fill="white"/>
<path opacity="0.01" d="M1331.78 503.224H1335.51V506.951H1331.78V503.224Z" fill="white"/>
<path opacity="0.15" d="M1326.69 503.224H1330.42V506.951H1326.69V503.224Z" fill="white"/>
<path opacity="0.12" d="M1311.4 503.224H1315.13V506.951H1311.4V503.224Z" fill="white"/>
<path opacity="0.13" d="M1321.59 513.41H1325.32V517.137H1321.59V513.41Z" fill="white"/>
<path opacity="0.07" d="M1311.4 513.41H1315.13V517.137H1311.4V513.41Z" fill="white"/>
<path opacity="0.13" d="M1336.88 523.472H1340.61V527.199H1336.88V523.472Z" fill="white"/>
<path opacity="0.02" d="M1326.69 523.472H1330.42V527.199H1326.69V523.472Z" fill="white"/>
<path opacity="0.02" d="M1321.59 523.472H1325.32V527.199H1321.59V523.472Z" fill="white"/>
<path opacity="0.14" d="M1316.5 523.472H1320.23V527.199H1316.5V523.472Z" fill="white"/>
<path opacity="0.09" d="M1326.69 533.659H1330.42V537.385H1326.69V533.659Z" fill="white"/>
<path opacity="0.02" d="M1316.5 533.659H1320.23V537.385H1316.5V533.659Z" fill="white"/>
<path opacity="0.19" d="M1326.69 538.752H1330.42V542.478H1326.69V538.752Z" fill="white"/>
<path opacity="0.06" d="M1316.5 538.752H1320.23V542.478H1316.5V538.752Z" fill="white"/>
<path opacity="0.16" d="M1326.69 543.845H1330.42V547.572H1326.69V543.845Z" fill="white"/>
<path opacity="0.19" d="M1331.78 554.031H1335.51V557.758H1331.78V554.031Z" fill="white"/>
<path opacity="0.04" d="M1316.5 554.031H1320.23V557.758H1316.5V554.031Z" fill="white"/>
<g opacity="0.7">
<path opacity="0.7" d="M1301.08 480.74H1304.94V572.292H1301.08V480.74Z" fill="#E6E6E6"/>
<path opacity="0.7" d="M1294.5 480.74H1298.35V572.292H1294.5V480.74Z" fill="#E6E6E6"/>
<path opacity="0.7" d="M1287.79 480.74H1291.64V572.292H1287.79V480.74Z" fill="#E6E6E6"/>
<path opacity="0.7" d="M1281.07 480.74H1284.93V572.292H1281.07V480.74Z" fill="#E6E6E6"/>
<path opacity="0.7" d="M1274.36 480.74H1278.22V572.292H1274.36V480.74Z" fill="#E6E6E6"/>
</g>
<path d="M1386.22 417.262L1393.93 396.89L1373.3 417.262H1386.22Z" fill="#4D4D4D"/>
<path d="M1404.25 417.262L1393.93 396.89L1386.22 417.262H1404.25Z" fill="#333333"/>
<path d="M1386.22 417.262H1404.25V439.001H1386.22V417.262Z" fill="#333333"/>
<path d="M1373.3 417.262H1386.22V439.001H1373.3V417.262Z" fill="#4D4D4D"/>
<path d="M1367.95 515.025H1422.52V577.509H1367.95V515.025Z" fill="#333333"/>
<path d="M1375.41 470.305H1414.94V515.025H1375.41V470.305Z" fill="#333333"/>
<path d="M1381.13 425.585H1409.22V470.305H1381.13V425.585Z" fill="#333333"/>
<path d="M1361.86 425.585H1381.25V470.305H1361.86V425.585Z" fill="#4D4D4D"/>
<path d="M1334.4 515.025H1367.95V577.509H1334.4V515.025Z" fill="#4D4D4D"/>
<path d="M1349.93 470.305H1375.41V515.025H1349.93V470.305Z" fill="#4D4D4D"/>
<path opacity="0.53" d="M1368.58 428.815H1374.42V434.653H1368.58V428.815Z" fill="white"/>
<path opacity="0.34" d="M1368.58 436.144H1374.42V441.982H1368.58V436.144Z" fill="white"/>
<path opacity="0.9" d="M1368.58 443.349H1374.42V449.187H1368.58V443.349Z" fill="white"/>
<path opacity="0.14" d="M1368.58 450.554H1374.42V456.392H1368.58V450.554Z" fill="white"/>
<path d="M1368.58 457.883H1374.42V463.721H1368.58V457.883Z" fill="white"/>
<path opacity="0.29" d="M1364.22 474.156H1370.07V479.994H1364.22V474.156Z" fill="white"/>
<path opacity="0.81" d="M1355.28 474.156H1361.12V479.994H1355.28V474.156Z" fill="white"/>
<path opacity="0.18" d="M1364.22 481.485H1370.07V487.324H1364.22V481.485Z" fill="white"/>
<path opacity="0.41" d="M1355.28 481.485H1361.12V487.324H1355.28V481.485Z" fill="white"/>
<path opacity="0.03" d="M1355.28 488.938H1361.12V494.777H1355.28V488.938Z" fill="white"/>
<path opacity="0.85" d="M1364.22 496.392H1370.07V502.23H1364.22V496.392Z" fill="white"/>
<path opacity="0.06" d="M1355.28 496.392H1361.12V502.23H1355.28V496.392Z" fill="white"/>
<path opacity="0.94" d="M1364.22 503.721H1370.07V509.559H1364.22V503.721Z" fill="white"/>
<path opacity="0.25" d="M1355.28 503.721H1361.12V509.559H1355.28V503.721Z" fill="white"/>
<path opacity="0.6" d="M1356.02 518.876H1361.86V524.714H1356.02V518.876Z" fill="white"/>
<path opacity="0.83" d="M1348.19 518.876H1354.03V524.714H1348.19V518.876Z" fill="white"/>
<path opacity="0.74" d="M1340.36 518.876H1346.2V524.714H1340.36V518.876Z" fill="white"/>
<path opacity="0.35" d="M1348.19 525.957H1354.03V531.795H1348.19V525.957Z" fill="white"/>
<path opacity="0.54" d="M1340.36 525.957H1346.2V531.795H1340.36V525.957Z" fill="white"/>
<path opacity="0.2" d="M1356.02 533.037H1361.86V538.876H1356.02V533.037Z" fill="white"/>
<path opacity="0.04" d="M1348.19 533.037H1354.03V538.876H1348.19V533.037Z" fill="white"/>
<path opacity="0.86" d="M1340.36 533.037H1346.2V538.876H1340.36V533.037Z" fill="white"/>
<path opacity="0.06" d="M1356.02 540.118H1361.86V545.957H1356.02V540.118Z" fill="white"/>
<path opacity="0.01" d="M1348.19 540.118H1354.03V545.957H1348.19V540.118Z" fill="white"/>
<path opacity="0.39" d="M1340.36 540.118H1346.2V545.957H1340.36V540.118Z" fill="white"/>
<path opacity="0.1" d="M1356.02 547.323H1361.86V553.161H1356.02V547.323Z" fill="white"/>
<path d="M1348.19 547.323H1354.03V553.161H1348.19V547.323Z" fill="white"/>
<path opacity="0.62" d="M1340.36 547.323H1346.2V553.161H1340.36V547.323Z" fill="white"/>
<path opacity="0.48" d="M1356.02 554.652H1361.86V560.491H1356.02V554.652Z" fill="white"/>
<path opacity="0.27" d="M1348.19 554.652H1354.03V560.491H1348.19V554.652Z" fill="white"/>
<path opacity="0.42" d="M1340.36 554.652H1346.2V560.491H1340.36V554.652Z" fill="white"/>
<path opacity="0.27" d="M1410.83 518.876H1416.68V524.714H1410.83V518.876Z" fill="white"/>
<path opacity="0.11" d="M1404.25 474.156H1410.09V479.994H1404.25V474.156Z" fill="white"/>
<path opacity="0.41" d="M1399.65 428.815H1405.49V434.653H1399.65V428.815Z" fill="white"/>
<path opacity="0.38" d="M1392.31 428.815H1398.16V434.653H1392.31V428.815Z" fill="white"/>
<path opacity="0.02" d="M1384.86 428.815H1390.7V434.653H1384.86V428.815Z" fill="white"/>
<path opacity="0.46" d="M1399.65 436.144H1405.49V441.982H1399.65V436.144Z" fill="white"/>
<path opacity="0.31" d="M1392.31 436.144H1398.16V441.982H1392.31V436.144Z" fill="white"/>
<path opacity="0.61" d="M1384.86 436.144H1390.7V441.982H1384.86V436.144Z" fill="white"/>
<path opacity="0.03" d="M1399.65 443.349H1405.49V449.187H1399.65V443.349Z" fill="white"/>
<path opacity="0.03" d="M1392.31 443.349H1398.16V449.187H1392.31V443.349Z" fill="white"/>
<path opacity="0.46" d="M1384.86 443.349H1390.7V449.187H1384.86V443.349Z" fill="white"/>
<path opacity="0.32" d="M1399.65 450.554H1405.49V456.392H1399.65V450.554Z" fill="white"/>
<path opacity="0.14" d="M1392.31 450.554H1398.16V456.392H1392.31V450.554Z" fill="white"/>
<path opacity="0.3" d="M1384.86 450.554H1390.7V456.392H1384.86V450.554Z" fill="white"/>
<path opacity="0.04" d="M1399.65 457.883H1405.49V463.721H1399.65V457.883Z" fill="white"/>
<path opacity="0.64" d="M1392.31 457.883H1398.16V463.721H1392.31V457.883Z" fill="white"/>
<path opacity="0.05" d="M1384.86 457.883H1390.7V463.721H1384.86V457.883Z" fill="white"/>
<path opacity="0.15" d="M1396.79 474.156H1402.63V479.994H1396.79V474.156Z" fill="white"/>
<path opacity="0.15" d="M1389.33 474.156H1395.17V479.994H1389.33V474.156Z" fill="white"/>
<path opacity="0.52" d="M1382 474.156H1387.84V479.994H1382V474.156Z" fill="white"/>
<path opacity="0.58" d="M1404.25 481.485H1410.09V487.324H1404.25V481.485Z" fill="white"/>
<path opacity="0.62" d="M1396.79 481.485H1402.63V487.324H1396.79V481.485Z" fill="white"/>
<path opacity="0.04" d="M1389.33 481.485H1395.17V487.324H1389.33V481.485Z" fill="white"/>
<path opacity="0.06" d="M1382 481.485H1387.84V487.324H1382V481.485Z" fill="white"/>
<path opacity="0.3" d="M1404.25 488.938H1410.09V494.777H1404.25V488.938Z" fill="white"/>
<path opacity="0.01" d="M1396.79 488.938H1402.63V494.777H1396.79V488.938Z" fill="white"/>
<path opacity="0.37" d="M1389.33 488.938H1395.17V494.777H1389.33V488.938Z" fill="white"/>
<path opacity="0.62" d="M1382 488.938H1387.84V494.777H1382V488.938Z" fill="white"/>
<path opacity="0.54" d="M1404.25 496.392H1410.09V502.23H1404.25V496.392Z" fill="white"/>
<path opacity="0.21" d="M1396.79 496.392H1402.63V502.23H1396.79V496.392Z" fill="white"/>
<path opacity="0.41" d="M1389.33 496.392H1395.17V502.23H1389.33V496.392Z" fill="white"/>
<path opacity="0.1" d="M1382 496.392H1387.84V502.23H1382V496.392Z" fill="white"/>
<path opacity="0.17" d="M1404.25 503.721H1410.09V509.559H1404.25V503.721Z" fill="white"/>
<path opacity="0.17" d="M1396.79 503.721H1402.63V509.559H1396.79V503.721Z" fill="white"/>
<path opacity="0.13" d="M1389.33 503.721H1395.17V509.559H1389.33V503.721Z" fill="white"/>
<path opacity="0.5" d="M1382 503.721H1387.84V509.559H1382V503.721Z" fill="white"/>
<path opacity="0.06" d="M1403.38 518.876H1409.22V524.714H1403.38V518.876Z" fill="white"/>
<path opacity="0.27" d="M1396.04 518.876H1401.89V524.714H1396.04V518.876Z" fill="white"/>
<path opacity="0.51" d="M1388.59 518.876H1394.43V524.714H1388.59V518.876Z" fill="white"/>
<path opacity="0.42" d="M1381.13 518.876H1386.97V524.714H1381.13V518.876Z" fill="white"/>
<path opacity="0.64" d="M1373.8 518.876H1379.64V524.714H1373.8V518.876Z" fill="white"/>
<path opacity="0.29" d="M1410.83 525.957H1416.68V531.795H1410.83V525.957Z" fill="white"/>
<path opacity="0.6" d="M1403.38 525.957H1409.22V531.795H1403.38V525.957Z" fill="white"/>
<path opacity="0.2" d="M1396.04 525.957H1401.89V531.795H1396.04V525.957Z" fill="white"/>
<path opacity="0.24" d="M1388.59 525.957H1394.43V531.795H1388.59V525.957Z" fill="white"/>
<path opacity="0.62" d="M1381.13 525.957H1386.97V531.795H1381.13V525.957Z" fill="white"/>
<path opacity="0.62" d="M1373.8 525.957H1379.64V531.795H1373.8V525.957Z" fill="white"/>
<path opacity="0.25" d="M1410.83 533.037H1416.68V538.876H1410.83V533.037Z" fill="white"/>
<path opacity="0.36" d="M1403.38 533.037H1409.22V538.876H1403.38V533.037Z" fill="white"/>
<path opacity="0.16" d="M1396.04 533.037H1401.89V538.876H1396.04V533.037Z" fill="white"/>
<path opacity="0.1" d="M1388.59 533.037H1394.43V538.876H1388.59V533.037Z" fill="white"/>
<path opacity="0.04" d="M1381.13 533.037H1386.97V538.876H1381.13V533.037Z" fill="white"/>
<path opacity="0.44" d="M1373.8 533.037H1379.64V538.876H1373.8V533.037Z" fill="white"/>
<path opacity="0.68" d="M1410.83 540.118H1416.68V545.957H1410.83V540.118Z" fill="white"/>
<path opacity="0.01" d="M1403.38 540.118H1409.22V545.957H1403.38V540.118Z" fill="white"/>
<path opacity="0.29" d="M1396.04 540.118H1401.89V545.957H1396.04V540.118Z" fill="white"/>
<path opacity="0.66" d="M1388.59 540.118H1394.43V545.957H1388.59V540.118Z" fill="white"/>
<path opacity="0.12" d="M1381.13 540.118H1386.97V545.957H1381.13V540.118Z" fill="white"/>
<path opacity="0.34" d="M1373.8 540.118H1379.64V545.957H1373.8V540.118Z" fill="white"/>
<path opacity="0.36" d="M1410.83 547.323H1416.68V553.161H1410.83V547.323Z" fill="white"/>
<path opacity="0.5" d="M1403.38 547.323H1409.22V553.161H1403.38V547.323Z" fill="white"/>
<path opacity="0.07" d="M1396.04 547.323H1401.89V553.161H1396.04V547.323Z" fill="white"/>
<path opacity="0.64" d="M1388.59 547.323H1394.43V553.161H1388.59V547.323Z" fill="white"/>
<path opacity="0.4" d="M1381.13 547.323H1386.97V553.161H1381.13V547.323Z" fill="white"/>
<path opacity="0.27" d="M1373.8 547.323H1379.64V553.161H1373.8V547.323Z" fill="white"/>
<path opacity="0.09" d="M1410.83 554.652H1416.68V560.491H1410.83V554.652Z" fill="white"/>
<path opacity="0.47" d="M1403.38 554.652H1409.22V560.491H1403.38V554.652Z" fill="white"/>
<path opacity="0.57" d="M1396.04 554.652H1401.89V560.491H1396.04V554.652Z" fill="white"/>
<path opacity="0.12" d="M1388.59 554.652H1394.43V560.491H1388.59V554.652Z" fill="white"/>
<path opacity="0.23" d="M1381.13 554.652H1386.97V560.491H1381.13V554.652Z" fill="white"/>
<path opacity="0.36" d="M1373.8 554.652H1379.64V560.491H1373.8V554.652Z" fill="white"/>
<path d="M1249.13 572.292H1326.44L1249.13 504.963V572.292Z" fill="#333333"/>
<path d="M1414.94 573.658H1522.07L1414.94 480.491V573.658Z" fill="#333333"/>
<path d="M1257.71 556.888H1280.33V563.845H1257.71V556.888Z" fill="#4D4D4D"/>
<path d="M1260.32 559H1277.84L1271.75 548.814H1266.41L1260.32 559Z" fill="#4D4D4D"/>
<path d="M1354.41 566.702C1354.41 571.546 1358.26 575.521 1362.98 575.521C1367.7 575.521 1371.56 571.546 1371.56 566.702C1371.56 561.857 1367.7 557.882 1362.98 557.882C1358.26 557.758 1354.41 561.733 1354.41 566.702Z" fill="#333333"/>
<path d="M1123.6 562.851C1123.6 566.081 1126.21 568.814 1129.31 568.814C1132.42 568.814 1135.03 566.205 1135.03 562.851C1135.03 559.621 1132.42 556.888 1129.31 556.888C1126.21 556.888 1123.6 559.621 1123.6 562.851Z" fill="#333333"/>
<path d="M1323.83 563.223C1323.83 566.577 1326.44 569.31 1329.8 569.31C1333.03 569.31 1335.76 566.577 1335.76 563.223C1335.76 559.869 1333.15 557.136 1329.8 557.136C1326.44 557.136 1323.83 559.869 1323.83 563.223Z" fill="#333333"/>
</g>
</svg>
