<svg width="811" height="559" viewBox="0 0 811 559" fill="none" xmlns="http://www.w3.org/2000/svg">
<g opacity="0.05" clip-path="url(#clip0)">
<path d="M285.87 355.648H244.854V551.671H285.87V355.648Z" fill="#333333"/>
<path d="M274.559 345.71H255.916V356.766H274.559V345.71Z" fill="#333333"/>
<path d="M270.706 339.251H259.893V345.586H270.706V339.251Z" fill="#333333"/>
<path d="M264.616 355.275L265.362 248.444L265.983 355.275H264.616Z" fill="#333333"/>
<path opacity="0.09" d="M267.475 370.431H263.124V374.778H267.475V370.431Z" fill="white"/>
<path opacity="0.33" d="M267.475 384.219H263.124V388.567H267.475V384.219Z" fill="white"/>
<path opacity="0.37" d="M267.475 398.132H263.124V402.48H267.475V398.132Z" fill="white"/>
<path opacity="0.14" d="M267.475 411.921H263.124V416.269H267.475V411.921Z" fill="white"/>
<path opacity="0.3" d="M267.475 425.834H263.124V430.182H267.475V425.834Z" fill="white"/>
<path opacity="0.16" d="M267.475 439.622H263.124V443.97H267.475V439.622Z" fill="white"/>
<path opacity="0.34" d="M267.475 453.535H263.124V457.883H267.475V453.535Z" fill="white"/>
<path opacity="0.29" d="M267.475 467.324H263.124V471.672H267.475V467.324Z" fill="white"/>
<path opacity="0.12" d="M267.475 481.237H263.124V485.585H267.475V481.237Z" fill="white"/>
<path d="M146.664 364.717H40.7675V399.996H146.664V364.717Z" fill="#E6E6E6"/>
<path d="M82.4051 364.717H40.7675V399.996H82.4051V364.717Z" fill="#B3B3B3"/>
<path d="M82.4051 399.996H0V571.05H82.4051V399.996Z" fill="#333333"/>
<path d="M210.922 399.996H82.405V571.05H210.922V399.996Z" fill="#4D4D4D"/>
<path d="M26.1012 407.076H19.2651V413.908H26.1012V407.076Z" fill="white"/>
<path d="M35.2987 407.076H28.4627V413.908H35.2987V407.076Z" fill="white"/>
<path d="M44.6206 407.076H37.7845V413.908H44.6206V407.076Z" fill="white"/>
<path d="M53.9424 407.076H47.1064V413.908H53.9424V407.076Z" fill="white"/>
<path d="M63.1399 407.076H56.3039V413.908H63.1399V407.076Z" fill="white"/>
<path d="M104.777 407.076H97.9415V413.908H104.777V407.076Z" fill="white"/>
<path d="M113.851 407.076H107.015V413.908H113.851V407.076Z" fill="white"/>
<path d="M122.924 407.076H116.088V413.908H122.924V407.076Z" fill="white"/>
<path d="M131.997 407.076H125.161V413.908H131.997V407.076Z" fill="white"/>
<path d="M141.071 407.076H134.234V413.908H141.071V407.076Z" fill="white"/>
<path d="M150.144 407.076H143.308V413.908H150.144V407.076Z" fill="white"/>
<path d="M159.093 407.076H152.257V413.908H159.093V407.076Z" fill="white"/>
<path d="M168.166 407.076H161.33V413.908H168.166V407.076Z" fill="white"/>
<path d="M177.239 407.076H170.403V413.908H177.239V407.076Z" fill="white"/>
<path d="M186.312 407.076H179.476V413.908H186.312V407.076Z" fill="white"/>
<path d="M104.777 416.02H97.9415V422.853H104.777V416.02Z" fill="white"/>
<path d="M113.851 416.02H107.015V422.853H113.851V416.02Z" fill="white"/>
<path d="M122.924 416.02H116.088V422.853H122.924V416.02Z" fill="white"/>
<path d="M131.997 416.02H125.161V422.853H131.997V416.02Z" fill="white"/>
<path d="M141.071 416.02H134.234V422.853H141.071V416.02Z" fill="white"/>
<path d="M150.144 416.02H143.308V422.853H150.144V416.02Z" fill="white"/>
<path d="M159.093 416.02H152.257V422.853H159.093V416.02Z" fill="white"/>
<path d="M168.166 416.02H161.33V422.853H168.166V416.02Z" fill="white"/>
<path d="M177.239 416.02H170.403V422.853H177.239V416.02Z" fill="white"/>
<path d="M186.312 416.02H179.476V422.853H186.312V416.02Z" fill="white"/>
<path d="M104.777 424.964H97.9415V431.797H104.777V424.964Z" fill="white"/>
<path d="M113.851 424.964H107.015V431.797H113.851V424.964Z" fill="white"/>
<path d="M122.924 424.964H116.088V431.797H122.924V424.964Z" fill="white"/>
<path d="M131.997 424.964H125.161V431.797H131.997V424.964Z" fill="white"/>
<path d="M141.071 424.964H134.234V431.797H141.071V424.964Z" fill="white"/>
<path d="M150.144 424.964H143.308V431.797H150.144V424.964Z" fill="white"/>
<path d="M159.093 424.964H152.257V431.797H159.093V424.964Z" fill="white"/>
<path d="M168.166 424.964H161.33V431.797H168.166V424.964Z" fill="white"/>
<path d="M177.239 424.964H170.403V431.797H177.239V424.964Z" fill="white"/>
<path d="M186.312 424.964H179.476V431.797H186.312V424.964Z" fill="white"/>
<path d="M104.777 433.784H97.9415V440.616H104.777V433.784Z" fill="white"/>
<path d="M113.851 433.784H107.015V440.616H113.851V433.784Z" fill="white"/>
<path d="M122.924 433.784H116.088V440.616H122.924V433.784Z" fill="white"/>
<path d="M131.997 433.784H125.161V440.616H131.997V433.784Z" fill="white"/>
<path d="M141.071 433.784H134.234V440.616H141.071V433.784Z" fill="white"/>
<path d="M150.144 433.784H143.308V440.616H150.144V433.784Z" fill="white"/>
<path d="M159.093 433.784H152.257V440.616H159.093V433.784Z" fill="white"/>
<path d="M168.166 433.784H161.33V440.616H168.166V433.784Z" fill="white"/>
<path d="M177.239 433.784H170.403V440.616H177.239V433.784Z" fill="white"/>
<path d="M186.312 433.784H179.476V440.616H186.312V433.784Z" fill="white"/>
<path d="M104.777 442.728H97.9415V449.56H104.777V442.728Z" fill="white"/>
<path d="M113.851 442.728H107.015V449.56H113.851V442.728Z" fill="white"/>
<path d="M122.924 442.728H116.088V449.56H122.924V442.728Z" fill="white"/>
<path d="M131.997 442.728H125.161V449.56H131.997V442.728Z" fill="white"/>
<path d="M141.071 442.728H134.234V449.56H141.071V442.728Z" fill="white"/>
<path d="M150.144 442.728H143.308V449.56H150.144V442.728Z" fill="white"/>
<path d="M159.093 442.728H152.257V449.56H159.093V442.728Z" fill="white"/>
<path d="M168.166 442.728H161.33V449.56H168.166V442.728Z" fill="white"/>
<path d="M177.239 442.728H170.403V449.56H177.239V442.728Z" fill="white"/>
<path d="M186.312 442.728H179.476V449.56H186.312V442.728Z" fill="white"/>
<path d="M104.777 451.672H97.9415V458.504H104.777V451.672Z" fill="white"/>
<path d="M113.851 451.672H107.015V458.504H113.851V451.672Z" fill="white"/>
<path d="M122.924 451.672H116.088V458.504H122.924V451.672Z" fill="white"/>
<path d="M131.997 451.672H125.161V458.504H131.997V451.672Z" fill="white"/>
<path d="M141.071 451.672H134.234V458.504H141.071V451.672Z" fill="white"/>
<path d="M150.144 451.672H143.308V458.504H150.144V451.672Z" fill="white"/>
<path d="M159.093 451.672H152.257V458.504H159.093V451.672Z" fill="white"/>
<path d="M168.166 451.672H161.33V458.504H168.166V451.672Z" fill="white"/>
<path d="M177.239 451.672H170.403V458.504H177.239V451.672Z" fill="white"/>
<path d="M186.312 451.672H179.476V458.504H186.312V451.672Z" fill="white"/>
<path d="M104.777 460.616H97.9415V467.448H104.777V460.616Z" fill="white"/>
<path d="M113.851 460.616H107.015V467.448H113.851V460.616Z" fill="white"/>
<path d="M122.924 460.616H116.088V467.448H122.924V460.616Z" fill="white"/>
<path d="M131.997 460.616H125.161V467.448H131.997V460.616Z" fill="white"/>
<path d="M141.071 460.616H134.234V467.448H141.071V460.616Z" fill="white"/>
<path d="M150.144 460.616H143.308V467.448H150.144V460.616Z" fill="white"/>
<path d="M159.093 460.616H152.257V467.448H159.093V460.616Z" fill="white"/>
<path d="M168.166 460.616H161.33V467.448H168.166V460.616Z" fill="white"/>
<path d="M177.239 460.616H170.403V467.448H177.239V460.616Z" fill="white"/>
<path d="M186.312 460.616H179.476V467.448H186.312V460.616Z" fill="white"/>
<path d="M104.777 469.56H97.9415V476.392H104.777V469.56Z" fill="white"/>
<path d="M113.851 469.56H107.015V476.392H113.851V469.56Z" fill="white"/>
<path d="M122.924 469.56H116.088V476.392H122.924V469.56Z" fill="white"/>
<path d="M131.997 469.56H125.161V476.392H131.997V469.56Z" fill="white"/>
<path d="M141.071 469.56H134.234V476.392H141.071V469.56Z" fill="white"/>
<path d="M150.144 469.56H143.308V476.392H150.144V469.56Z" fill="white"/>
<path d="M159.093 469.56H152.257V476.392H159.093V469.56Z" fill="white"/>
<path d="M168.166 469.56H161.33V476.392H168.166V469.56Z" fill="white"/>
<path d="M177.239 469.56H170.403V476.392H177.239V469.56Z" fill="white"/>
<path d="M186.312 469.56H179.476V476.392H186.312V469.56Z" fill="white"/>
<path d="M104.777 478.38H97.9415V485.212H104.777V478.38Z" fill="white"/>
<path d="M113.851 478.38H107.015V485.212H113.851V478.38Z" fill="white"/>
<path d="M122.924 478.38H116.088V485.212H122.924V478.38Z" fill="white"/>
<path d="M131.997 478.38H125.161V485.212H131.997V478.38Z" fill="white"/>
<path d="M141.071 478.38H134.234V485.212H141.071V478.38Z" fill="white"/>
<path d="M150.144 478.38H143.308V485.212H150.144V478.38Z" fill="white"/>
<path d="M159.093 478.38H152.257V485.212H159.093V478.38Z" fill="white"/>
<path d="M168.166 478.38H161.33V485.212H168.166V478.38Z" fill="white"/>
<path d="M177.239 478.38H170.403V485.212H177.239V478.38Z" fill="white"/>
<path d="M186.312 478.38H179.476V485.212H186.312V478.38Z" fill="white"/>
<path d="M104.777 487.324H97.9415V494.156H104.777V487.324Z" fill="white"/>
<path d="M113.851 487.324H107.015V494.156H113.851V487.324Z" fill="white"/>
<path d="M122.924 487.324H116.088V494.156H122.924V487.324Z" fill="white"/>
<path d="M131.997 487.324H125.161V494.156H131.997V487.324Z" fill="white"/>
<path d="M141.071 487.324H134.234V494.156H141.071V487.324Z" fill="white"/>
<path d="M150.144 487.324H143.308V494.156H150.144V487.324Z" fill="white"/>
<path d="M159.093 487.324H152.257V494.156H159.093V487.324Z" fill="white"/>
<path d="M168.166 487.324H161.33V494.156H168.166V487.324Z" fill="white"/>
<path d="M177.239 487.324H170.403V494.156H177.239V487.324Z" fill="white"/>
<path d="M186.312 487.324H179.476V494.156H186.312V487.324Z" fill="white"/>
<path d="M104.777 496.268H97.9415V503.1H104.777V496.268Z" fill="white"/>
<path d="M113.851 496.268H107.015V503.1H113.851V496.268Z" fill="white"/>
<path d="M122.924 496.268H116.088V503.1H122.924V496.268Z" fill="white"/>
<path d="M131.997 496.268H125.161V503.1H131.997V496.268Z" fill="white"/>
<path d="M141.071 496.268H134.234V503.1H141.071V496.268Z" fill="white"/>
<path d="M150.144 496.268H143.308V503.1H150.144V496.268Z" fill="white"/>
<path d="M159.093 496.268H152.257V503.1H159.093V496.268Z" fill="white"/>
<path d="M168.166 496.268H161.33V503.1H168.166V496.268Z" fill="white"/>
<path d="M177.239 496.268H170.403V503.1H177.239V496.268Z" fill="white"/>
<path d="M186.312 496.268H179.476V503.1H186.312V496.268Z" fill="white"/>
<path d="M104.777 505.212H97.9415V512.044H104.777V505.212Z" fill="white"/>
<path d="M113.851 505.212H107.015V512.044H113.851V505.212Z" fill="white"/>
<path d="M122.924 505.212H116.088V512.044H122.924V505.212Z" fill="white"/>
<path d="M131.997 505.212H125.161V512.044H131.997V505.212Z" fill="white"/>
<path d="M141.071 505.212H134.234V512.044H141.071V505.212Z" fill="white"/>
<path d="M150.144 505.212H143.308V512.044H150.144V505.212Z" fill="white"/>
<path d="M159.093 505.212H152.257V512.044H159.093V505.212Z" fill="white"/>
<path d="M168.166 505.212H161.33V512.044H168.166V505.212Z" fill="white"/>
<path d="M177.239 505.212H170.403V512.044H177.239V505.212Z" fill="white"/>
<path d="M186.312 505.212H179.476V512.044H186.312V505.212Z" fill="white"/>
<path d="M104.777 514.156H97.9415V520.988H104.777V514.156Z" fill="white"/>
<path d="M113.851 514.156H107.015V520.988H113.851V514.156Z" fill="white"/>
<path d="M122.924 514.156H116.088V520.988H122.924V514.156Z" fill="white"/>
<path d="M131.997 514.156H125.161V520.988H131.997V514.156Z" fill="white"/>
<path d="M141.071 514.156H134.234V520.988H141.071V514.156Z" fill="white"/>
<path d="M150.144 514.156H143.308V520.988H150.144V514.156Z" fill="white"/>
<path d="M159.093 514.156H152.257V520.988H159.093V514.156Z" fill="white"/>
<path d="M168.166 514.156H161.33V520.988H168.166V514.156Z" fill="white"/>
<path d="M177.239 514.156H170.403V520.988H177.239V514.156Z" fill="white"/>
<path d="M186.312 514.156H179.476V520.988H186.312V514.156Z" fill="white"/>
<path d="M104.777 522.976H97.9415V529.808H104.777V522.976Z" fill="white"/>
<path d="M113.851 522.976H107.015V529.808H113.851V522.976Z" fill="white"/>
<path d="M122.924 522.976H116.088V529.808H122.924V522.976Z" fill="white"/>
<path d="M131.997 522.976H125.161V529.808H131.997V522.976Z" fill="white"/>
<path d="M141.071 522.976H134.234V529.808H141.071V522.976Z" fill="white"/>
<path d="M150.144 522.976H143.308V529.808H150.144V522.976Z" fill="white"/>
<path d="M159.093 522.976H152.257V529.808H159.093V522.976Z" fill="white"/>
<path d="M168.166 522.976H161.33V529.808H168.166V522.976Z" fill="white"/>
<path d="M177.239 522.976H170.403V529.808H177.239V522.976Z" fill="white"/>
<path d="M186.312 522.976H179.476V529.808H186.312V522.976Z" fill="white"/>
<path d="M195.386 522.976H188.55V529.808H195.386V522.976Z" fill="white"/>
<path d="M104.777 531.92H97.9415V538.752H104.777V531.92Z" fill="white"/>
<path d="M113.851 531.92H107.015V538.752H113.851V531.92Z" fill="white"/>
<path d="M122.924 531.92H116.088V538.752H122.924V531.92Z" fill="white"/>
<path d="M131.997 531.92H125.161V538.752H131.997V531.92Z" fill="white"/>
<path d="M141.071 531.92H134.234V538.752H141.071V531.92Z" fill="white"/>
<path d="M150.144 531.92H143.308V538.752H150.144V531.92Z" fill="white"/>
<path d="M159.093 531.92H152.257V538.752H159.093V531.92Z" fill="white"/>
<path d="M168.166 531.92H161.33V538.752H168.166V531.92Z" fill="white"/>
<path d="M177.239 531.92H170.403V538.752H177.239V531.92Z" fill="white"/>
<path d="M186.312 531.92H179.476V538.752H186.312V531.92Z" fill="white"/>
<path d="M195.386 531.92H188.55V538.752H195.386V531.92Z" fill="white"/>
<path d="M104.777 540.864H97.9415V547.696H104.777V540.864Z" fill="white"/>
<path d="M113.851 540.864H107.015V547.696H113.851V540.864Z" fill="white"/>
<path d="M122.924 540.864H116.088V547.696H122.924V540.864Z" fill="white"/>
<path d="M131.997 540.864H125.161V547.696H131.997V540.864Z" fill="white"/>
<path d="M141.071 540.864H134.234V547.696H141.071V540.864Z" fill="white"/>
<path d="M150.144 540.864H143.308V547.696H150.144V540.864Z" fill="white"/>
<path d="M159.093 540.864H152.257V547.696H159.093V540.864Z" fill="white"/>
<path d="M168.166 540.864H161.33V547.696H168.166V540.864Z" fill="white"/>
<path d="M177.239 540.864H170.403V547.696H177.239V540.864Z" fill="white"/>
<path d="M186.312 540.864H179.476V547.696H186.312V540.864Z" fill="white"/>
<path d="M195.386 540.864H188.55V547.696H195.386V540.864Z" fill="white"/>
<path d="M104.777 549.808H97.9415V556.64H104.777V549.808Z" fill="white"/>
<path d="M113.851 549.808H107.015V556.64H113.851V549.808Z" fill="white"/>
<path d="M122.924 549.808H116.088V556.64H122.924V549.808Z" fill="white"/>
<path d="M131.997 549.808H125.161V556.64H131.997V549.808Z" fill="white"/>
<path d="M141.071 549.808H134.234V556.64H141.071V549.808Z" fill="white"/>
<path d="M150.144 549.808H143.308V556.64H150.144V549.808Z" fill="white"/>
<path d="M159.093 549.808H152.257V556.64H159.093V549.808Z" fill="white"/>
<path d="M168.166 549.808H161.33V556.64H168.166V549.808Z" fill="white"/>
<path d="M177.239 549.808H170.403V556.64H177.239V549.808Z" fill="white"/>
<path d="M186.312 549.808H179.476V556.64H186.312V549.808Z" fill="white"/>
<path d="M195.386 549.808H188.55V556.64H195.386V549.808Z" fill="white"/>
<path d="M104.777 558.751H97.9415V565.584H104.777V558.751Z" fill="white"/>
<path d="M113.851 558.751H107.015V565.584H113.851V558.751Z" fill="white"/>
<path d="M122.924 558.751H116.088V565.584H122.924V558.751Z" fill="white"/>
<path d="M131.997 558.751H125.161V565.584H131.997V558.751Z" fill="white"/>
<path d="M141.071 558.751H134.234V565.584H141.071V558.751Z" fill="white"/>
<path d="M150.144 558.751H143.308V565.584H150.144V558.751Z" fill="white"/>
<path d="M159.093 558.751H152.257V565.584H159.093V558.751Z" fill="white"/>
<path d="M168.166 558.751H161.33V565.584H168.166V558.751Z" fill="white"/>
<path d="M177.239 558.751H170.403V565.584H177.239V558.751Z" fill="white"/>
<path d="M186.312 558.751H179.476V565.584H186.312V558.751Z" fill="white"/>
<path d="M195.386 558.751H188.55V565.584H195.386V558.751Z" fill="white"/>
<path d="M26.1012 416.02H19.2651V422.853H26.1012V416.02Z" fill="white"/>
<path d="M35.2987 416.02H28.4627V422.853H35.2987V416.02Z" fill="white"/>
<path d="M44.6206 416.02H37.7845V422.853H44.6206V416.02Z" fill="white"/>
<path d="M53.9424 416.02H47.1064V422.853H53.9424V416.02Z" fill="white"/>
<path d="M63.1399 416.02H56.3039V422.853H63.1399V416.02Z" fill="white"/>
<path d="M26.1012 424.964H19.2651V431.797H26.1012V424.964Z" fill="white"/>
<path d="M35.2987 424.964H28.4627V431.797H35.2987V424.964Z" fill="white"/>
<path d="M44.6206 424.964H37.7845V431.797H44.6206V424.964Z" fill="white"/>
<path d="M53.9424 424.964H47.1064V431.797H53.9424V424.964Z" fill="white"/>
<path d="M63.1399 424.964H56.3039V431.797H63.1399V424.964Z" fill="white"/>
<path d="M26.1012 433.784H19.2651V440.616H26.1012V433.784Z" fill="white"/>
<path d="M35.2987 433.784H28.4627V440.616H35.2987V433.784Z" fill="white"/>
<path d="M44.6206 433.784H37.7845V440.616H44.6206V433.784Z" fill="white"/>
<path d="M53.9424 433.784H47.1064V440.616H53.9424V433.784Z" fill="white"/>
<path d="M63.1399 433.784H56.3039V440.616H63.1399V433.784Z" fill="white"/>
<path d="M26.1012 442.728H19.2651V449.56H26.1012V442.728Z" fill="white"/>
<path d="M35.2987 442.728H28.4627V449.56H35.2987V442.728Z" fill="white"/>
<path d="M44.6206 442.728H37.7845V449.56H44.6206V442.728Z" fill="white"/>
<path d="M53.9424 442.728H47.1064V449.56H53.9424V442.728Z" fill="white"/>
<path d="M63.1399 442.728H56.3039V449.56H63.1399V442.728Z" fill="white"/>
<path d="M26.1012 451.672H19.2651V458.504H26.1012V451.672Z" fill="white"/>
<path d="M35.2987 451.672H28.4627V458.504H35.2987V451.672Z" fill="white"/>
<path d="M44.6206 451.672H37.7845V458.504H44.6206V451.672Z" fill="white"/>
<path d="M53.9424 451.672H47.1064V458.504H53.9424V451.672Z" fill="white"/>
<path d="M63.1399 451.672H56.3039V458.504H63.1399V451.672Z" fill="white"/>
<path d="M26.1012 460.616H19.2651V467.448H26.1012V460.616Z" fill="white"/>
<path d="M35.2987 460.616H28.4627V467.448H35.2987V460.616Z" fill="white"/>
<path d="M44.6206 460.616H37.7845V467.448H44.6206V460.616Z" fill="white"/>
<path d="M53.9424 460.616H47.1064V467.448H53.9424V460.616Z" fill="white"/>
<path d="M63.1399 460.616H56.3039V467.448H63.1399V460.616Z" fill="white"/>
<path d="M26.1012 469.56H19.2651V476.392H26.1012V469.56Z" fill="white"/>
<path d="M35.2987 469.56H28.4627V476.392H35.2987V469.56Z" fill="white"/>
<path d="M44.6206 469.56H37.7845V476.392H44.6206V469.56Z" fill="white"/>
<path d="M53.9424 469.56H47.1064V476.392H53.9424V469.56Z" fill="white"/>
<path d="M63.1399 469.56H56.3039V476.392H63.1399V469.56Z" fill="white"/>
<path d="M26.1012 478.38H19.2651V485.212H26.1012V478.38Z" fill="white"/>
<path d="M35.2987 478.38H28.4627V485.212H35.2987V478.38Z" fill="white"/>
<path d="M44.6206 478.38H37.7845V485.212H44.6206V478.38Z" fill="white"/>
<path d="M53.9424 478.38H47.1064V485.212H53.9424V478.38Z" fill="white"/>
<path d="M63.1399 478.38H56.3039V485.212H63.1399V478.38Z" fill="white"/>
<path d="M26.1012 487.324H19.2651V494.156H26.1012V487.324Z" fill="white"/>
<path d="M35.2987 487.324H28.4627V494.156H35.2987V487.324Z" fill="white"/>
<path d="M44.6206 487.324H37.7845V494.156H44.6206V487.324Z" fill="white"/>
<path d="M53.9424 487.324H47.1064V494.156H53.9424V487.324Z" fill="white"/>
<path d="M63.1399 487.324H56.3039V494.156H63.1399V487.324Z" fill="white"/>
<path d="M26.1012 496.268H19.2651V503.1H26.1012V496.268Z" fill="white"/>
<path d="M35.2987 496.268H28.4627V503.1H35.2987V496.268Z" fill="white"/>
<path d="M44.6206 496.268H37.7845V503.1H44.6206V496.268Z" fill="white"/>
<path d="M53.9424 496.268H47.1064V503.1H53.9424V496.268Z" fill="white"/>
<path d="M63.1399 496.268H56.3039V503.1H63.1399V496.268Z" fill="white"/>
<path d="M26.1012 505.212H19.2651V512.044H26.1012V505.212Z" fill="white"/>
<path d="M35.2987 505.212H28.4627V512.044H35.2987V505.212Z" fill="white"/>
<path d="M44.6206 505.212H37.7845V512.044H44.6206V505.212Z" fill="white"/>
<path d="M53.9424 505.212H47.1064V512.044H53.9424V505.212Z" fill="white"/>
<path d="M63.1399 505.212H56.3039V512.044H63.1399V505.212Z" fill="white"/>
<path d="M26.1012 514.156H19.2651V520.988H26.1012V514.156Z" fill="white"/>
<path d="M35.2987 514.156H28.4627V520.988H35.2987V514.156Z" fill="white"/>
<path d="M44.6206 514.156H37.7845V520.988H44.6206V514.156Z" fill="white"/>
<path d="M53.9424 514.156H47.1064V520.988H53.9424V514.156Z" fill="white"/>
<path d="M63.1399 514.156H56.3039V520.988H63.1399V514.156Z" fill="white"/>
<path d="M26.1012 522.976H19.2651V529.808H26.1012V522.976Z" fill="white"/>
<path d="M35.2987 522.976H28.4627V529.808H35.2987V522.976Z" fill="white"/>
<path d="M44.6206 522.976H37.7845V529.808H44.6206V522.976Z" fill="white"/>
<path d="M53.9424 522.976H47.1064V529.808H53.9424V522.976Z" fill="white"/>
<path d="M63.1399 522.976H56.3039V529.808H63.1399V522.976Z" fill="white"/>
<path d="M26.1012 531.92H19.2651V538.752H26.1012V531.92Z" fill="white"/>
<path d="M35.2987 531.92H28.4627V538.752H35.2987V531.92Z" fill="white"/>
<path d="M44.6206 531.92H37.7845V538.752H44.6206V531.92Z" fill="white"/>
<path d="M53.9424 531.92H47.1064V538.752H53.9424V531.92Z" fill="white"/>
<path d="M63.1399 531.92H56.3039V538.752H63.1399V531.92Z" fill="white"/>
<path d="M26.1012 540.864H19.2651V547.696H26.1012V540.864Z" fill="white"/>
<path d="M35.2987 540.864H28.4627V547.696H35.2987V540.864Z" fill="white"/>
<path d="M44.6206 540.864H37.7845V547.696H44.6206V540.864Z" fill="white"/>
<path d="M53.9424 540.864H47.1064V547.696H53.9424V540.864Z" fill="white"/>
<path d="M63.1399 540.864H56.3039V547.696H63.1399V540.864Z" fill="white"/>
<path d="M26.1012 549.808H19.2651V556.64H26.1012V549.808Z" fill="white"/>
<path d="M35.2987 549.808H28.4627V556.64H35.2987V549.808Z" fill="white"/>
<path d="M44.6206 549.808H37.7845V556.64H44.6206V549.808Z" fill="white"/>
<path d="M53.9424 549.808H47.1064V556.64H53.9424V549.808Z" fill="white"/>
<path d="M63.1399 549.808H56.3039V556.64H63.1399V549.808Z" fill="white"/>
<path d="M26.1012 558.751H19.2651V565.584H26.1012V558.751Z" fill="white"/>
<path d="M35.2987 558.751H28.4627V565.584H35.2987V558.751Z" fill="white"/>
<path d="M44.6206 558.751H37.7845V565.584H44.6206V558.751Z" fill="white"/>
<path d="M53.9424 558.751H47.1064V565.584H53.9424V558.751Z" fill="white"/>
<path d="M63.1399 558.751H56.3039V565.584H63.1399V558.751Z" fill="white"/>
<path d="M72.4618 382.604H9.07324V399.996H72.4618V382.604Z" fill="#333333"/>
<path d="M191.906 382.604H101.422V399.996H191.906V382.604Z" fill="#4D4D4D"/>
<path d="M118.574 351.301H82.405V364.717H118.574V351.301Z" fill="#E6E6E6"/>
<path d="M100.552 337.885H82.405V351.301H100.552V337.885Z" fill="#4D4D4D"/>
<path d="M82.4051 337.885H64.2585V351.301H82.4051V337.885Z" fill="#333333"/>
<path d="M82.405 351.301H54.6881V364.717H82.405V351.301Z" fill="#B3B3B3"/>
<path d="M81.1622 337.884L82.4051 306.953L83.3994 337.884H81.1622Z" fill="#333333"/>
<path opacity="0.19" d="M195.386 407.076H188.55V413.908H195.386V407.076Z" fill="white"/>
<path opacity="0.24" d="M195.386 416.02H188.55V422.852H195.386V416.02Z" fill="white"/>
<path opacity="0.29" d="M195.386 424.964H188.55V431.796H195.386V424.964Z" fill="white"/>
<path opacity="0.39" d="M195.386 433.784H188.55V440.616H195.386V433.784Z" fill="white"/>
<path opacity="0.21" d="M195.386 442.728H188.55V449.56H195.386V442.728Z" fill="white"/>
<path opacity="0.48" d="M195.386 451.672H188.55V458.504H195.386V451.672Z" fill="white"/>
<path opacity="0.32" d="M195.386 460.616H188.55V467.448H195.386V460.616Z" fill="white"/>
<path opacity="0.13" d="M195.386 469.56H188.55V476.392H195.386V469.56Z" fill="white"/>
<path opacity="0.19" d="M195.386 478.38H188.55V485.212H195.386V478.38Z" fill="white"/>
<path opacity="0.03" d="M195.386 487.324H188.55V494.156H195.386V487.324Z" fill="white"/>
<path opacity="0.36" d="M195.386 496.268H188.55V503.1H195.386V496.268Z" fill="white"/>
<path opacity="0.25" d="M195.386 505.212H188.55V512.044H195.386V505.212Z" fill="white"/>
<path d="M195.386 514.156H188.55V520.988H195.386V514.156Z" fill="white"/>
<path d="M471.436 477.634H430.42V573.658H471.436V477.634Z" fill="#333333"/>
<path d="M449.064 472.79H430.42V478.255H449.064V472.79Z" fill="#333333"/>
<path d="M441.234 469.684H430.42V472.79H441.234V469.684Z" fill="#333333"/>
<path opacity="0.06" d="M454.284 484.342H447.573V489.311H454.284V484.342Z" fill="white"/>
<path opacity="0.12" d="M454.284 496.64H447.573V501.609H454.284V496.64Z" fill="white"/>
<path opacity="0.19" d="M454.284 521.236H447.573V526.205H454.284V521.236Z" fill="white"/>
<path opacity="0.14" d="M454.284 545.832H447.573V550.801H454.284V545.832Z" fill="white"/>
<path opacity="0.1" d="M454.284 558.13H447.573V563.099H454.284V558.13Z" fill="white"/>
<path d="M368.523 488.069H312.344V539.497H368.523V488.069Z" fill="#333333"/>
<path d="M359.699 483.473H321.293V505.584H359.699V483.473Z" fill="#333333"/>
<path d="M372.625 520.491H316.445V571.919H372.625V520.491Z" fill="#333333"/>
<path d="M363.676 515.895H325.27V538.006H363.676V515.895Z" fill="#333333"/>
<path d="M447.448 513.659H391.269V572.913H447.448V513.659Z" fill="#333333"/>
<path d="M438.624 508.441H400.218V534.031H438.624V508.441Z" fill="#333333"/>
<path d="M635.501 531.671H579.321V588.938H635.501V531.671Z" fill="#333333"/>
<path d="M626.676 526.578H588.27V551.298H626.676V526.578Z" fill="#333333"/>
<path d="M513.695 413.411H450.928V572.789H513.695V413.411Z" fill="#333333"/>
<path opacity="0.46" d="M469.199 420.616H454.036V423.474H469.199V420.616Z" fill="#E6E6E6"/>
<path opacity="0.34" d="M489.956 420.616H474.792V423.474H489.956V420.616Z" fill="#E6E6E6"/>
<path opacity="0.52" d="M510.588 420.616H495.425V423.474H510.588V420.616Z" fill="#E6E6E6"/>
<path opacity="0.54" d="M469.199 427.2H454.036V430.057H469.199V427.2Z" fill="#E6E6E6"/>
<path opacity="0.3" d="M489.956 427.2H474.792V430.057H489.956V427.2Z" fill="#E6E6E6"/>
<path opacity="0.06" d="M510.588 427.2H495.425V430.057H510.588V427.2Z" fill="#E6E6E6"/>
<path opacity="0.15" d="M469.199 433.784H454.036V436.641H469.199V433.784Z" fill="#E6E6E6"/>
<path opacity="0.42" d="M489.956 433.784H474.792V436.641H489.956V433.784Z" fill="#E6E6E6"/>
<path opacity="0.48" d="M510.588 433.784H495.425V436.641H510.588V433.784Z" fill="#E6E6E6"/>
<path opacity="0.18" d="M469.199 440.368H454.036V443.225H469.199V440.368Z" fill="#E6E6E6"/>
<path opacity="0.28" d="M510.588 440.368H495.425V443.225H510.588V440.368Z" fill="#E6E6E6"/>
<path opacity="0.29" d="M469.199 446.951H454.036V449.809H469.199V446.951Z" fill="#E6E6E6"/>
<path opacity="0.28" d="M489.956 446.951H474.792V449.809H489.956V446.951Z" fill="#E6E6E6"/>
<path opacity="0.56" d="M510.588 446.951H495.425V449.809H510.588V446.951Z" fill="#E6E6E6"/>
<path opacity="0.41" d="M469.199 453.535H454.036V456.392H469.199V453.535Z" fill="#E6E6E6"/>
<path opacity="0.16" d="M489.956 453.535H474.792V456.392H489.956V453.535Z" fill="#E6E6E6"/>
<path opacity="0.4" d="M510.588 453.535H495.425V456.392H510.588V453.535Z" fill="#E6E6E6"/>
<path opacity="0.1" d="M469.199 460.119H454.036V462.976H469.199V460.119Z" fill="#E6E6E6"/>
<path opacity="0.17" d="M489.956 460.119H474.792V462.976H489.956V460.119Z" fill="#E6E6E6"/>
<path opacity="0.08" d="M510.588 460.119H495.425V462.976H510.588V460.119Z" fill="#E6E6E6"/>
<path opacity="0.49" d="M469.199 466.703H454.036V469.56H469.199V466.703Z" fill="#E6E6E6"/>
<path opacity="0.58" d="M489.956 466.703H474.792V469.56H489.956V466.703Z" fill="#E6E6E6"/>
<path opacity="0.58" d="M510.588 466.703H495.425V469.56H510.588V466.703Z" fill="#E6E6E6"/>
<path opacity="0.26" d="M469.199 473.287H454.036V476.144H469.199V473.287Z" fill="#E6E6E6"/>
<path opacity="0.37" d="M489.956 473.287H474.792V476.144H489.956V473.287Z" fill="#E6E6E6"/>
<path opacity="0.34" d="M510.588 473.287H495.425V476.144H510.588V473.287Z" fill="#E6E6E6"/>
<path opacity="0.55" d="M469.199 479.87H454.036V482.727H469.199V479.87Z" fill="#E6E6E6"/>
<path opacity="0.12" d="M489.956 479.87H474.792V482.727H489.956V479.87Z" fill="#E6E6E6"/>
<path opacity="0.6" d="M510.588 479.87H495.425V482.727H510.588V479.87Z" fill="#E6E6E6"/>
<path opacity="0.02" d="M469.199 486.454H454.036V489.311H469.199V486.454Z" fill="#E6E6E6"/>
<path opacity="0.28" d="M489.956 486.454H474.792V489.311H489.956V486.454Z" fill="#E6E6E6"/>
<path opacity="0.21" d="M510.588 486.454H495.425V489.311H510.588V486.454Z" fill="#E6E6E6"/>
<path opacity="0.57" d="M469.199 493.038H454.036V495.895H469.199V493.038Z" fill="#E6E6E6"/>
<path opacity="0.38" d="M489.956 493.038H474.792V495.895H489.956V493.038Z" fill="#E6E6E6"/>
<path opacity="0.25" d="M510.588 493.038H495.425V495.895H510.588V493.038Z" fill="#E6E6E6"/>
<path opacity="0.15" d="M469.199 499.622H454.036V502.479H469.199V499.622Z" fill="#E6E6E6"/>
<path opacity="0.47" d="M489.956 499.622H474.792V502.479H489.956V499.622Z" fill="#E6E6E6"/>
<path opacity="0.3" d="M510.588 499.622H495.425V502.479H510.588V499.622Z" fill="#E6E6E6"/>
<path opacity="0.4" d="M469.199 506.206H454.036V509.063H469.199V506.206Z" fill="#E6E6E6"/>
<path opacity="0.39" d="M489.956 506.206H474.792V509.063H489.956V506.206Z" fill="#E6E6E6"/>
<path opacity="0.24" d="M510.588 506.206H495.425V509.063H510.588V506.206Z" fill="#E6E6E6"/>
<path opacity="0.46" d="M469.199 512.789H454.036V515.646H469.199V512.789Z" fill="#E6E6E6"/>
<path opacity="0.22" d="M489.956 512.789H474.792V515.646H489.956V512.789Z" fill="#E6E6E6"/>
<path opacity="0.11" d="M510.588 512.789H495.425V515.646H510.588V512.789Z" fill="#E6E6E6"/>
<path opacity="0.11" d="M489.956 519.373H474.792V522.23H489.956V519.373Z" fill="#E6E6E6"/>
<path opacity="0.02" d="M510.588 519.373H495.425V522.23H510.588V519.373Z" fill="#E6E6E6"/>
<path opacity="0.27" d="M469.199 525.957H454.036V528.814H469.199V525.957Z" fill="#E6E6E6"/>
<path opacity="0.21" d="M489.956 525.957H474.792V528.814H489.956V525.957Z" fill="#E6E6E6"/>
<path opacity="0.49" d="M510.588 525.957H495.425V528.814H510.588V525.957Z" fill="#E6E6E6"/>
<path opacity="0.6" d="M469.199 532.541H454.036V535.398H469.199V532.541Z" fill="#E6E6E6"/>
<path opacity="0.31" d="M489.956 532.541H474.792V535.398H489.956V532.541Z" fill="#E6E6E6"/>
<path opacity="0.22" d="M510.588 532.541H495.425V535.398H510.588V532.541Z" fill="#E6E6E6"/>
<path opacity="0.54" d="M469.199 539.125H454.036V541.982H469.199V539.125Z" fill="#E6E6E6"/>
<path opacity="0.6" d="M489.956 539.125H474.792V541.982H489.956V539.125Z" fill="#E6E6E6"/>
<path opacity="0.08" d="M510.588 539.125H495.425V541.982H510.588V539.125Z" fill="#E6E6E6"/>
<path opacity="0.55" d="M489.956 545.708H474.792V548.565H489.956V545.708Z" fill="#E6E6E6"/>
<path d="M510.588 545.708H495.425V548.565H510.588V545.708Z" fill="#E6E6E6"/>
<path opacity="0.6" d="M470.194 420.616H469.199V548.565H470.194V420.616Z" fill="#E6E6E6"/>
<path opacity="0.6" d="M495.425 420.616H494.43V548.565H495.425V420.616Z" fill="#E6E6E6"/>
<path d="M545.017 413.411H513.695V572.789H545.017V413.411Z" fill="#4D4D4D"/>
<path opacity="0.69" d="M540.418 420.616H516.803V423.474H540.418V420.616Z" fill="#E6E6E6"/>
<path opacity="0.79" d="M540.418 427.2H516.803V430.057H540.418V427.2Z" fill="#E6E6E6"/>
<path opacity="0.19" d="M540.418 433.784H516.803V436.641H540.418V433.784Z" fill="#E6E6E6"/>
<path opacity="0.88" d="M540.418 440.368H516.803V443.225H540.418V440.368Z" fill="#E6E6E6"/>
<path opacity="0.5" d="M540.418 446.951H516.803V449.809H540.418V446.951Z" fill="#E6E6E6"/>
<path opacity="0.25" d="M540.418 453.535H516.803V456.392H540.418V453.535Z" fill="#E6E6E6"/>
<path opacity="0.91" d="M540.418 460.119H516.803V462.976H540.418V460.119Z" fill="#E6E6E6"/>
<path opacity="0.02" d="M540.418 466.703H516.803V469.56H540.418V466.703Z" fill="#E6E6E6"/>
<path opacity="0.53" d="M540.418 473.287H516.803V476.144H540.418V473.287Z" fill="#E6E6E6"/>
<path opacity="0.65" d="M540.418 479.87H516.803V482.727H540.418V479.87Z" fill="#E6E6E6"/>
<path d="M540.418 486.454H516.803V489.311H540.418V486.454Z" fill="#E6E6E6"/>
<path opacity="0.8" d="M540.418 493.038H516.803V495.895H540.418V493.038Z" fill="#E6E6E6"/>
<path opacity="0.82" d="M540.418 499.622H516.803V502.479H540.418V499.622Z" fill="#E6E6E6"/>
<path opacity="0.75" d="M540.418 506.206H516.803V509.063H540.418V506.206Z" fill="#E6E6E6"/>
<path opacity="0.31" d="M540.418 512.789H516.803V515.646H540.418V512.789Z" fill="#E6E6E6"/>
<path opacity="0.22" d="M540.418 519.373H516.803V522.23H540.418V519.373Z" fill="#E6E6E6"/>
<path opacity="0.43" d="M540.418 525.957H516.803V528.814H540.418V525.957Z" fill="#E6E6E6"/>
<path opacity="0.68" d="M540.418 532.541H516.803V535.398H540.418V532.541Z" fill="#E6E6E6"/>
<path opacity="0.38" d="M540.418 539.125H516.803V541.982H540.418V539.125Z" fill="#E6E6E6"/>
<path opacity="0.84" d="M540.418 545.708H516.803V548.565H540.418V545.708Z" fill="#E6E6E6"/>
<path d="M461.99 404.964V413.411H502.634V404.964H461.99ZM471.064 410.679H466.838V407.821H471.064V410.679ZM477.651 410.679H473.549V407.821H477.651V410.679ZM484.363 410.679H480.261V407.821H484.363V410.679ZM491.074 410.679H486.849V407.821H491.074V410.679ZM497.786 410.679H493.56V407.821H497.786V410.679Z" fill="#333333"/>
<path d="M510.091 407.822H508.972V410.679H510.091V407.822Z" fill="#333333"/>
<path d="M502.634 404.964V413.411H521.774V404.964H502.634ZM510.091 410.679H505.989V407.821H510.091V410.679ZM518.916 410.679H514.814V407.821H518.916V410.679Z" fill="#4D4D4D"/>
<path d="M518.791 407.822H517.673V410.679H518.791V407.822Z" fill="#333333"/>
<path d="M522.023 583.596H437.505L522.023 521.236V583.596Z" fill="#333333"/>
<path d="M395.992 379.623H389.156V405.586H395.992V379.623Z" fill="#4D4D4D"/>
<path d="M389.28 379.623H382.32V405.586H389.28V379.623Z" fill="#333333"/>
<path d="M403.076 379.623H396.116V405.586H403.076V379.623Z" fill="#666666"/>
<path d="M423.211 423.349H403.822V571.422H423.211V423.349Z" fill="#666666"/>
<path d="M381.077 423.349H364.173V571.422H381.077V423.349Z" fill="#333333"/>
<path d="M403.822 423.349H380.952V571.422H403.822V423.349Z" fill="#4D4D4D"/>
<path opacity="0.6" d="M369.021 427.697H366.535V569.435H369.021V427.697Z" fill="#E6E6E6"/>
<path opacity="0.6" d="M373.868 427.697H371.382V569.435H373.868V427.697Z" fill="#E6E6E6"/>
<path opacity="0.6" d="M378.715 427.697H376.229V569.435H378.715V427.697Z" fill="#E6E6E6"/>
<path d="M407.675 427.697H405.189V569.435H407.675V427.697Z" fill="#E6E6E6"/>
<path d="M412.522 427.697H410.037V569.435H412.522V427.697Z" fill="#E6E6E6"/>
<path d="M421.969 427.697H419.483V569.435H421.969V427.697Z" fill="#E6E6E6"/>
<path d="M417.37 427.697H414.884V569.435H417.37V427.697Z" fill="#E6E6E6"/>
<path opacity="0.8" d="M383.811 569.435H400.963V427.697H383.811V569.435ZM386.546 430.181H398.229V566.95H386.546V430.181Z" fill="#E6E6E6"/>
<path opacity="0.8" d="M388.783 564.59H396.116V432.417H388.783V564.59ZM391.269 435.523H392.139H392.636H393.63V561.484H392.636H392.139H391.269V435.523Z" fill="#E6E6E6"/>
<path opacity="0.8" d="M392.636 435.523H392.139V561.484H392.636V435.523Z" fill="#E6E6E6"/>
<path d="M401.212 397.387H384.06V423.349H401.212V397.387Z" fill="#4D4D4D"/>
<path d="M401.212 397.387H384.06V423.349H401.212V397.387Z" fill="#4D4D4D"/>
<path d="M418.364 397.387H401.212V423.349H418.364V397.387Z" fill="#666666"/>
<path d="M384.06 397.387H366.908V423.349H384.06V397.387Z" fill="#333333"/>
<path d="M402.952 379.623H382.32L389.156 384.343H396.116L402.952 379.623Z" fill="#808080"/>
<path d="M771.724 370.058H761.781V399.25H771.724V370.058Z" fill="#4D4D4D"/>
<path d="M761.656 370.058H751.713V399.25H761.656V370.058Z" fill="#333333"/>
<path d="M781.667 370.058H771.724V399.25H781.667V370.058Z" fill="#666666"/>
<path d="M811 419.374H782.91V586.204H811V419.374Z" fill="#666666"/>
<path d="M749.849 419.374H725.488V586.204H749.849V419.374Z" fill="#333333"/>
<path d="M782.91 419.374H749.849V586.204H782.91V419.374Z" fill="#4D4D4D"/>
<path opacity="0.4" d="M732.448 424.343H728.844V583.969H732.448V424.343Z" fill="#E6E6E6"/>
<path opacity="0.4" d="M739.533 424.343H735.928V583.969H739.533V424.343Z" fill="#E6E6E6"/>
<path opacity="0.4" d="M746.617 424.343H743.013V583.969H746.617V424.343Z" fill="#E6E6E6"/>
<path d="M788.503 424.343H784.899V583.969H788.503V424.343Z" fill="#E6E6E6"/>
<path d="M795.588 424.343H791.983V583.969H795.588V424.343Z" fill="#E6E6E6"/>
<path d="M809.136 424.343H805.531V583.969H809.136V424.343Z" fill="#E6E6E6"/>
<path d="M802.548 424.343H798.944V583.969H802.548V424.343Z" fill="#E6E6E6"/>
<path d="M754.075 583.969H778.933V424.343H754.075V583.969ZM757.928 427.076H774.831V581.236H757.928V427.076Z" fill="#E6E6E6"/>
<path d="M761.035 578.627H771.724V429.685H761.035V578.627ZM764.764 433.163H766.131H766.752H768.12V575.149H766.752H766.131H764.764V433.163Z" fill="#E6E6E6"/>
<path d="M766.752 433.163H766.131V575.149H766.752V433.163Z" fill="#E6E6E6"/>
<path d="M779.181 390.182H754.323V419.374H779.181V390.182Z" fill="#4D4D4D"/>
<path d="M779.181 390.182H754.323V419.374H779.181V390.182Z" fill="#4D4D4D"/>
<path d="M804.04 390.182H779.181V419.374H804.04V390.182Z" fill="#666666"/>
<path d="M754.448 390.182H729.589V419.374H754.448V390.182Z" fill="#333333"/>
<path d="M781.792 370.058H751.713L761.781 375.399H771.724L781.792 370.058Z" fill="#808080"/>
<path d="M700.008 442.479H632.021V465.088H700.008V442.479Z" fill="#E6E6E6"/>
<path d="M658.743 442.479H632.021V465.088H658.743V442.479Z" fill="#B3B3B3"/>
<path d="M658.743 465.212H605.92V575.025H658.743V465.212Z" fill="#333333"/>
<path d="M741.273 465.212H658.743V575.025H741.273V465.212Z" fill="#4D4D4D"/>
<path d="M652.28 454.032H611.637V465.212H652.28V454.032Z" fill="#333333"/>
<path d="M728.968 454.032H670.924V465.212H728.968V454.032Z" fill="#4D4D4D"/>
<path d="M681.986 433.908H658.743V442.479H681.986V433.908Z" fill="#E6E6E6"/>
<path d="M670.302 425.213H658.743V433.784H670.302V425.213Z" fill="#4D4D4D"/>
<path d="M658.619 425.213H647.06V433.784H658.619V425.213Z" fill="#333333"/>
<path d="M658.743 433.908H640.97V442.479H658.743V433.908Z" fill="#B3B3B3"/>
<path d="M657.998 425.213L658.743 405.337L659.365 425.213H657.998Z" fill="#333333"/>
<path opacity="0.12" d="M622.575 469.684H618.224V474.032H622.575V469.684Z" fill="white"/>
<path opacity="0.25" d="M628.541 469.684H624.19V474.032H628.541V469.684Z" fill="white"/>
<path opacity="0.36" d="M634.506 469.684H630.156V474.032H634.506V469.684Z" fill="white"/>
<path opacity="0.12" d="M640.472 469.684H636.122V474.032H640.472V469.684Z" fill="white"/>
<path opacity="0.14" d="M646.438 469.684H642.088V474.032H646.438V469.684Z" fill="white"/>
<path opacity="0.28" d="M622.575 475.399H618.224V479.746H622.575V475.399Z" fill="white"/>
<path opacity="0.4" d="M628.541 475.399H624.19V479.746H628.541V475.399Z" fill="white"/>
<path opacity="0.16" d="M634.506 475.399H630.156V479.746H634.506V475.399Z" fill="white"/>
<path opacity="0.17" d="M646.438 475.399H642.088V479.746H646.438V475.399Z" fill="white"/>
<path opacity="0.27" d="M622.575 481.113H618.224V485.461H622.575V481.113Z" fill="white"/>
<path opacity="0.45" d="M628.541 481.113H624.19V485.461H628.541V481.113Z" fill="white"/>
<path opacity="0.45" d="M634.506 481.113H630.156V485.461H634.506V481.113Z" fill="white"/>
<path opacity="0.48" d="M640.472 481.113H636.122V485.461H640.472V481.113Z" fill="white"/>
<path opacity="0.25" d="M646.438 481.113H642.088V485.461H646.438V481.113Z" fill="white"/>
<path opacity="0.28" d="M622.575 486.827H618.224V491.175H622.575V486.827Z" fill="white"/>
<path opacity="0.13" d="M628.541 486.827H624.19V491.175H628.541V486.827Z" fill="white"/>
<path opacity="0.07" d="M634.506 486.827H630.156V491.175H634.506V486.827Z" fill="white"/>
<path opacity="0.39" d="M640.472 486.827H636.122V491.175H640.472V486.827Z" fill="white"/>
<path opacity="0.47" d="M646.438 486.827H642.088V491.175H646.438V486.827Z" fill="white"/>
<path opacity="0.28" d="M622.575 492.541H618.224V496.889H622.575V492.541Z" fill="white"/>
<path opacity="0.2" d="M628.541 492.541H624.19V496.889H628.541V492.541Z" fill="white"/>
<path opacity="0.04" d="M634.506 492.541H630.156V496.889H634.506V492.541Z" fill="white"/>
<path opacity="0.43" d="M640.472 492.541H636.122V496.889H640.472V492.541Z" fill="white"/>
<path opacity="0.48" d="M646.438 492.541H642.088V496.889H646.438V492.541Z" fill="white"/>
<path opacity="0.28" d="M622.575 498.255H618.224V502.603H622.575V498.255Z" fill="white"/>
<path opacity="0.19" d="M628.541 498.255H624.19V502.603H628.541V498.255Z" fill="white"/>
<path opacity="0.01" d="M634.506 498.255H630.156V502.603H634.506V498.255Z" fill="white"/>
<path opacity="0.27" d="M640.472 498.255H636.122V502.603H640.472V498.255Z" fill="white"/>
<path opacity="0.24" d="M646.438 498.255H642.088V502.603H646.438V498.255Z" fill="white"/>
<path opacity="0.07" d="M622.575 504.094H618.224V508.442H622.575V504.094Z" fill="white"/>
<path opacity="0.25" d="M628.541 504.094H624.19V508.442H628.541V504.094Z" fill="white"/>
<path opacity="0.26" d="M634.506 504.094H630.156V508.442H634.506V504.094Z" fill="white"/>
<path opacity="0.39" d="M640.472 504.094H636.122V508.442H640.472V504.094Z" fill="white"/>
<path opacity="0.22" d="M646.438 504.094H642.088V508.442H646.438V504.094Z" fill="white"/>
<path opacity="0.15" d="M622.575 509.808H618.224V514.156H622.575V509.808Z" fill="white"/>
<path opacity="0.23" d="M628.541 509.808H624.19V514.156H628.541V509.808Z" fill="white"/>
<path opacity="0.05" d="M634.506 509.808H630.156V514.156H634.506V509.808Z" fill="white"/>
<path opacity="0.2" d="M640.472 509.808H636.122V514.156H640.472V509.808Z" fill="white"/>
<path opacity="0.31" d="M646.438 509.808H642.088V514.156H646.438V509.808Z" fill="white"/>
<path opacity="0.15" d="M622.575 515.522H618.224V519.87H622.575V515.522Z" fill="white"/>
<path opacity="0.33" d="M628.541 515.522H624.19V519.87H628.541V515.522Z" fill="white"/>
<path opacity="0.46" d="M634.506 515.522H630.156V519.87H634.506V515.522Z" fill="white"/>
<path opacity="0.25" d="M640.472 515.522H636.122V519.87H640.472V515.522Z" fill="white"/>
<path opacity="0.43" d="M646.438 515.522H642.088V519.87H646.438V515.522Z" fill="white"/>
<path opacity="0.4" d="M622.575 521.237H618.224V525.584H622.575V521.237Z" fill="white"/>
<path opacity="0.39" d="M628.541 521.237H624.19V525.584H628.541V521.237Z" fill="white"/>
<path opacity="0.01" d="M634.506 521.237H630.156V525.584H634.506V521.237Z" fill="white"/>
<path opacity="0.12" d="M640.472 521.237H636.122V525.584H640.472V521.237Z" fill="white"/>
<path opacity="0.07" d="M646.438 521.237H642.088V525.584H646.438V521.237Z" fill="white"/>
<path opacity="0.07" d="M622.575 526.951H618.224V531.299H622.575V526.951Z" fill="white"/>
<path opacity="0.02" d="M628.541 526.951H624.19V531.299H628.541V526.951Z" fill="white"/>
<path opacity="0.12" d="M634.506 526.951H630.156V531.299H634.506V526.951Z" fill="white"/>
<path opacity="0.23" d="M640.472 526.951H636.122V531.299H640.472V526.951Z" fill="white"/>
<path opacity="0.26" d="M646.438 526.951H642.088V531.299H646.438V526.951Z" fill="white"/>
<path opacity="0.27" d="M622.575 532.665H618.224V537.013H622.575V532.665Z" fill="white"/>
<path opacity="0.38" d="M628.541 532.665H624.19V537.013H628.541V532.665Z" fill="white"/>
<path opacity="0.05" d="M634.506 532.665H630.156V537.013H634.506V532.665Z" fill="white"/>
<path opacity="0.45" d="M640.472 532.665H636.122V537.013H640.472V532.665Z" fill="white"/>
<path opacity="0.15" d="M646.438 532.665H642.088V537.013H646.438V532.665Z" fill="white"/>
<path opacity="0.06" d="M622.575 538.379H618.224V542.727H622.575V538.379Z" fill="white"/>
<path opacity="0.47" d="M628.541 538.379H624.19V542.727H628.541V538.379Z" fill="white"/>
<path opacity="0.15" d="M634.506 538.379H630.156V542.727H634.506V538.379Z" fill="white"/>
<path opacity="0.44" d="M640.472 538.379H636.122V542.727H640.472V538.379Z" fill="white"/>
<path opacity="0.14" d="M646.438 538.379H642.088V542.727H646.438V538.379Z" fill="white"/>
<path opacity="0.15" d="M622.575 544.094H618.224V548.441H622.575V544.094Z" fill="white"/>
<path opacity="0.43" d="M628.541 544.094H624.19V548.441H628.541V544.094Z" fill="white"/>
<path opacity="0.07" d="M634.506 544.094H630.156V548.441H634.506V544.094Z" fill="white"/>
<path opacity="0.47" d="M640.472 544.094H636.122V548.441H640.472V544.094Z" fill="white"/>
<path opacity="0.11" d="M646.438 544.094H642.088V548.441H646.438V544.094Z" fill="white"/>
<path opacity="0.07" d="M622.575 549.808H618.224V554.155H622.575V549.808Z" fill="white"/>
<path opacity="0.34" d="M628.541 549.808H624.19V554.155H628.541V549.808Z" fill="white"/>
<path opacity="0.5" d="M634.506 549.808H630.156V554.155H634.506V549.808Z" fill="white"/>
<path opacity="0.36" d="M640.472 549.808H636.122V554.155H640.472V549.808Z" fill="white"/>
<path opacity="0.34" d="M646.438 549.808H642.088V554.155H646.438V549.808Z" fill="white"/>
<path opacity="0.47" d="M622.575 555.522H618.224V559.87H622.575V555.522Z" fill="white"/>
<path opacity="0.41" d="M628.541 555.522H624.19V559.87H628.541V555.522Z" fill="white"/>
<path opacity="0.3" d="M634.506 555.522H630.156V559.87H634.506V555.522Z" fill="white"/>
<path opacity="0.33" d="M640.472 555.522H636.122V559.87H640.472V555.522Z" fill="white"/>
<path opacity="0.12" d="M646.438 555.522H642.088V559.87H646.438V555.522Z" fill="white"/>
<path opacity="0.3" d="M673.161 469.684H668.811V474.032H673.161V469.684Z" fill="white"/>
<path opacity="0.72" d="M678.878 469.684H674.528V474.032H678.878V469.684Z" fill="white"/>
<path opacity="0.7" d="M684.72 469.684H680.37V474.032H684.72V469.684Z" fill="white"/>
<path opacity="0.52" d="M690.562 469.684H686.212V474.032H690.562V469.684Z" fill="white"/>
<path opacity="0.2" d="M696.404 469.684H692.053V474.032H696.404V469.684Z" fill="white"/>
<path opacity="0.32" d="M702.121 469.684H697.771V474.032H702.121V469.684Z" fill="white"/>
<path opacity="0.13" d="M707.963 469.684H703.612V474.032H707.963V469.684Z" fill="white"/>
<path opacity="0.38" d="M713.804 469.684H709.454V474.032H713.804V469.684Z" fill="white"/>
<path opacity="0.61" d="M719.522 469.684H715.172V474.032H719.522V469.684Z" fill="white"/>
<path d="M725.363 469.684H721.013V474.032H725.363V469.684Z" fill="white"/>
<path opacity="0.91" d="M731.205 469.684H726.855V474.032H731.205V469.684Z" fill="white"/>
<path opacity="0.66" d="M673.161 475.399H668.811V479.746H673.161V475.399Z" fill="white"/>
<path opacity="0.31" d="M678.878 475.399H674.528V479.746H678.878V475.399Z" fill="white"/>
<path opacity="0.95" d="M684.72 475.399H680.37V479.746H684.72V475.399Z" fill="white"/>
<path opacity="0.7" d="M690.562 475.399H686.212V479.746H690.562V475.399Z" fill="white"/>
<path opacity="0.12" d="M696.404 475.399H692.053V479.746H696.404V475.399Z" fill="white"/>
<path opacity="0.24" d="M702.121 475.399H697.771V479.746H702.121V475.399Z" fill="white"/>
<path opacity="0.66" d="M707.963 475.399H703.612V479.746H707.963V475.399Z" fill="white"/>
<path opacity="0.71" d="M713.804 475.399H709.454V479.746H713.804V475.399Z" fill="white"/>
<path opacity="0.42" d="M719.522 475.399H715.172V479.746H719.522V475.399Z" fill="white"/>
<path opacity="0.09" d="M725.363 475.399H721.013V479.746H725.363V475.399Z" fill="white"/>
<path opacity="0.32" d="M731.205 475.399H726.855V479.746H731.205V475.399Z" fill="white"/>
<path opacity="0.65" d="M673.161 481.113H668.811V485.461H673.161V481.113Z" fill="white"/>
<path d="M678.878 481.113H674.528V485.461H678.878V481.113Z" fill="white"/>
<path d="M684.72 481.113H680.37V485.461H684.72V481.113Z" fill="white"/>
<path opacity="0.71" d="M690.562 481.113H686.212V485.461H690.562V481.113Z" fill="white"/>
<path opacity="0.2" d="M696.404 481.113H692.053V485.461H696.404V481.113Z" fill="white"/>
<path opacity="0.19" d="M702.121 481.113H697.771V485.461H702.121V481.113Z" fill="white"/>
<path opacity="0.62" d="M707.963 481.113H703.612V485.461H707.963V481.113Z" fill="white"/>
<path opacity="0.93" d="M713.804 481.113H709.454V485.461H713.804V481.113Z" fill="white"/>
<path opacity="0.56" d="M719.522 481.113H715.172V485.461H719.522V481.113Z" fill="white"/>
<path opacity="0.57" d="M725.363 481.113H721.013V485.461H725.363V481.113Z" fill="white"/>
<path opacity="0.52" d="M731.205 481.113H726.855V485.461H731.205V481.113Z" fill="white"/>
<path opacity="0.74" d="M673.161 486.827H668.811V491.175H673.161V486.827Z" fill="white"/>
<path opacity="0.56" d="M678.878 486.827H674.528V491.175H678.878V486.827Z" fill="white"/>
<path opacity="0.78" d="M684.72 486.827H680.37V491.175H684.72V486.827Z" fill="white"/>
<path opacity="0.41" d="M690.562 486.827H686.212V491.175H690.562V486.827Z" fill="white"/>
<path opacity="0.14" d="M696.404 486.827H692.053V491.175H696.404V486.827Z" fill="white"/>
<path opacity="0.28" d="M702.121 486.827H697.771V491.175H702.121V486.827Z" fill="white"/>
<path opacity="0.36" d="M707.963 486.827H703.612V491.175H707.963V486.827Z" fill="white"/>
<path opacity="0.14" d="M713.804 486.827H709.454V491.175H713.804V486.827Z" fill="white"/>
<path opacity="0.5" d="M719.522 486.827H715.172V491.175H719.522V486.827Z" fill="white"/>
<path opacity="0.98" d="M725.363 486.827H721.013V491.175H725.363V486.827Z" fill="white"/>
<path opacity="0.59" d="M731.205 486.827H726.855V491.175H731.205V486.827Z" fill="white"/>
<path opacity="0.07" d="M673.161 492.541H668.811V496.889H673.161V492.541Z" fill="white"/>
<path opacity="0.1" d="M678.878 492.541H674.528V496.889H678.878V492.541Z" fill="white"/>
<path opacity="0.88" d="M684.72 492.541H680.37V496.889H684.72V492.541Z" fill="white"/>
<path opacity="0.68" d="M690.562 492.541H686.212V496.889H690.562V492.541Z" fill="white"/>
<path opacity="0.81" d="M696.404 492.541H692.053V496.889H696.404V492.541Z" fill="white"/>
<path opacity="0.62" d="M702.121 492.541H697.771V496.889H702.121V492.541Z" fill="white"/>
<path opacity="0.97" d="M707.963 492.541H703.612V496.889H707.963V492.541Z" fill="white"/>
<path opacity="0.81" d="M713.804 492.541H709.454V496.889H713.804V492.541Z" fill="white"/>
<path opacity="0.79" d="M719.522 492.541H715.172V496.889H719.522V492.541Z" fill="white"/>
<path opacity="0.03" d="M725.363 492.541H721.013V496.889H725.363V492.541Z" fill="white"/>
<path opacity="0.95" d="M731.205 492.541H726.855V496.889H731.205V492.541Z" fill="white"/>
<path opacity="0.62" d="M673.161 498.255H668.811V502.603H673.161V498.255Z" fill="white"/>
<path opacity="0.22" d="M678.878 498.255H674.528V502.603H678.878V498.255Z" fill="white"/>
<path opacity="0.42" d="M684.72 498.255H680.37V502.603H684.72V498.255Z" fill="white"/>
<path opacity="0.56" d="M690.562 498.255H686.212V502.603H690.562V498.255Z" fill="white"/>
<path opacity="0.03" d="M696.404 498.255H692.053V502.603H696.404V498.255Z" fill="white"/>
<path opacity="0.64" d="M702.121 498.255H697.771V502.603H702.121V498.255Z" fill="white"/>
<path opacity="0.82" d="M707.963 498.255H703.612V502.603H707.963V498.255Z" fill="white"/>
<path opacity="0.52" d="M713.804 498.255H709.454V502.603H713.804V498.255Z" fill="white"/>
<path opacity="0.46" d="M719.522 498.255H715.172V502.603H719.522V498.255Z" fill="white"/>
<path opacity="0.27" d="M725.363 498.255H721.013V502.603H725.363V498.255Z" fill="white"/>
<path opacity="0.46" d="M731.205 498.255H726.855V502.603H731.205V498.255Z" fill="white"/>
<path opacity="0.66" d="M673.161 504.094H668.811V508.442H673.161V504.094Z" fill="white"/>
<path opacity="0.7" d="M678.878 504.094H674.528V508.442H678.878V504.094Z" fill="white"/>
<path opacity="0.94" d="M684.72 504.094H680.37V508.442H684.72V504.094Z" fill="white"/>
<path opacity="0.5" d="M690.562 504.094H686.212V508.442H690.562V504.094Z" fill="white"/>
<path opacity="0.12" d="M696.404 504.094H692.053V508.442H696.404V504.094Z" fill="white"/>
<path opacity="0.36" d="M702.121 504.094H697.771V508.442H702.121V504.094Z" fill="white"/>
<path opacity="0.51" d="M707.963 504.094H703.612V508.442H707.963V504.094Z" fill="white"/>
<path opacity="0.37" d="M713.804 504.094H709.454V508.442H713.804V504.094Z" fill="white"/>
<path opacity="0.66" d="M719.522 504.094H715.172V508.442H719.522V504.094Z" fill="white"/>
<path opacity="0.42" d="M725.363 504.094H721.013V508.442H725.363V504.094Z" fill="white"/>
<path opacity="0.5" d="M731.205 504.094H726.855V508.442H731.205V504.094Z" fill="white"/>
<path opacity="0.52" d="M673.161 509.808H668.811V514.156H673.161V509.808Z" fill="white"/>
<path opacity="0.61" d="M678.878 509.808H674.528V514.156H678.878V509.808Z" fill="white"/>
<path opacity="0.84" d="M684.72 509.808H680.37V514.156H684.72V509.808Z" fill="white"/>
<path opacity="0.89" d="M690.562 509.808H686.212V514.156H690.562V509.808Z" fill="white"/>
<path opacity="0.33" d="M696.404 509.808H692.053V514.156H696.404V509.808Z" fill="white"/>
<path opacity="0.25" d="M702.121 509.808H697.771V514.156H702.121V509.808Z" fill="white"/>
<path opacity="0.95" d="M707.963 509.808H703.612V514.156H707.963V509.808Z" fill="white"/>
<path opacity="0.09" d="M713.804 509.808H709.454V514.156H713.804V509.808Z" fill="white"/>
<path opacity="0.44" d="M719.522 509.808H715.172V514.156H719.522V509.808Z" fill="white"/>
<path opacity="0.51" d="M725.363 509.808H721.013V514.156H725.363V509.808Z" fill="white"/>
<path opacity="0.97" d="M731.205 509.808H726.855V514.156H731.205V509.808Z" fill="white"/>
<path opacity="0.26" d="M673.161 515.522H668.811V519.87H673.161V515.522Z" fill="white"/>
<path opacity="0.92" d="M678.878 515.522H674.528V519.87H678.878V515.522Z" fill="white"/>
<path opacity="0.33" d="M684.72 515.522H680.37V519.87H684.72V515.522Z" fill="white"/>
<path opacity="0.23" d="M690.562 515.522H686.212V519.87H690.562V515.522Z" fill="white"/>
<path opacity="0.42" d="M696.404 515.522H692.053V519.87H696.404V515.522Z" fill="white"/>
<path opacity="0.57" d="M702.121 515.522H697.771V519.87H702.121V515.522Z" fill="white"/>
<path opacity="0.73" d="M707.963 515.522H703.612V519.87H707.963V515.522Z" fill="white"/>
<path opacity="0.87" d="M713.804 515.522H709.454V519.87H713.804V515.522Z" fill="white"/>
<path opacity="0.22" d="M719.522 515.522H715.172V519.87H719.522V515.522Z" fill="white"/>
<path opacity="0.89" d="M725.363 515.522H721.013V519.87H725.363V515.522Z" fill="white"/>
<path opacity="0.73" d="M731.205 515.522H726.855V519.87H731.205V515.522Z" fill="white"/>
<path opacity="0.35" d="M673.161 521.237H668.811V525.584H673.161V521.237Z" fill="white"/>
<path opacity="0.81" d="M678.878 521.237H674.528V525.584H678.878V521.237Z" fill="white"/>
<path opacity="0.56" d="M684.72 521.237H680.37V525.584H684.72V521.237Z" fill="white"/>
<path opacity="0.81" d="M690.562 521.237H686.212V525.584H690.562V521.237Z" fill="white"/>
<path opacity="0.87" d="M696.404 521.237H692.053V525.584H696.404V521.237Z" fill="white"/>
<path opacity="0.39" d="M702.121 521.237H697.771V525.584H702.121V521.237Z" fill="white"/>
<path opacity="0.31" d="M707.963 521.237H703.612V525.584H707.963V521.237Z" fill="white"/>
<path opacity="0.98" d="M713.804 521.237H709.454V525.584H713.804V521.237Z" fill="white"/>
<path opacity="0.17" d="M719.522 521.237H715.172V525.584H719.522V521.237Z" fill="white"/>
<path opacity="0.06" d="M725.363 521.237H721.013V525.584H725.363V521.237Z" fill="white"/>
<path opacity="0.57" d="M731.205 521.237H726.855V525.584H731.205V521.237Z" fill="white"/>
<path opacity="0.67" d="M673.161 526.951H668.811V531.299H673.161V526.951Z" fill="white"/>
<path opacity="0.83" d="M678.878 526.951H674.528V531.299H678.878V526.951Z" fill="white"/>
<path opacity="0.99" d="M684.72 526.951H680.37V531.299H684.72V526.951Z" fill="white"/>
<path opacity="0.62" d="M690.562 526.951H686.212V531.299H690.562V526.951Z" fill="white"/>
<path opacity="0.87" d="M696.404 526.951H692.053V531.299H696.404V526.951Z" fill="white"/>
<path opacity="0.14" d="M702.121 526.951H697.771V531.299H702.121V526.951Z" fill="white"/>
<path opacity="0.12" d="M707.963 526.951H703.612V531.299H707.963V526.951Z" fill="white"/>
<path opacity="0.11" d="M713.804 526.951H709.454V531.299H713.804V526.951Z" fill="white"/>
<path opacity="0.39" d="M719.522 526.951H715.172V531.299H719.522V526.951Z" fill="white"/>
<path opacity="0.58" d="M725.363 526.951H721.013V531.299H725.363V526.951Z" fill="white"/>
<path opacity="0.54" d="M731.205 526.951H726.855V531.299H731.205V526.951Z" fill="white"/>
<path opacity="0.99" d="M673.161 532.665H668.811V537.013H673.161V532.665Z" fill="white"/>
<path opacity="0.28" d="M678.878 532.665H674.528V537.013H678.878V532.665Z" fill="white"/>
<path opacity="0.78" d="M684.72 532.665H680.37V537.013H684.72V532.665Z" fill="white"/>
<path opacity="0.65" d="M690.562 532.665H686.212V537.013H690.562V532.665Z" fill="white"/>
<path opacity="0.32" d="M696.404 532.665H692.053V537.013H696.404V532.665Z" fill="white"/>
<path opacity="0.55" d="M702.121 532.665H697.771V537.013H702.121V532.665Z" fill="white"/>
<path opacity="0.4" d="M707.963 532.665H703.612V537.013H707.963V532.665Z" fill="white"/>
<path opacity="0.22" d="M713.804 532.665H709.454V537.013H713.804V532.665Z" fill="white"/>
<path opacity="0.87" d="M719.522 532.665H715.172V537.013H719.522V532.665Z" fill="white"/>
<path opacity="0.02" d="M725.363 532.665H721.013V537.013H725.363V532.665Z" fill="white"/>
<path opacity="0.39" d="M731.205 532.665H726.855V537.013H731.205V532.665Z" fill="white"/>
<path opacity="0.89" d="M673.161 538.379H668.811V542.727H673.161V538.379Z" fill="white"/>
<path opacity="0.97" d="M678.878 538.379H674.528V542.727H678.878V538.379Z" fill="white"/>
<path opacity="0.79" d="M684.72 538.379H680.37V542.727H684.72V538.379Z" fill="white"/>
<path opacity="0.41" d="M690.562 538.379H686.212V542.727H690.562V538.379Z" fill="white"/>
<path opacity="0.13" d="M696.404 538.379H692.053V542.727H696.404V538.379Z" fill="white"/>
<path opacity="0.9" d="M702.121 538.379H697.771V542.727H702.121V538.379Z" fill="white"/>
<path opacity="0.98" d="M707.963 538.379H703.612V542.727H707.963V538.379Z" fill="white"/>
<path opacity="0.67" d="M713.804 538.379H709.454V542.727H713.804V538.379Z" fill="white"/>
<path opacity="0.65" d="M719.522 538.379H715.172V542.727H719.522V538.379Z" fill="white"/>
<path opacity="0.89" d="M725.363 538.379H721.013V542.727H725.363V538.379Z" fill="white"/>
<path opacity="0.98" d="M731.205 538.379H726.855V542.727H731.205V538.379Z" fill="white"/>
<path opacity="0.29" d="M673.161 544.094H668.811V548.441H673.161V544.094Z" fill="white"/>
<path opacity="0.74" d="M678.878 544.094H674.528V548.441H678.878V544.094Z" fill="white"/>
<path opacity="0.64" d="M684.72 544.094H680.37V548.441H684.72V544.094Z" fill="white"/>
<path opacity="0.65" d="M690.562 544.094H686.212V548.441H690.562V544.094Z" fill="white"/>
<path opacity="0.07" d="M696.404 544.094H692.053V548.441H696.404V544.094Z" fill="white"/>
<path opacity="0.16" d="M702.121 544.094H697.771V548.441H702.121V544.094Z" fill="white"/>
<path opacity="0.84" d="M707.963 544.094H703.612V548.441H707.963V544.094Z" fill="white"/>
<path opacity="0.88" d="M713.804 544.094H709.454V548.441H713.804V544.094Z" fill="white"/>
<path opacity="0.57" d="M719.522 544.094H715.172V548.441H719.522V544.094Z" fill="white"/>
<path opacity="0.31" d="M725.363 544.094H721.013V548.441H725.363V544.094Z" fill="white"/>
<path opacity="0.03" d="M731.205 544.094H726.855V548.441H731.205V544.094Z" fill="white"/>
<path opacity="0.3" d="M673.161 549.808H668.811V554.155H673.161V549.808Z" fill="white"/>
<path opacity="0.59" d="M678.878 549.808H674.528V554.155H678.878V549.808Z" fill="white"/>
<path opacity="0.93" d="M684.72 549.808H680.37V554.155H684.72V549.808Z" fill="white"/>
<path opacity="0.06" d="M690.562 549.808H686.212V554.155H690.562V549.808Z" fill="white"/>
<path opacity="0.74" d="M696.404 549.808H692.053V554.155H696.404V549.808Z" fill="white"/>
<path opacity="0.22" d="M702.121 549.808H697.771V554.155H702.121V549.808Z" fill="white"/>
<path opacity="0.51" d="M707.963 549.808H703.612V554.155H707.963V549.808Z" fill="white"/>
<path opacity="0.7" d="M713.804 549.808H709.454V554.155H713.804V549.808Z" fill="white"/>
<path opacity="0.47" d="M719.522 549.808H715.172V554.155H719.522V549.808Z" fill="white"/>
<path opacity="0.08" d="M725.363 549.808H721.013V554.155H725.363V549.808Z" fill="white"/>
<path opacity="0.93" d="M731.205 549.808H726.855V554.155H731.205V549.808Z" fill="white"/>
<path opacity="0.81" d="M673.161 555.522H668.811V559.87H673.161V555.522Z" fill="white"/>
<path opacity="0.9" d="M678.878 555.522H674.528V559.87H678.878V555.522Z" fill="white"/>
<path opacity="0.55" d="M684.72 555.522H680.37V559.87H684.72V555.522Z" fill="white"/>
<path opacity="0.14" d="M690.562 555.522H686.212V559.87H690.562V555.522Z" fill="white"/>
<path opacity="0.66" d="M696.404 555.522H692.053V559.87H696.404V555.522Z" fill="white"/>
<path opacity="0.92" d="M702.121 555.522H697.771V559.87H702.121V555.522Z" fill="white"/>
<path opacity="0.4" d="M707.963 555.522H703.612V559.87H707.963V555.522Z" fill="white"/>
<path opacity="0.6" d="M713.804 555.522H709.454V559.87H713.804V555.522Z" fill="white"/>
<path opacity="0.99" d="M719.522 555.522H715.172V559.87H719.522V555.522Z" fill="white"/>
<path opacity="0.68" d="M725.363 555.522H721.013V559.87H725.363V555.522Z" fill="white"/>
<path opacity="0.01" d="M731.205 555.522H726.855V559.87H731.205V555.522Z" fill="white"/>
<path d="M599.705 441.734H558.689V570.18H599.705V441.734Z" fill="#333333"/>
<path d="M577.333 435.274H558.689V442.479H577.333V435.274Z" fill="#333333"/>
<path d="M569.502 431.051H558.689V435.275H569.502V431.051Z" fill="#333333"/>
<path opacity="0.25" d="M582.429 450.802H575.717V457.51H582.429V450.802Z" fill="white"/>
<path opacity="0.15" d="M582.429 467.324H575.717V474.032H582.429V467.324Z" fill="white"/>
<path opacity="0.19" d="M582.429 500.243H575.717V506.951H582.429V500.243Z" fill="white"/>
<path opacity="0.17" d="M582.429 516.64H575.717V523.348H582.429V516.64Z" fill="white"/>
<path opacity="0.22" d="M582.429 533.037H575.717V539.745H582.429V533.037Z" fill="white"/>
<path d="M582.429 549.559H575.717V556.267H582.429V549.559Z" fill="white"/>
<path d="M569.254 513.286H530.848V524.591H569.254V513.286Z" fill="#333333"/>
<path d="M588.394 513.286H569.254V524.591H588.394V513.286Z" fill="#4D4D4D"/>
<path d="M530.848 513.286L542.78 507.572L569.254 513.286H530.848Z" fill="#333333"/>
<path d="M542.78 507.572L569.254 513.286H588.394L542.78 507.572Z" fill="#4D4D4D"/>
<path d="M578.203 521.236H522.023V572.664H578.203V521.236Z" fill="#333333"/>
<path d="M596.846 521.236H578.203V572.664H596.846V521.236Z" fill="#4D4D4D"/>
<path opacity="0.81" d="M592.496 524.839H582.429V528.565H592.496V524.839Z" fill="white"/>
<path opacity="0.76" d="M592.496 531.671H582.429V535.398H592.496V531.671Z" fill="white"/>
<path opacity="0.32" d="M592.496 538.503H582.429V542.23H592.496V538.503Z" fill="white"/>
<path opacity="0.49" d="M592.496 545.46H582.429V549.186H592.496V545.46Z" fill="white"/>
<path opacity="0.1" d="M541.04 524.839H530.972V528.565H541.04V524.839Z" fill="white"/>
<path opacity="0.04" d="M555.084 524.839H545.017V528.565H555.084V524.839Z" fill="white"/>
<path opacity="0.07" d="M569.254 524.839H559.186V528.565H569.254V524.839Z" fill="white"/>
<path opacity="0.06" d="M541.04 531.671H530.972V535.398H541.04V531.671Z" fill="white"/>
<path opacity="0.44" d="M555.084 531.671H545.017V535.398H555.084V531.671Z" fill="white"/>
<path opacity="0.24" d="M569.254 531.671H559.186V535.398H569.254V531.671Z" fill="white"/>
<path opacity="0.55" d="M541.04 538.503H530.972V542.23H541.04V538.503Z" fill="white"/>
<path opacity="0.02" d="M555.084 538.503H545.017V542.23H555.084V538.503Z" fill="white"/>
<path opacity="0.14" d="M569.254 538.503H559.186V542.23H569.254V538.503Z" fill="white"/>
<path opacity="0.43" d="M541.04 545.46H530.972V549.186H541.04V545.46Z" fill="white"/>
<path opacity="0.41" d="M555.084 545.46H545.017V549.186H555.084V545.46Z" fill="white"/>
<path opacity="0.46" d="M569.254 545.46H559.186V549.186H569.254V545.46Z" fill="white"/>
<path opacity="0.45" d="M541.04 552.292H530.972V556.019H541.04V552.292Z" fill="white"/>
<path opacity="0.33" d="M555.084 552.292H545.017V556.019H555.084V552.292Z" fill="white"/>
<path opacity="0.05" d="M569.254 552.292H559.186V556.019H569.254V552.292Z" fill="white"/>
<path d="M304.886 469.808H270.085V577.012H304.886V469.808Z" fill="#333333"/>
<path d="M344.535 469.808H305.011V577.012H344.535V469.808Z" fill="#4D4D4D"/>
<path d="M304.886 478.877H270.085V480.74H304.886V478.877Z" fill="#4D4D4D"/>
<path d="M344.535 478.877H305.011V480.74H344.535V478.877Z" fill="#333333"/>
<path opacity="0.47" d="M276.672 482.852H272.943V486.578H276.672V482.852Z" fill="white"/>
<path opacity="0.26" d="M281.768 482.852H278.039V486.578H281.768V482.852Z" fill="white"/>
<path opacity="0.32" d="M286.864 482.852H283.135V486.578H286.864V482.852Z" fill="white"/>
<path opacity="0.25" d="M291.96 482.852H288.231V486.578H291.96V482.852Z" fill="white"/>
<path opacity="0.12" d="M302.152 482.852H298.423V486.578H302.152V482.852Z" fill="white"/>
<path opacity="0.32" d="M276.672 487.945H272.943V491.671H276.672V487.945Z" fill="white"/>
<path opacity="0.22" d="M286.864 487.945H283.135V491.671H286.864V487.945Z" fill="white"/>
<path opacity="0.47" d="M291.96 487.945H288.231V491.671H291.96V487.945Z" fill="white"/>
<path opacity="0.22" d="M297.056 487.945H293.327V491.671H297.056V487.945Z" fill="white"/>
<path opacity="0.32" d="M302.152 487.945H298.423V491.671H302.152V487.945Z" fill="white"/>
<path opacity="0.37" d="M276.672 493.038H272.943V496.765H276.672V493.038Z" fill="white"/>
<path opacity="0.34" d="M281.768 493.038H278.039V496.765H281.768V493.038Z" fill="white"/>
<path opacity="0.18" d="M286.864 493.038H283.135V496.765H286.864V493.038Z" fill="white"/>
<path opacity="0.28" d="M291.96 493.038H288.231V496.765H291.96V493.038Z" fill="white"/>
<path opacity="0.2" d="M302.152 493.038H298.423V496.765H302.152V493.038Z" fill="white"/>
<path opacity="0.18" d="M276.672 498.131H272.943V501.858H276.672V498.131Z" fill="white"/>
<path opacity="0.33" d="M286.864 498.131H283.135V501.858H286.864V498.131Z" fill="white"/>
<path opacity="0.05" d="M291.96 498.131H288.231V501.858H291.96V498.131Z" fill="white"/>
<path opacity="0.08" d="M297.056 498.131H293.327V501.858H297.056V498.131Z" fill="white"/>
<path opacity="0.08" d="M291.96 503.224H288.231V506.951H291.96V503.224Z" fill="white"/>
<path opacity="0.02" d="M297.056 503.224H293.327V506.951H297.056V503.224Z" fill="white"/>
<path opacity="0.03" d="M276.672 508.317H272.943V512.044H276.672V508.317Z" fill="white"/>
<path opacity="0.46" d="M281.768 508.317H278.039V512.044H281.768V508.317Z" fill="white"/>
<path opacity="0.05" d="M286.864 508.317H283.135V512.044H286.864V508.317Z" fill="white"/>
<path opacity="0.2" d="M291.96 508.317H288.231V512.044H291.96V508.317Z" fill="white"/>
<path opacity="0.23" d="M297.056 508.317H293.327V512.044H297.056V508.317Z" fill="white"/>
<path opacity="0.17" d="M276.672 513.41H272.943V517.137H276.672V513.41Z" fill="white"/>
<path opacity="0.08" d="M281.768 513.41H278.039V517.137H281.768V513.41Z" fill="white"/>
<path opacity="0.14" d="M286.864 513.41H283.135V517.137H286.864V513.41Z" fill="white"/>
<path opacity="0.24" d="M297.056 513.41H293.327V517.137H297.056V513.41Z" fill="white"/>
<path opacity="0.28" d="M276.672 518.503H272.943V522.23H276.672V518.503Z" fill="white"/>
<path opacity="0.3" d="M281.768 518.503H278.039V522.23H281.768V518.503Z" fill="white"/>
<path opacity="0.23" d="M286.864 518.503H283.135V522.23H286.864V518.503Z" fill="white"/>
<path opacity="0.02" d="M291.96 518.503H288.231V522.23H291.96V518.503Z" fill="white"/>
<path opacity="0.04" d="M297.056 518.503H293.327V522.23H297.056V518.503Z" fill="white"/>
<path opacity="0.3" d="M302.152 518.503H298.423V522.23H302.152V518.503Z" fill="white"/>
<path opacity="0.08" d="M281.768 523.472H278.039V527.199H281.768V523.472Z" fill="white"/>
<path opacity="0.4" d="M302.152 523.472H298.423V527.199H302.152V523.472Z" fill="white"/>
<path opacity="0.31" d="M276.672 528.565H272.943V532.292H276.672V528.565Z" fill="white"/>
<path opacity="0.31" d="M281.768 528.565H278.039V532.292H281.768V528.565Z" fill="white"/>
<path opacity="0.12" d="M286.864 528.565H283.135V532.292H286.864V528.565Z" fill="white"/>
<path opacity="0.19" d="M297.056 528.565H293.327V532.292H297.056V528.565Z" fill="white"/>
<path opacity="0.43" d="M302.152 528.565H298.423V532.292H302.152V528.565Z" fill="white"/>
<path opacity="0.12" d="M276.672 533.659H272.943V537.385H276.672V533.659Z" fill="white"/>
<path opacity="0.42" d="M291.96 533.659H288.231V537.385H291.96V533.659Z" fill="white"/>
<path opacity="0.31" d="M302.152 533.659H298.423V537.385H302.152V533.659Z" fill="white"/>
<path opacity="0.23" d="M276.672 538.752H272.943V542.478H276.672V538.752Z" fill="white"/>
<path opacity="0.31" d="M291.96 538.752H288.231V542.478H291.96V538.752Z" fill="white"/>
<path opacity="0.33" d="M302.152 538.752H298.423V542.478H302.152V538.752Z" fill="white"/>
<path opacity="0.49" d="M276.672 543.845H272.943V547.572H276.672V543.845Z" fill="white"/>
<path opacity="0.06" d="M281.768 543.845H278.039V547.572H281.768V543.845Z" fill="white"/>
<path opacity="0.17" d="M291.96 543.845H288.231V547.572H291.96V543.845Z" fill="white"/>
<path opacity="0.01" d="M297.056 543.845H293.327V547.572H297.056V543.845Z" fill="white"/>
<path opacity="0.48" d="M302.152 543.845H298.423V547.572H302.152V543.845Z" fill="white"/>
<path opacity="0.05" d="M276.672 548.938H272.943V552.665H276.672V548.938Z" fill="white"/>
<path opacity="0.23" d="M281.768 548.938H278.039V552.665H281.768V548.938Z" fill="white"/>
<path opacity="0.28" d="M286.864 548.938H283.135V552.665H286.864V548.938Z" fill="white"/>
<path opacity="0.02" d="M291.96 548.938H288.231V552.665H291.96V548.938Z" fill="white"/>
<path opacity="0.17" d="M297.056 548.938H293.327V552.665H297.056V548.938Z" fill="white"/>
<path opacity="0.42" d="M302.152 548.938H298.423V552.665H302.152V548.938Z" fill="white"/>
<path opacity="0.13" d="M276.672 554.031H272.943V557.758H276.672V554.031Z" fill="white"/>
<path opacity="0.11" d="M286.864 554.031H283.135V557.758H286.864V554.031Z" fill="white"/>
<path opacity="0.02" d="M291.96 554.031H288.231V557.758H291.96V554.031Z" fill="white"/>
<path opacity="0.3" d="M302.152 554.031H298.423V557.758H302.152V554.031Z" fill="white"/>
<path opacity="0.08" d="M297.056 482.852H293.327V486.578H297.056V482.852Z" fill="white"/>
<path opacity="0.1" d="M281.768 487.945H278.039V491.671H281.768V487.945Z" fill="white"/>
<path opacity="0.08" d="M297.056 493.038H293.327V496.765H297.056V493.038Z" fill="white"/>
<path opacity="0.1" d="M281.768 498.131H278.039V501.858H281.768V498.131Z" fill="white"/>
<path opacity="0.01" d="M302.152 498.131H298.423V501.858H302.152V498.131Z" fill="white"/>
<path opacity="0.17" d="M276.672 503.224H272.943V506.951H276.672V503.224Z" fill="white"/>
<path opacity="0.01" d="M281.768 503.224H278.039V506.951H281.768V503.224Z" fill="white"/>
<path opacity="0.15" d="M286.864 503.224H283.135V506.951H286.864V503.224Z" fill="white"/>
<path opacity="0.12" d="M302.152 503.224H298.423V506.951H302.152V503.224Z" fill="white"/>
<path opacity="0.13" d="M291.96 513.41H288.231V517.137H291.96V513.41Z" fill="white"/>
<path opacity="0.07" d="M302.152 513.41H298.423V517.137H302.152V513.41Z" fill="white"/>
<path opacity="0.13" d="M276.672 523.472H272.943V527.199H276.672V523.472Z" fill="white"/>
<path opacity="0.02" d="M286.864 523.472H283.135V527.199H286.864V523.472Z" fill="white"/>
<path opacity="0.02" d="M291.96 523.472H288.231V527.199H291.96V523.472Z" fill="white"/>
<path opacity="0.14" d="M297.056 523.472H293.327V527.199H297.056V523.472Z" fill="white"/>
<path opacity="0.09" d="M286.864 533.659H283.135V537.385H286.864V533.659Z" fill="white"/>
<path opacity="0.02" d="M297.056 533.659H293.327V537.385H297.056V533.659Z" fill="white"/>
<path opacity="0.19" d="M286.864 538.752H283.135V542.478H286.864V538.752Z" fill="white"/>
<path opacity="0.06" d="M297.056 538.752H293.327V542.478H297.056V538.752Z" fill="white"/>
<path opacity="0.16" d="M286.864 543.845H283.135V547.572H286.864V543.845Z" fill="white"/>
<path opacity="0.19" d="M281.768 554.031H278.039V557.758H281.768V554.031Z" fill="white"/>
<path opacity="0.04" d="M297.056 554.031H293.327V557.758H297.056V554.031Z" fill="white"/>
<g opacity="0.7">
<path opacity="0.7" d="M312.468 480.74H308.615V572.292H312.468V480.74Z" fill="#E6E6E6"/>
<path opacity="0.7" d="M319.055 480.74H315.202V572.292H319.055V480.74Z" fill="#E6E6E6"/>
<path opacity="0.7" d="M325.767 480.74H321.914V572.292H325.767V480.74Z" fill="#E6E6E6"/>
<path opacity="0.7" d="M332.479 480.74H328.626V572.292H332.479V480.74Z" fill="#E6E6E6"/>
<path opacity="0.7" d="M339.191 480.74H335.338V572.292H339.191V480.74Z" fill="#E6E6E6"/>
</g>
<path d="M227.329 417.262L219.622 396.89L240.255 417.262H227.329Z" fill="#4D4D4D"/>
<path d="M209.306 417.262L219.623 396.89L227.329 417.262H209.306Z" fill="#333333"/>
<path d="M227.329 417.262H209.306V439.001H227.329V417.262Z" fill="#333333"/>
<path d="M240.255 417.262H227.329V439.001H240.255V417.262Z" fill="#4D4D4D"/>
<path d="M245.599 515.025H191.036V577.509H245.599V515.025Z" fill="#333333"/>
<path d="M238.142 470.305H198.617V515.025H238.142V470.305Z" fill="#333333"/>
<path d="M232.424 425.585H204.335V470.305H232.424V425.585Z" fill="#333333"/>
<path d="M251.69 425.585H232.3V470.305H251.69V425.585Z" fill="#4D4D4D"/>
<path d="M279.158 515.025H245.599V577.509H279.158V515.025Z" fill="#4D4D4D"/>
<path d="M263.622 470.305H238.142V515.025H263.622V470.305Z" fill="#4D4D4D"/>
<path opacity="0.53" d="M244.978 428.815H239.136V434.653H244.978V428.815Z" fill="white"/>
<path opacity="0.34" d="M244.978 436.144H239.136V441.982H244.978V436.144Z" fill="white"/>
<path opacity="0.9" d="M244.978 443.349H239.136V449.187H244.978V443.349Z" fill="white"/>
<path opacity="0.14" d="M244.978 450.554H239.136V456.392H244.978V450.554Z" fill="white"/>
<path d="M244.978 457.883H239.136V463.721H244.978V457.883Z" fill="white"/>
<path opacity="0.29" d="M249.328 474.156H243.486V479.994H249.328V474.156Z" fill="white"/>
<path opacity="0.81" d="M258.277 474.156H252.435V479.994H258.277V474.156Z" fill="white"/>
<path opacity="0.18" d="M249.328 481.485H243.486V487.324H249.328V481.485Z" fill="white"/>
<path opacity="0.41" d="M258.277 481.485H252.435V487.324H258.277V481.485Z" fill="white"/>
<path opacity="0.03" d="M258.277 488.938H252.435V494.777H258.277V488.938Z" fill="white"/>
<path opacity="0.85" d="M249.328 496.392H243.486V502.23H249.328V496.392Z" fill="white"/>
<path opacity="0.06" d="M258.277 496.392H252.435V502.23H258.277V496.392Z" fill="white"/>
<path opacity="0.94" d="M249.328 503.721H243.486V509.559H249.328V503.721Z" fill="white"/>
<path opacity="0.25" d="M258.277 503.721H252.435V509.559H258.277V503.721Z" fill="white"/>
<path opacity="0.6" d="M257.531 518.876H251.69V524.714H257.531V518.876Z" fill="white"/>
<path opacity="0.83" d="M265.362 518.876H259.52V524.714H265.362V518.876Z" fill="white"/>
<path opacity="0.74" d="M273.192 518.876H267.35V524.714H273.192V518.876Z" fill="white"/>
<path opacity="0.35" d="M265.362 525.957H259.52V531.795H265.362V525.957Z" fill="white"/>
<path opacity="0.54" d="M273.192 525.957H267.35V531.795H273.192V525.957Z" fill="white"/>
<path opacity="0.2" d="M257.531 533.037H251.69V538.876H257.531V533.037Z" fill="white"/>
<path opacity="0.04" d="M265.362 533.037H259.52V538.876H265.362V533.037Z" fill="white"/>
<path opacity="0.86" d="M273.192 533.037H267.35V538.876H273.192V533.037Z" fill="white"/>
<path opacity="0.06" d="M257.531 540.118H251.69V545.957H257.531V540.118Z" fill="white"/>
<path opacity="0.01" d="M265.362 540.118H259.52V545.957H265.362V540.118Z" fill="white"/>
<path opacity="0.39" d="M273.192 540.118H267.35V545.957H273.192V540.118Z" fill="white"/>
<path opacity="0.1" d="M257.531 547.323H251.69V553.161H257.531V547.323Z" fill="white"/>
<path d="M265.362 547.323H259.52V553.161H265.362V547.323Z" fill="white"/>
<path opacity="0.62" d="M273.192 547.323H267.35V553.161H273.192V547.323Z" fill="white"/>
<path opacity="0.48" d="M257.531 554.652H251.69V560.491H257.531V554.652Z" fill="white"/>
<path opacity="0.27" d="M265.362 554.652H259.52V560.491H265.362V554.652Z" fill="white"/>
<path opacity="0.42" d="M273.192 554.652H267.35V560.491H273.192V554.652Z" fill="white"/>
<path opacity="0.27" d="M202.719 518.876H196.877V524.714H202.719V518.876Z" fill="white"/>
<path opacity="0.11" d="M209.306 474.156H203.465V479.994H209.306V474.156Z" fill="white"/>
<path opacity="0.41" d="M213.905 428.815H208.063V434.653H213.905V428.815Z" fill="white"/>
<path opacity="0.38" d="M221.238 428.815H215.397V434.653H221.238V428.815Z" fill="white"/>
<path opacity="0.02" d="M228.696 428.815H222.854V434.653H228.696V428.815Z" fill="white"/>
<path opacity="0.46" d="M213.905 436.144H208.063V441.982H213.905V436.144Z" fill="white"/>
<path opacity="0.31" d="M221.238 436.144H215.397V441.982H221.238V436.144Z" fill="white"/>
<path opacity="0.61" d="M228.696 436.144H222.854V441.982H228.696V436.144Z" fill="white"/>
<path opacity="0.03" d="M213.905 443.349H208.063V449.187H213.905V443.349Z" fill="white"/>
<path opacity="0.03" d="M221.238 443.349H215.397V449.187H221.238V443.349Z" fill="white"/>
<path opacity="0.46" d="M228.696 443.349H222.854V449.187H228.696V443.349Z" fill="white"/>
<path opacity="0.32" d="M213.905 450.554H208.063V456.392H213.905V450.554Z" fill="white"/>
<path opacity="0.14" d="M221.238 450.554H215.397V456.392H221.238V450.554Z" fill="white"/>
<path opacity="0.3" d="M228.696 450.554H222.854V456.392H228.696V450.554Z" fill="white"/>
<path opacity="0.04" d="M213.905 457.883H208.063V463.721H213.905V457.883Z" fill="white"/>
<path opacity="0.64" d="M221.238 457.883H215.397V463.721H221.238V457.883Z" fill="white"/>
<path opacity="0.05" d="M228.696 457.883H222.854V463.721H228.696V457.883Z" fill="white"/>
<path opacity="0.15" d="M216.764 474.156H210.922V479.994H216.764V474.156Z" fill="white"/>
<path opacity="0.15" d="M224.221 474.156H218.38V479.994H224.221V474.156Z" fill="white"/>
<path opacity="0.52" d="M231.554 474.156H225.713V479.994H231.554V474.156Z" fill="white"/>
<path opacity="0.58" d="M209.306 481.485H203.465V487.324H209.306V481.485Z" fill="white"/>
<path opacity="0.62" d="M216.764 481.485H210.922V487.324H216.764V481.485Z" fill="white"/>
<path opacity="0.04" d="M224.221 481.485H218.38V487.324H224.221V481.485Z" fill="white"/>
<path opacity="0.06" d="M231.554 481.485H225.713V487.324H231.554V481.485Z" fill="white"/>
<path opacity="0.3" d="M209.306 488.938H203.465V494.777H209.306V488.938Z" fill="white"/>
<path opacity="0.01" d="M216.764 488.938H210.922V494.777H216.764V488.938Z" fill="white"/>
<path opacity="0.37" d="M224.221 488.938H218.38V494.777H224.221V488.938Z" fill="white"/>
<path opacity="0.62" d="M231.554 488.938H225.713V494.777H231.554V488.938Z" fill="white"/>
<path opacity="0.54" d="M209.306 496.392H203.465V502.23H209.306V496.392Z" fill="white"/>
<path opacity="0.21" d="M216.764 496.392H210.922V502.23H216.764V496.392Z" fill="white"/>
<path opacity="0.41" d="M224.221 496.392H218.38V502.23H224.221V496.392Z" fill="white"/>
<path opacity="0.1" d="M231.554 496.392H225.713V502.23H231.554V496.392Z" fill="white"/>
<path opacity="0.17" d="M209.306 503.721H203.465V509.559H209.306V503.721Z" fill="white"/>
<path opacity="0.17" d="M216.764 503.721H210.922V509.559H216.764V503.721Z" fill="white"/>
<path opacity="0.13" d="M224.221 503.721H218.38V509.559H224.221V503.721Z" fill="white"/>
<path opacity="0.5" d="M231.554 503.721H225.713V509.559H231.554V503.721Z" fill="white"/>
<path opacity="0.06" d="M210.176 518.876H204.335V524.714H210.176V518.876Z" fill="white"/>
<path opacity="0.27" d="M217.51 518.876H211.668V524.714H217.51V518.876Z" fill="white"/>
<path opacity="0.51" d="M224.967 518.876H219.125V524.714H224.967V518.876Z" fill="white"/>
<path opacity="0.42" d="M232.424 518.876H226.583V524.714H232.424V518.876Z" fill="white"/>
<path opacity="0.64" d="M239.758 518.876H233.916V524.714H239.758V518.876Z" fill="white"/>
<path opacity="0.29" d="M202.719 525.957H196.877V531.795H202.719V525.957Z" fill="white"/>
<path opacity="0.6" d="M210.176 525.957H204.335V531.795H210.176V525.957Z" fill="white"/>
<path opacity="0.2" d="M217.51 525.957H211.668V531.795H217.51V525.957Z" fill="white"/>
<path opacity="0.24" d="M224.967 525.957H219.125V531.795H224.967V525.957Z" fill="white"/>
<path opacity="0.62" d="M232.424 525.957H226.583V531.795H232.424V525.957Z" fill="white"/>
<path opacity="0.62" d="M239.758 525.957H233.916V531.795H239.758V525.957Z" fill="white"/>
<path opacity="0.25" d="M202.719 533.037H196.877V538.876H202.719V533.037Z" fill="white"/>
<path opacity="0.36" d="M210.176 533.037H204.335V538.876H210.176V533.037Z" fill="white"/>
<path opacity="0.16" d="M217.51 533.037H211.668V538.876H217.51V533.037Z" fill="white"/>
<path opacity="0.1" d="M224.967 533.037H219.125V538.876H224.967V533.037Z" fill="white"/>
<path opacity="0.04" d="M232.424 533.037H226.583V538.876H232.424V533.037Z" fill="white"/>
<path opacity="0.44" d="M239.758 533.037H233.916V538.876H239.758V533.037Z" fill="white"/>
<path opacity="0.68" d="M202.719 540.118H196.877V545.957H202.719V540.118Z" fill="white"/>
<path opacity="0.01" d="M210.176 540.118H204.335V545.957H210.176V540.118Z" fill="white"/>
<path opacity="0.29" d="M217.51 540.118H211.668V545.957H217.51V540.118Z" fill="white"/>
<path opacity="0.66" d="M224.967 540.118H219.125V545.957H224.967V540.118Z" fill="white"/>
<path opacity="0.12" d="M232.424 540.118H226.583V545.957H232.424V540.118Z" fill="white"/>
<path opacity="0.34" d="M239.758 540.118H233.916V545.957H239.758V540.118Z" fill="white"/>
<path opacity="0.36" d="M202.719 547.323H196.877V553.161H202.719V547.323Z" fill="white"/>
<path opacity="0.5" d="M210.176 547.323H204.335V553.161H210.176V547.323Z" fill="white"/>
<path opacity="0.07" d="M217.51 547.323H211.668V553.161H217.51V547.323Z" fill="white"/>
<path opacity="0.64" d="M224.967 547.323H219.125V553.161H224.967V547.323Z" fill="white"/>
<path opacity="0.4" d="M232.424 547.323H226.583V553.161H232.424V547.323Z" fill="white"/>
<path opacity="0.27" d="M239.758 547.323H233.916V553.161H239.758V547.323Z" fill="white"/>
<path opacity="0.09" d="M202.719 554.652H196.877V560.491H202.719V554.652Z" fill="white"/>
<path opacity="0.47" d="M210.176 554.652H204.335V560.491H210.176V554.652Z" fill="white"/>
<path opacity="0.57" d="M217.51 554.652H211.668V560.491H217.51V554.652Z" fill="white"/>
<path opacity="0.12" d="M224.967 554.652H219.125V560.491H224.967V554.652Z" fill="white"/>
<path opacity="0.23" d="M232.424 554.652H226.583V560.491H232.424V554.652Z" fill="white"/>
<path opacity="0.36" d="M239.758 554.652H233.916V560.491H239.758V554.652Z" fill="white"/>
<path d="M364.422 572.292H287.113L364.422 504.963V572.292Z" fill="#333333"/>
<path d="M198.617 573.658H91.4783L198.617 480.491V573.658Z" fill="#333333"/>
<path d="M355.846 556.888H333.225V563.845H355.846V556.888Z" fill="#4D4D4D"/>
<path d="M353.236 559H335.711L341.801 548.814H347.145L353.236 559Z" fill="#4D4D4D"/>
<path d="M259.147 566.702C259.147 571.546 255.294 575.521 250.571 575.521C245.848 575.521 241.995 571.546 241.995 566.702C241.995 561.857 245.848 557.882 250.571 557.882C255.294 557.758 259.147 561.733 259.147 566.702Z" fill="#333333"/>
<path d="M489.956 562.851C489.956 566.081 487.346 568.814 484.238 568.814C481.131 568.814 478.521 566.205 478.521 562.851C478.521 559.621 481.131 556.888 484.238 556.888C487.346 556.888 489.956 559.621 489.956 562.851Z" fill="#333333"/>
<path d="M289.723 563.223C289.723 566.577 287.113 569.31 283.757 569.31C280.525 569.31 277.791 566.577 277.791 563.223C277.791 559.869 280.401 557.136 283.757 557.136C287.113 557.136 289.723 559.869 289.723 563.223Z" fill="#333333"/>
</g>
<defs>
<clipPath id="clip0">
<rect width="811" height="559" fill="white"/>
</clipPath>
</defs>
</svg>
