<svg width="811" height="559" viewBox="0 0 811 559" fill="none" xmlns="http://www.w3.org/2000/svg">
<g opacity="0.05" clip-path="url(#clip0)">
<path d="M525.13 355.648H566.146V551.671H525.13V355.648Z" fill="#333333"/>
<path d="M536.441 345.71H555.084V356.766H536.441V345.71Z" fill="#333333"/>
<path d="M540.294 339.251H551.107V345.586H540.294V339.251Z" fill="#333333"/>
<path d="M546.384 355.275L545.638 248.444L545.017 355.275H546.384Z" fill="#333333"/>
<path opacity="0.09" d="M543.525 370.431H547.876V374.778H543.525V370.431Z" fill="white"/>
<path opacity="0.33" d="M543.525 384.219H547.876V388.567H543.525V384.219Z" fill="white"/>
<path opacity="0.37" d="M543.525 398.132H547.876V402.48H543.525V398.132Z" fill="white"/>
<path opacity="0.14" d="M543.525 411.921H547.876V416.269H543.525V411.921Z" fill="white"/>
<path opacity="0.3" d="M543.525 425.834H547.876V430.182H543.525V425.834Z" fill="white"/>
<path opacity="0.16" d="M543.525 439.622H547.876V443.97H543.525V439.622Z" fill="white"/>
<path opacity="0.34" d="M543.525 453.535H547.876V457.883H543.525V453.535Z" fill="white"/>
<path opacity="0.29" d="M543.525 467.324H547.876V471.672H543.525V467.324Z" fill="white"/>
<path opacity="0.12" d="M543.525 481.237H547.876V485.585H543.525V481.237Z" fill="white"/>
<path d="M664.336 364.717H770.232V399.996H664.336V364.717Z" fill="#E6E6E6"/>
<path d="M728.595 364.717H770.232V399.996H728.595V364.717Z" fill="#B3B3B3"/>
<path d="M728.595 399.996H811V571.05H728.595V399.996Z" fill="#333333"/>
<path d="M600.078 399.996H728.595V571.05H600.078V399.996Z" fill="#4D4D4D"/>
<path d="M784.899 407.076H791.735V413.908H784.899V407.076Z" fill="white"/>
<path d="M775.701 407.076H782.537V413.908H775.701V407.076Z" fill="white"/>
<path d="M766.379 407.076H773.215V413.908H766.379V407.076Z" fill="white"/>
<path d="M757.058 407.076H763.894V413.908H757.058V407.076Z" fill="white"/>
<path d="M747.86 407.076H754.696V413.908H747.86V407.076Z" fill="white"/>
<path d="M706.223 407.076H713.059V413.908H706.223V407.076Z" fill="white"/>
<path d="M697.149 407.076H703.985V413.908H697.149V407.076Z" fill="white"/>
<path d="M688.076 407.076H694.912V413.908H688.076V407.076Z" fill="white"/>
<path d="M679.003 407.076H685.839V413.908H679.003V407.076Z" fill="white"/>
<path d="M669.929 407.076H676.766V413.908H669.929V407.076Z" fill="white"/>
<path d="M660.856 407.076H667.692V413.908H660.856V407.076Z" fill="white"/>
<path d="M651.907 407.076H658.743V413.908H651.907V407.076Z" fill="white"/>
<path d="M642.834 407.076H649.67V413.908H642.834V407.076Z" fill="white"/>
<path d="M633.761 407.076H640.597V413.908H633.761V407.076Z" fill="white"/>
<path d="M624.688 407.076H631.524V413.908H624.688V407.076Z" fill="white"/>
<path d="M706.223 416.02H713.059V422.853H706.223V416.02Z" fill="white"/>
<path d="M697.149 416.02H703.985V422.853H697.149V416.02Z" fill="white"/>
<path d="M688.076 416.02H694.912V422.853H688.076V416.02Z" fill="white"/>
<path d="M679.003 416.02H685.839V422.853H679.003V416.02Z" fill="white"/>
<path d="M669.929 416.02H676.766V422.853H669.929V416.02Z" fill="white"/>
<path d="M660.856 416.02H667.692V422.853H660.856V416.02Z" fill="white"/>
<path d="M651.907 416.02H658.743V422.853H651.907V416.02Z" fill="white"/>
<path d="M642.834 416.02H649.67V422.853H642.834V416.02Z" fill="white"/>
<path d="M633.761 416.02H640.597V422.853H633.761V416.02Z" fill="white"/>
<path d="M624.688 416.02H631.524V422.853H624.688V416.02Z" fill="white"/>
<path d="M706.223 424.964H713.059V431.797H706.223V424.964Z" fill="white"/>
<path d="M697.149 424.964H703.985V431.797H697.149V424.964Z" fill="white"/>
<path d="M688.076 424.964H694.912V431.797H688.076V424.964Z" fill="white"/>
<path d="M679.003 424.964H685.839V431.797H679.003V424.964Z" fill="white"/>
<path d="M669.929 424.964H676.766V431.797H669.929V424.964Z" fill="white"/>
<path d="M660.856 424.964H667.692V431.797H660.856V424.964Z" fill="white"/>
<path d="M651.907 424.964H658.743V431.797H651.907V424.964Z" fill="white"/>
<path d="M642.834 424.964H649.67V431.797H642.834V424.964Z" fill="white"/>
<path d="M633.761 424.964H640.597V431.797H633.761V424.964Z" fill="white"/>
<path d="M624.688 424.964H631.524V431.797H624.688V424.964Z" fill="white"/>
<path d="M706.223 433.784H713.059V440.616H706.223V433.784Z" fill="white"/>
<path d="M697.149 433.784H703.985V440.616H697.149V433.784Z" fill="white"/>
<path d="M688.076 433.784H694.912V440.616H688.076V433.784Z" fill="white"/>
<path d="M679.003 433.784H685.839V440.616H679.003V433.784Z" fill="white"/>
<path d="M669.929 433.784H676.766V440.616H669.929V433.784Z" fill="white"/>
<path d="M660.856 433.784H667.692V440.616H660.856V433.784Z" fill="white"/>
<path d="M651.907 433.784H658.743V440.616H651.907V433.784Z" fill="white"/>
<path d="M642.834 433.784H649.67V440.616H642.834V433.784Z" fill="white"/>
<path d="M633.761 433.784H640.597V440.616H633.761V433.784Z" fill="white"/>
<path d="M624.688 433.784H631.524V440.616H624.688V433.784Z" fill="white"/>
<path d="M706.223 442.728H713.059V449.56H706.223V442.728Z" fill="white"/>
<path d="M697.149 442.728H703.985V449.56H697.149V442.728Z" fill="white"/>
<path d="M688.076 442.728H694.912V449.56H688.076V442.728Z" fill="white"/>
<path d="M679.003 442.728H685.839V449.56H679.003V442.728Z" fill="white"/>
<path d="M669.929 442.728H676.766V449.56H669.929V442.728Z" fill="white"/>
<path d="M660.856 442.728H667.692V449.56H660.856V442.728Z" fill="white"/>
<path d="M651.907 442.728H658.743V449.56H651.907V442.728Z" fill="white"/>
<path d="M642.834 442.728H649.67V449.56H642.834V442.728Z" fill="white"/>
<path d="M633.761 442.728H640.597V449.56H633.761V442.728Z" fill="white"/>
<path d="M624.688 442.728H631.524V449.56H624.688V442.728Z" fill="white"/>
<path d="M706.223 451.672H713.059V458.504H706.223V451.672Z" fill="white"/>
<path d="M697.149 451.672H703.985V458.504H697.149V451.672Z" fill="white"/>
<path d="M688.076 451.672H694.912V458.504H688.076V451.672Z" fill="white"/>
<path d="M679.003 451.672H685.839V458.504H679.003V451.672Z" fill="white"/>
<path d="M669.929 451.672H676.766V458.504H669.929V451.672Z" fill="white"/>
<path d="M660.856 451.672H667.692V458.504H660.856V451.672Z" fill="white"/>
<path d="M651.907 451.672H658.743V458.504H651.907V451.672Z" fill="white"/>
<path d="M642.834 451.672H649.67V458.504H642.834V451.672Z" fill="white"/>
<path d="M633.761 451.672H640.597V458.504H633.761V451.672Z" fill="white"/>
<path d="M624.688 451.672H631.524V458.504H624.688V451.672Z" fill="white"/>
<path d="M706.223 460.616H713.059V467.448H706.223V460.616Z" fill="white"/>
<path d="M697.149 460.616H703.985V467.448H697.149V460.616Z" fill="white"/>
<path d="M688.076 460.616H694.912V467.448H688.076V460.616Z" fill="white"/>
<path d="M679.003 460.616H685.839V467.448H679.003V460.616Z" fill="white"/>
<path d="M669.929 460.616H676.766V467.448H669.929V460.616Z" fill="white"/>
<path d="M660.856 460.616H667.692V467.448H660.856V460.616Z" fill="white"/>
<path d="M651.907 460.616H658.743V467.448H651.907V460.616Z" fill="white"/>
<path d="M642.834 460.616H649.67V467.448H642.834V460.616Z" fill="white"/>
<path d="M633.761 460.616H640.597V467.448H633.761V460.616Z" fill="white"/>
<path d="M624.688 460.616H631.524V467.448H624.688V460.616Z" fill="white"/>
<path d="M706.223 469.56H713.059V476.392H706.223V469.56Z" fill="white"/>
<path d="M697.149 469.56H703.985V476.392H697.149V469.56Z" fill="white"/>
<path d="M688.076 469.56H694.912V476.392H688.076V469.56Z" fill="white"/>
<path d="M679.003 469.56H685.839V476.392H679.003V469.56Z" fill="white"/>
<path d="M669.929 469.56H676.766V476.392H669.929V469.56Z" fill="white"/>
<path d="M660.856 469.56H667.692V476.392H660.856V469.56Z" fill="white"/>
<path d="M651.907 469.56H658.743V476.392H651.907V469.56Z" fill="white"/>
<path d="M642.834 469.56H649.67V476.392H642.834V469.56Z" fill="white"/>
<path d="M633.761 469.56H640.597V476.392H633.761V469.56Z" fill="white"/>
<path d="M624.688 469.56H631.524V476.392H624.688V469.56Z" fill="white"/>
<path d="M706.223 478.38H713.059V485.212H706.223V478.38Z" fill="white"/>
<path d="M697.149 478.38H703.985V485.212H697.149V478.38Z" fill="white"/>
<path d="M688.076 478.38H694.912V485.212H688.076V478.38Z" fill="white"/>
<path d="M679.003 478.38H685.839V485.212H679.003V478.38Z" fill="white"/>
<path d="M669.929 478.38H676.766V485.212H669.929V478.38Z" fill="white"/>
<path d="M660.856 478.38H667.692V485.212H660.856V478.38Z" fill="white"/>
<path d="M651.907 478.38H658.743V485.212H651.907V478.38Z" fill="white"/>
<path d="M642.834 478.38H649.67V485.212H642.834V478.38Z" fill="white"/>
<path d="M633.761 478.38H640.597V485.212H633.761V478.38Z" fill="white"/>
<path d="M624.688 478.38H631.524V485.212H624.688V478.38Z" fill="white"/>
<path d="M706.223 487.324H713.059V494.156H706.223V487.324Z" fill="white"/>
<path d="M697.149 487.324H703.985V494.156H697.149V487.324Z" fill="white"/>
<path d="M688.076 487.324H694.912V494.156H688.076V487.324Z" fill="white"/>
<path d="M679.003 487.324H685.839V494.156H679.003V487.324Z" fill="white"/>
<path d="M669.929 487.324H676.766V494.156H669.929V487.324Z" fill="white"/>
<path d="M660.856 487.324H667.692V494.156H660.856V487.324Z" fill="white"/>
<path d="M651.907 487.324H658.743V494.156H651.907V487.324Z" fill="white"/>
<path d="M642.834 487.324H649.67V494.156H642.834V487.324Z" fill="white"/>
<path d="M633.761 487.324H640.597V494.156H633.761V487.324Z" fill="white"/>
<path d="M624.688 487.324H631.524V494.156H624.688V487.324Z" fill="white"/>
<path d="M706.223 496.268H713.059V503.1H706.223V496.268Z" fill="white"/>
<path d="M697.149 496.268H703.985V503.1H697.149V496.268Z" fill="white"/>
<path d="M688.076 496.268H694.912V503.1H688.076V496.268Z" fill="white"/>
<path d="M679.003 496.268H685.839V503.1H679.003V496.268Z" fill="white"/>
<path d="M669.929 496.268H676.766V503.1H669.929V496.268Z" fill="white"/>
<path d="M660.856 496.268H667.692V503.1H660.856V496.268Z" fill="white"/>
<path d="M651.907 496.268H658.743V503.1H651.907V496.268Z" fill="white"/>
<path d="M642.834 496.268H649.67V503.1H642.834V496.268Z" fill="white"/>
<path d="M633.761 496.268H640.597V503.1H633.761V496.268Z" fill="white"/>
<path d="M624.688 496.268H631.524V503.1H624.688V496.268Z" fill="white"/>
<path d="M706.223 505.212H713.059V512.044H706.223V505.212Z" fill="white"/>
<path d="M697.149 505.212H703.985V512.044H697.149V505.212Z" fill="white"/>
<path d="M688.076 505.212H694.912V512.044H688.076V505.212Z" fill="white"/>
<path d="M679.003 505.212H685.839V512.044H679.003V505.212Z" fill="white"/>
<path d="M669.929 505.212H676.766V512.044H669.929V505.212Z" fill="white"/>
<path d="M660.856 505.212H667.692V512.044H660.856V505.212Z" fill="white"/>
<path d="M651.907 505.212H658.743V512.044H651.907V505.212Z" fill="white"/>
<path d="M642.834 505.212H649.67V512.044H642.834V505.212Z" fill="white"/>
<path d="M633.761 505.212H640.597V512.044H633.761V505.212Z" fill="white"/>
<path d="M624.688 505.212H631.524V512.044H624.688V505.212Z" fill="white"/>
<path d="M706.223 514.156H713.059V520.988H706.223V514.156Z" fill="white"/>
<path d="M697.149 514.156H703.985V520.988H697.149V514.156Z" fill="white"/>
<path d="M688.076 514.156H694.912V520.988H688.076V514.156Z" fill="white"/>
<path d="M679.003 514.156H685.839V520.988H679.003V514.156Z" fill="white"/>
<path d="M669.929 514.156H676.766V520.988H669.929V514.156Z" fill="white"/>
<path d="M660.856 514.156H667.692V520.988H660.856V514.156Z" fill="white"/>
<path d="M651.907 514.156H658.743V520.988H651.907V514.156Z" fill="white"/>
<path d="M642.834 514.156H649.67V520.988H642.834V514.156Z" fill="white"/>
<path d="M633.761 514.156H640.597V520.988H633.761V514.156Z" fill="white"/>
<path d="M624.688 514.156H631.524V520.988H624.688V514.156Z" fill="white"/>
<path d="M706.223 522.976H713.059V529.808H706.223V522.976Z" fill="white"/>
<path d="M697.149 522.976H703.985V529.808H697.149V522.976Z" fill="white"/>
<path d="M688.076 522.976H694.912V529.808H688.076V522.976Z" fill="white"/>
<path d="M679.003 522.976H685.839V529.808H679.003V522.976Z" fill="white"/>
<path d="M669.929 522.976H676.766V529.808H669.929V522.976Z" fill="white"/>
<path d="M660.856 522.976H667.692V529.808H660.856V522.976Z" fill="white"/>
<path d="M651.907 522.976H658.743V529.808H651.907V522.976Z" fill="white"/>
<path d="M642.834 522.976H649.67V529.808H642.834V522.976Z" fill="white"/>
<path d="M633.761 522.976H640.597V529.808H633.761V522.976Z" fill="white"/>
<path d="M624.688 522.976H631.524V529.808H624.688V522.976Z" fill="white"/>
<path d="M615.614 522.976H622.45V529.808H615.614V522.976Z" fill="white"/>
<path d="M706.223 531.92H713.059V538.752H706.223V531.92Z" fill="white"/>
<path d="M697.149 531.92H703.985V538.752H697.149V531.92Z" fill="white"/>
<path d="M688.076 531.92H694.912V538.752H688.076V531.92Z" fill="white"/>
<path d="M679.003 531.92H685.839V538.752H679.003V531.92Z" fill="white"/>
<path d="M669.929 531.92H676.766V538.752H669.929V531.92Z" fill="white"/>
<path d="M660.856 531.92H667.692V538.752H660.856V531.92Z" fill="white"/>
<path d="M651.907 531.92H658.743V538.752H651.907V531.92Z" fill="white"/>
<path d="M642.834 531.92H649.67V538.752H642.834V531.92Z" fill="white"/>
<path d="M633.761 531.92H640.597V538.752H633.761V531.92Z" fill="white"/>
<path d="M624.688 531.92H631.524V538.752H624.688V531.92Z" fill="white"/>
<path d="M615.614 531.92H622.45V538.752H615.614V531.92Z" fill="white"/>
<path d="M706.223 540.864H713.059V547.696H706.223V540.864Z" fill="white"/>
<path d="M697.149 540.864H703.985V547.696H697.149V540.864Z" fill="white"/>
<path d="M688.076 540.864H694.912V547.696H688.076V540.864Z" fill="white"/>
<path d="M679.003 540.864H685.839V547.696H679.003V540.864Z" fill="white"/>
<path d="M669.929 540.864H676.766V547.696H669.929V540.864Z" fill="white"/>
<path d="M660.856 540.864H667.692V547.696H660.856V540.864Z" fill="white"/>
<path d="M651.907 540.864H658.743V547.696H651.907V540.864Z" fill="white"/>
<path d="M642.834 540.864H649.67V547.696H642.834V540.864Z" fill="white"/>
<path d="M633.761 540.864H640.597V547.696H633.761V540.864Z" fill="white"/>
<path d="M624.688 540.864H631.524V547.696H624.688V540.864Z" fill="white"/>
<path d="M615.614 540.864H622.45V547.696H615.614V540.864Z" fill="white"/>
<path d="M706.223 549.808H713.059V556.64H706.223V549.808Z" fill="white"/>
<path d="M697.149 549.808H703.985V556.64H697.149V549.808Z" fill="white"/>
<path d="M688.076 549.808H694.912V556.64H688.076V549.808Z" fill="white"/>
<path d="M679.003 549.808H685.839V556.64H679.003V549.808Z" fill="white"/>
<path d="M669.929 549.808H676.766V556.64H669.929V549.808Z" fill="white"/>
<path d="M660.856 549.808H667.692V556.64H660.856V549.808Z" fill="white"/>
<path d="M651.907 549.808H658.743V556.64H651.907V549.808Z" fill="white"/>
<path d="M642.834 549.808H649.67V556.64H642.834V549.808Z" fill="white"/>
<path d="M633.761 549.808H640.597V556.64H633.761V549.808Z" fill="white"/>
<path d="M624.688 549.808H631.524V556.64H624.688V549.808Z" fill="white"/>
<path d="M615.614 549.808H622.45V556.64H615.614V549.808Z" fill="white"/>
<path d="M706.223 558.751H713.059V565.584H706.223V558.751Z" fill="white"/>
<path d="M697.149 558.751H703.985V565.584H697.149V558.751Z" fill="white"/>
<path d="M688.076 558.751H694.912V565.584H688.076V558.751Z" fill="white"/>
<path d="M679.003 558.751H685.839V565.584H679.003V558.751Z" fill="white"/>
<path d="M669.929 558.751H676.766V565.584H669.929V558.751Z" fill="white"/>
<path d="M660.856 558.751H667.692V565.584H660.856V558.751Z" fill="white"/>
<path d="M651.907 558.751H658.743V565.584H651.907V558.751Z" fill="white"/>
<path d="M642.834 558.751H649.67V565.584H642.834V558.751Z" fill="white"/>
<path d="M633.761 558.751H640.597V565.584H633.761V558.751Z" fill="white"/>
<path d="M624.688 558.751H631.524V565.584H624.688V558.751Z" fill="white"/>
<path d="M615.614 558.751H622.45V565.584H615.614V558.751Z" fill="white"/>
<path d="M784.899 416.02H791.735V422.853H784.899V416.02Z" fill="white"/>
<path d="M775.701 416.02H782.537V422.853H775.701V416.02Z" fill="white"/>
<path d="M766.379 416.02H773.215V422.853H766.379V416.02Z" fill="white"/>
<path d="M757.058 416.02H763.894V422.853H757.058V416.02Z" fill="white"/>
<path d="M747.86 416.02H754.696V422.853H747.86V416.02Z" fill="white"/>
<path d="M784.899 424.964H791.735V431.797H784.899V424.964Z" fill="white"/>
<path d="M775.701 424.964H782.537V431.797H775.701V424.964Z" fill="white"/>
<path d="M766.379 424.964H773.215V431.797H766.379V424.964Z" fill="white"/>
<path d="M757.058 424.964H763.894V431.797H757.058V424.964Z" fill="white"/>
<path d="M747.86 424.964H754.696V431.797H747.86V424.964Z" fill="white"/>
<path d="M784.899 433.784H791.735V440.616H784.899V433.784Z" fill="white"/>
<path d="M775.701 433.784H782.537V440.616H775.701V433.784Z" fill="white"/>
<path d="M766.379 433.784H773.215V440.616H766.379V433.784Z" fill="white"/>
<path d="M757.058 433.784H763.894V440.616H757.058V433.784Z" fill="white"/>
<path d="M747.86 433.784H754.696V440.616H747.86V433.784Z" fill="white"/>
<path d="M784.899 442.728H791.735V449.56H784.899V442.728Z" fill="white"/>
<path d="M775.701 442.728H782.537V449.56H775.701V442.728Z" fill="white"/>
<path d="M766.379 442.728H773.215V449.56H766.379V442.728Z" fill="white"/>
<path d="M757.058 442.728H763.894V449.56H757.058V442.728Z" fill="white"/>
<path d="M747.86 442.728H754.696V449.56H747.86V442.728Z" fill="white"/>
<path d="M784.899 451.672H791.735V458.504H784.899V451.672Z" fill="white"/>
<path d="M775.701 451.672H782.537V458.504H775.701V451.672Z" fill="white"/>
<path d="M766.379 451.672H773.215V458.504H766.379V451.672Z" fill="white"/>
<path d="M757.058 451.672H763.894V458.504H757.058V451.672Z" fill="white"/>
<path d="M747.86 451.672H754.696V458.504H747.86V451.672Z" fill="white"/>
<path d="M784.899 460.616H791.735V467.448H784.899V460.616Z" fill="white"/>
<path d="M775.701 460.616H782.537V467.448H775.701V460.616Z" fill="white"/>
<path d="M766.379 460.616H773.215V467.448H766.379V460.616Z" fill="white"/>
<path d="M757.058 460.616H763.894V467.448H757.058V460.616Z" fill="white"/>
<path d="M747.86 460.616H754.696V467.448H747.86V460.616Z" fill="white"/>
<path d="M784.899 469.56H791.735V476.392H784.899V469.56Z" fill="white"/>
<path d="M775.701 469.56H782.537V476.392H775.701V469.56Z" fill="white"/>
<path d="M766.379 469.56H773.215V476.392H766.379V469.56Z" fill="white"/>
<path d="M757.058 469.56H763.894V476.392H757.058V469.56Z" fill="white"/>
<path d="M747.86 469.56H754.696V476.392H747.86V469.56Z" fill="white"/>
<path d="M784.899 478.38H791.735V485.212H784.899V478.38Z" fill="white"/>
<path d="M775.701 478.38H782.537V485.212H775.701V478.38Z" fill="white"/>
<path d="M766.379 478.38H773.215V485.212H766.379V478.38Z" fill="white"/>
<path d="M757.058 478.38H763.894V485.212H757.058V478.38Z" fill="white"/>
<path d="M747.86 478.38H754.696V485.212H747.86V478.38Z" fill="white"/>
<path d="M784.899 487.324H791.735V494.156H784.899V487.324Z" fill="white"/>
<path d="M775.701 487.324H782.537V494.156H775.701V487.324Z" fill="white"/>
<path d="M766.379 487.324H773.215V494.156H766.379V487.324Z" fill="white"/>
<path d="M757.058 487.324H763.894V494.156H757.058V487.324Z" fill="white"/>
<path d="M747.86 487.324H754.696V494.156H747.86V487.324Z" fill="white"/>
<path d="M784.899 496.268H791.735V503.1H784.899V496.268Z" fill="white"/>
<path d="M775.701 496.268H782.537V503.1H775.701V496.268Z" fill="white"/>
<path d="M766.379 496.268H773.215V503.1H766.379V496.268Z" fill="white"/>
<path d="M757.058 496.268H763.894V503.1H757.058V496.268Z" fill="white"/>
<path d="M747.86 496.268H754.696V503.1H747.86V496.268Z" fill="white"/>
<path d="M784.899 505.212H791.735V512.044H784.899V505.212Z" fill="white"/>
<path d="M775.701 505.212H782.537V512.044H775.701V505.212Z" fill="white"/>
<path d="M766.379 505.212H773.215V512.044H766.379V505.212Z" fill="white"/>
<path d="M757.058 505.212H763.894V512.044H757.058V505.212Z" fill="white"/>
<path d="M747.86 505.212H754.696V512.044H747.86V505.212Z" fill="white"/>
<path d="M784.899 514.156H791.735V520.988H784.899V514.156Z" fill="white"/>
<path d="M775.701 514.156H782.537V520.988H775.701V514.156Z" fill="white"/>
<path d="M766.379 514.156H773.215V520.988H766.379V514.156Z" fill="white"/>
<path d="M757.058 514.156H763.894V520.988H757.058V514.156Z" fill="white"/>
<path d="M747.86 514.156H754.696V520.988H747.86V514.156Z" fill="white"/>
<path d="M784.899 522.976H791.735V529.808H784.899V522.976Z" fill="white"/>
<path d="M775.701 522.976H782.537V529.808H775.701V522.976Z" fill="white"/>
<path d="M766.379 522.976H773.215V529.808H766.379V522.976Z" fill="white"/>
<path d="M757.058 522.976H763.894V529.808H757.058V522.976Z" fill="white"/>
<path d="M747.86 522.976H754.696V529.808H747.86V522.976Z" fill="white"/>
<path d="M784.899 531.92H791.735V538.752H784.899V531.92Z" fill="white"/>
<path d="M775.701 531.92H782.537V538.752H775.701V531.92Z" fill="white"/>
<path d="M766.379 531.92H773.215V538.752H766.379V531.92Z" fill="white"/>
<path d="M757.058 531.92H763.894V538.752H757.058V531.92Z" fill="white"/>
<path d="M747.86 531.92H754.696V538.752H747.86V531.92Z" fill="white"/>
<path d="M784.899 540.864H791.735V547.696H784.899V540.864Z" fill="white"/>
<path d="M775.701 540.864H782.537V547.696H775.701V540.864Z" fill="white"/>
<path d="M766.379 540.864H773.215V547.696H766.379V540.864Z" fill="white"/>
<path d="M757.058 540.864H763.894V547.696H757.058V540.864Z" fill="white"/>
<path d="M747.86 540.864H754.696V547.696H747.86V540.864Z" fill="white"/>
<path d="M784.899 549.808H791.735V556.64H784.899V549.808Z" fill="white"/>
<path d="M775.701 549.808H782.537V556.64H775.701V549.808Z" fill="white"/>
<path d="M766.379 549.808H773.215V556.64H766.379V549.808Z" fill="white"/>
<path d="M757.058 549.808H763.894V556.64H757.058V549.808Z" fill="white"/>
<path d="M747.86 549.808H754.696V556.64H747.86V549.808Z" fill="white"/>
<path d="M784.899 558.751H791.735V565.584H784.899V558.751Z" fill="white"/>
<path d="M775.701 558.751H782.537V565.584H775.701V558.751Z" fill="white"/>
<path d="M766.379 558.751H773.215V565.584H766.379V558.751Z" fill="white"/>
<path d="M757.058 558.751H763.894V565.584H757.058V558.751Z" fill="white"/>
<path d="M747.86 558.751H754.696V565.584H747.86V558.751Z" fill="white"/>
<path d="M738.538 382.604H801.927V399.996H738.538V382.604Z" fill="#333333"/>
<path d="M619.094 382.604H709.578V399.996H619.094V382.604Z" fill="#4D4D4D"/>
<path d="M692.426 351.301H728.595V364.717H692.426V351.301Z" fill="#E6E6E6"/>
<path d="M710.448 337.885H728.595V351.301H710.448V337.885Z" fill="#4D4D4D"/>
<path d="M728.595 337.885H746.741V351.301H728.595V337.885Z" fill="#333333"/>
<path d="M728.595 351.301H756.312V364.717H728.595V351.301Z" fill="#B3B3B3"/>
<path d="M729.838 337.884L728.595 306.953L727.601 337.884H729.838Z" fill="#333333"/>
<path opacity="0.19" d="M615.614 407.076H622.45V413.908H615.614V407.076Z" fill="white"/>
<path opacity="0.24" d="M615.614 416.02H622.45V422.852H615.614V416.02Z" fill="white"/>
<path opacity="0.29" d="M615.614 424.964H622.45V431.796H615.614V424.964Z" fill="white"/>
<path opacity="0.39" d="M615.614 433.784H622.45V440.616H615.614V433.784Z" fill="white"/>
<path opacity="0.21" d="M615.614 442.728H622.45V449.56H615.614V442.728Z" fill="white"/>
<path opacity="0.48" d="M615.614 451.672H622.45V458.504H615.614V451.672Z" fill="white"/>
<path opacity="0.32" d="M615.614 460.616H622.45V467.448H615.614V460.616Z" fill="white"/>
<path opacity="0.13" d="M615.614 469.56H622.45V476.392H615.614V469.56Z" fill="white"/>
<path opacity="0.19" d="M615.614 478.38H622.45V485.212H615.614V478.38Z" fill="white"/>
<path opacity="0.03" d="M615.614 487.324H622.45V494.156H615.614V487.324Z" fill="white"/>
<path opacity="0.36" d="M615.614 496.268H622.45V503.1H615.614V496.268Z" fill="white"/>
<path opacity="0.25" d="M615.614 505.212H622.45V512.044H615.614V505.212Z" fill="white"/>
<path d="M615.614 514.156H622.45V520.988H615.614V514.156Z" fill="white"/>
<path d="M339.564 477.634H380.58V573.658H339.564V477.634Z" fill="#333333"/>
<path d="M361.936 472.79H380.58V478.255H361.936V472.79Z" fill="#333333"/>
<path d="M369.766 469.684H380.58V472.79H369.766V469.684Z" fill="#333333"/>
<path opacity="0.06" d="M356.716 484.342H363.427V489.311H356.716V484.342Z" fill="white"/>
<path opacity="0.12" d="M356.716 496.64H363.427V501.609H356.716V496.64Z" fill="white"/>
<path opacity="0.19" d="M356.716 521.236H363.427V526.205H356.716V521.236Z" fill="white"/>
<path opacity="0.14" d="M356.716 545.832H363.427V550.801H356.716V545.832Z" fill="white"/>
<path opacity="0.1" d="M356.716 558.13H363.427V563.099H356.716V558.13Z" fill="white"/>
<path d="M442.477 488.069H498.656V539.497H442.477V488.069Z" fill="#333333"/>
<path d="M451.301 483.473H489.707V505.584H451.301V483.473Z" fill="#333333"/>
<path d="M438.375 520.491H494.555V571.919H438.375V520.491Z" fill="#333333"/>
<path d="M447.324 515.895H485.73V538.006H447.324V515.895Z" fill="#333333"/>
<path d="M363.552 513.659H419.731V572.913H363.552V513.659Z" fill="#333333"/>
<path d="M372.376 508.441H410.782V534.031H372.376V508.441Z" fill="#333333"/>
<path d="M175.499 531.671H231.679V588.938H175.499V531.671Z" fill="#333333"/>
<path d="M184.324 526.578H222.73V551.298H184.324V526.578Z" fill="#333333"/>
<path d="M297.305 413.411H360.072V572.789H297.305V413.411Z" fill="#333333"/>
<path opacity="0.46" d="M341.801 420.616H356.964V423.474H341.801V420.616Z" fill="#E6E6E6"/>
<path opacity="0.34" d="M321.044 420.616H336.208V423.474H321.044V420.616Z" fill="#E6E6E6"/>
<path opacity="0.52" d="M300.412 420.616H315.575V423.474H300.412V420.616Z" fill="#E6E6E6"/>
<path opacity="0.54" d="M341.801 427.2H356.964V430.057H341.801V427.2Z" fill="#E6E6E6"/>
<path opacity="0.3" d="M321.044 427.2H336.208V430.057H321.044V427.2Z" fill="#E6E6E6"/>
<path opacity="0.06" d="M300.412 427.2H315.575V430.057H300.412V427.2Z" fill="#E6E6E6"/>
<path opacity="0.15" d="M341.801 433.784H356.964V436.641H341.801V433.784Z" fill="#E6E6E6"/>
<path opacity="0.42" d="M321.044 433.784H336.208V436.641H321.044V433.784Z" fill="#E6E6E6"/>
<path opacity="0.48" d="M300.412 433.784H315.575V436.641H300.412V433.784Z" fill="#E6E6E6"/>
<path opacity="0.18" d="M341.801 440.368H356.964V443.225H341.801V440.368Z" fill="#E6E6E6"/>
<path opacity="0.28" d="M300.412 440.368H315.575V443.225H300.412V440.368Z" fill="#E6E6E6"/>
<path opacity="0.29" d="M341.801 446.951H356.964V449.809H341.801V446.951Z" fill="#E6E6E6"/>
<path opacity="0.28" d="M321.044 446.951H336.208V449.809H321.044V446.951Z" fill="#E6E6E6"/>
<path opacity="0.56" d="M300.412 446.951H315.575V449.809H300.412V446.951Z" fill="#E6E6E6"/>
<path opacity="0.41" d="M341.801 453.535H356.964V456.392H341.801V453.535Z" fill="#E6E6E6"/>
<path opacity="0.16" d="M321.044 453.535H336.208V456.392H321.044V453.535Z" fill="#E6E6E6"/>
<path opacity="0.4" d="M300.412 453.535H315.575V456.392H300.412V453.535Z" fill="#E6E6E6"/>
<path opacity="0.1" d="M341.801 460.119H356.964V462.976H341.801V460.119Z" fill="#E6E6E6"/>
<path opacity="0.17" d="M321.044 460.119H336.208V462.976H321.044V460.119Z" fill="#E6E6E6"/>
<path opacity="0.08" d="M300.412 460.119H315.575V462.976H300.412V460.119Z" fill="#E6E6E6"/>
<path opacity="0.49" d="M341.801 466.703H356.964V469.56H341.801V466.703Z" fill="#E6E6E6"/>
<path opacity="0.58" d="M321.044 466.703H336.208V469.56H321.044V466.703Z" fill="#E6E6E6"/>
<path opacity="0.58" d="M300.412 466.703H315.575V469.56H300.412V466.703Z" fill="#E6E6E6"/>
<path opacity="0.26" d="M341.801 473.287H356.964V476.144H341.801V473.287Z" fill="#E6E6E6"/>
<path opacity="0.37" d="M321.044 473.287H336.208V476.144H321.044V473.287Z" fill="#E6E6E6"/>
<path opacity="0.34" d="M300.412 473.287H315.575V476.144H300.412V473.287Z" fill="#E6E6E6"/>
<path opacity="0.55" d="M341.801 479.87H356.964V482.727H341.801V479.87Z" fill="#E6E6E6"/>
<path opacity="0.12" d="M321.044 479.87H336.208V482.727H321.044V479.87Z" fill="#E6E6E6"/>
<path opacity="0.6" d="M300.412 479.87H315.575V482.727H300.412V479.87Z" fill="#E6E6E6"/>
<path opacity="0.02" d="M341.801 486.454H356.964V489.311H341.801V486.454Z" fill="#E6E6E6"/>
<path opacity="0.28" d="M321.044 486.454H336.208V489.311H321.044V486.454Z" fill="#E6E6E6"/>
<path opacity="0.21" d="M300.412 486.454H315.575V489.311H300.412V486.454Z" fill="#E6E6E6"/>
<path opacity="0.57" d="M341.801 493.038H356.964V495.895H341.801V493.038Z" fill="#E6E6E6"/>
<path opacity="0.38" d="M321.044 493.038H336.208V495.895H321.044V493.038Z" fill="#E6E6E6"/>
<path opacity="0.25" d="M300.412 493.038H315.575V495.895H300.412V493.038Z" fill="#E6E6E6"/>
<path opacity="0.15" d="M341.801 499.622H356.964V502.479H341.801V499.622Z" fill="#E6E6E6"/>
<path opacity="0.47" d="M321.044 499.622H336.208V502.479H321.044V499.622Z" fill="#E6E6E6"/>
<path opacity="0.3" d="M300.412 499.622H315.575V502.479H300.412V499.622Z" fill="#E6E6E6"/>
<path opacity="0.4" d="M341.801 506.206H356.964V509.063H341.801V506.206Z" fill="#E6E6E6"/>
<path opacity="0.39" d="M321.044 506.206H336.208V509.063H321.044V506.206Z" fill="#E6E6E6"/>
<path opacity="0.24" d="M300.412 506.206H315.575V509.063H300.412V506.206Z" fill="#E6E6E6"/>
<path opacity="0.46" d="M341.801 512.789H356.964V515.646H341.801V512.789Z" fill="#E6E6E6"/>
<path opacity="0.22" d="M321.044 512.789H336.208V515.646H321.044V512.789Z" fill="#E6E6E6"/>
<path opacity="0.11" d="M300.412 512.789H315.575V515.646H300.412V512.789Z" fill="#E6E6E6"/>
<path opacity="0.11" d="M321.044 519.373H336.208V522.23H321.044V519.373Z" fill="#E6E6E6"/>
<path opacity="0.02" d="M300.412 519.373H315.575V522.23H300.412V519.373Z" fill="#E6E6E6"/>
<path opacity="0.27" d="M341.801 525.957H356.964V528.814H341.801V525.957Z" fill="#E6E6E6"/>
<path opacity="0.21" d="M321.044 525.957H336.208V528.814H321.044V525.957Z" fill="#E6E6E6"/>
<path opacity="0.49" d="M300.412 525.957H315.575V528.814H300.412V525.957Z" fill="#E6E6E6"/>
<path opacity="0.6" d="M341.801 532.541H356.964V535.398H341.801V532.541Z" fill="#E6E6E6"/>
<path opacity="0.31" d="M321.044 532.541H336.208V535.398H321.044V532.541Z" fill="#E6E6E6"/>
<path opacity="0.22" d="M300.412 532.541H315.575V535.398H300.412V532.541Z" fill="#E6E6E6"/>
<path opacity="0.54" d="M341.801 539.125H356.964V541.982H341.801V539.125Z" fill="#E6E6E6"/>
<path opacity="0.6" d="M321.044 539.125H336.208V541.982H321.044V539.125Z" fill="#E6E6E6"/>
<path opacity="0.08" d="M300.412 539.125H315.575V541.982H300.412V539.125Z" fill="#E6E6E6"/>
<path opacity="0.55" d="M321.044 545.708H336.208V548.565H321.044V545.708Z" fill="#E6E6E6"/>
<path d="M300.412 545.708H315.575V548.565H300.412V545.708Z" fill="#E6E6E6"/>
<path opacity="0.6" d="M340.806 420.616H341.801V548.565H340.806V420.616Z" fill="#E6E6E6"/>
<path opacity="0.6" d="M315.575 420.616H316.57V548.565H315.575V420.616Z" fill="#E6E6E6"/>
<path d="M265.983 413.411H297.305V572.789H265.983V413.411Z" fill="#4D4D4D"/>
<path opacity="0.69" d="M270.582 420.616H294.197V423.474H270.582V420.616Z" fill="#E6E6E6"/>
<path opacity="0.79" d="M270.582 427.2H294.197V430.057H270.582V427.2Z" fill="#E6E6E6"/>
<path opacity="0.19" d="M270.582 433.784H294.197V436.641H270.582V433.784Z" fill="#E6E6E6"/>
<path opacity="0.88" d="M270.582 440.368H294.197V443.225H270.582V440.368Z" fill="#E6E6E6"/>
<path opacity="0.5" d="M270.582 446.951H294.197V449.809H270.582V446.951Z" fill="#E6E6E6"/>
<path opacity="0.25" d="M270.582 453.535H294.197V456.392H270.582V453.535Z" fill="#E6E6E6"/>
<path opacity="0.91" d="M270.582 460.119H294.197V462.976H270.582V460.119Z" fill="#E6E6E6"/>
<path opacity="0.02" d="M270.582 466.703H294.197V469.56H270.582V466.703Z" fill="#E6E6E6"/>
<path opacity="0.53" d="M270.582 473.287H294.197V476.144H270.582V473.287Z" fill="#E6E6E6"/>
<path opacity="0.65" d="M270.582 479.87H294.197V482.727H270.582V479.87Z" fill="#E6E6E6"/>
<path d="M270.582 486.454H294.197V489.311H270.582V486.454Z" fill="#E6E6E6"/>
<path opacity="0.8" d="M270.582 493.038H294.197V495.895H270.582V493.038Z" fill="#E6E6E6"/>
<path opacity="0.82" d="M270.582 499.622H294.197V502.479H270.582V499.622Z" fill="#E6E6E6"/>
<path opacity="0.75" d="M270.582 506.206H294.197V509.063H270.582V506.206Z" fill="#E6E6E6"/>
<path opacity="0.31" d="M270.582 512.789H294.197V515.646H270.582V512.789Z" fill="#E6E6E6"/>
<path opacity="0.22" d="M270.582 519.373H294.197V522.23H270.582V519.373Z" fill="#E6E6E6"/>
<path opacity="0.43" d="M270.582 525.957H294.197V528.814H270.582V525.957Z" fill="#E6E6E6"/>
<path opacity="0.68" d="M270.582 532.541H294.197V535.398H270.582V532.541Z" fill="#E6E6E6"/>
<path opacity="0.38" d="M270.582 539.125H294.197V541.982H270.582V539.125Z" fill="#E6E6E6"/>
<path opacity="0.84" d="M270.582 545.708H294.197V548.565H270.582V545.708Z" fill="#E6E6E6"/>
<path d="M349.01 404.964V413.411H308.366V404.964H349.01ZM339.936 410.679H344.162V407.821H339.936V410.679ZM333.349 410.679H337.451V407.821H333.349V410.679ZM326.637 410.679H330.739V407.821H326.637V410.679ZM319.926 410.679H324.151V407.821H319.926V410.679ZM313.214 410.679H317.44V407.821H313.214V410.679Z" fill="#333333"/>
<path d="M300.909 407.822H302.028V410.679H300.909V407.822Z" fill="#333333"/>
<path d="M308.366 404.964V413.411H289.226V404.964H308.366ZM300.909 410.679H305.011V407.821H300.909V410.679ZM292.084 410.679H296.186V407.821H292.084V410.679Z" fill="#4D4D4D"/>
<path d="M292.209 407.822H293.327V410.679H292.209V407.822Z" fill="#333333"/>
<path d="M288.977 583.596H373.495L288.977 521.236V583.596Z" fill="#333333"/>
<path d="M415.008 379.623H421.844V405.586H415.008V379.623Z" fill="#4D4D4D"/>
<path d="M421.72 379.623H428.68V405.586H421.72V379.623Z" fill="#333333"/>
<path d="M407.924 379.623H414.884V405.586H407.924V379.623Z" fill="#666666"/>
<path d="M387.789 423.349H407.178V571.422H387.789V423.349Z" fill="#666666"/>
<path d="M429.923 423.349H446.827V571.422H429.923V423.349Z" fill="#333333"/>
<path d="M407.178 423.349H430.048V571.422H407.178V423.349Z" fill="#4D4D4D"/>
<path opacity="0.6" d="M441.979 427.697H444.465V569.435H441.979V427.697Z" fill="#E6E6E6"/>
<path opacity="0.6" d="M437.132 427.697H439.618V569.435H437.132V427.697Z" fill="#E6E6E6"/>
<path opacity="0.6" d="M432.285 427.697H434.771V569.435H432.285V427.697Z" fill="#E6E6E6"/>
<path d="M403.325 427.697H405.811V569.435H403.325V427.697Z" fill="#E6E6E6"/>
<path d="M398.478 427.697H400.963V569.435H398.478V427.697Z" fill="#E6E6E6"/>
<path d="M389.031 427.697H391.517V569.435H389.031V427.697Z" fill="#E6E6E6"/>
<path d="M393.63 427.697H396.116V569.435H393.63V427.697Z" fill="#E6E6E6"/>
<path opacity="0.8" d="M427.189 569.435H410.037V427.697H427.189V569.435ZM424.454 430.181H412.771V566.95H424.454V430.181Z" fill="#E6E6E6"/>
<path opacity="0.8" d="M422.217 564.59H414.884V432.417H422.217V564.59ZM419.731 435.523H418.861H418.364H417.37V561.484H418.364H418.861H419.731V435.523Z" fill="#E6E6E6"/>
<path opacity="0.8" d="M418.364 435.523H418.861V561.484H418.364V435.523Z" fill="#E6E6E6"/>
<path d="M409.788 397.387H426.94V423.349H409.788V397.387Z" fill="#4D4D4D"/>
<path d="M409.788 397.387H426.94V423.349H409.788V397.387Z" fill="#4D4D4D"/>
<path d="M392.636 397.387H409.788V423.349H392.636V397.387Z" fill="#666666"/>
<path d="M426.94 397.387H444.092V423.349H426.94V397.387Z" fill="#333333"/>
<path d="M408.048 379.623H428.68L421.844 384.343H414.884L408.048 379.623Z" fill="#808080"/>
<path d="M39.276 370.058H49.2193V399.25H39.276V370.058Z" fill="#4D4D4D"/>
<path d="M49.3436 370.058H59.2869V399.25H49.3436V370.058Z" fill="#333333"/>
<path d="M29.3326 370.058H39.276V399.25H29.3326V370.058Z" fill="#666666"/>
<path d="M0 419.374H28.0898V586.204H0V419.374Z" fill="#666666"/>
<path d="M61.1513 419.374H85.5123V586.204H61.1513V419.374Z" fill="#333333"/>
<path d="M28.0898 419.374H61.1513V586.204H28.0898V419.374Z" fill="#4D4D4D"/>
<path opacity="0.4" d="M78.5521 424.343H82.1564V583.969H78.5521V424.343Z" fill="#E6E6E6"/>
<path opacity="0.4" d="M71.4674 424.343H75.0719V583.969H71.4674V424.343Z" fill="#E6E6E6"/>
<path opacity="0.4" d="M64.3828 424.343H67.9873V583.969H64.3828V424.343Z" fill="#E6E6E6"/>
<path d="M22.4966 424.343H26.1011V583.969H22.4966V424.343Z" fill="#E6E6E6"/>
<path d="M15.4121 424.343H19.0165V583.969H15.4121V424.343Z" fill="#E6E6E6"/>
<path d="M1.86438 424.343H5.46881V583.969H1.86438V424.343Z" fill="#E6E6E6"/>
<path d="M8.45178 424.343H12.0563V583.969H8.45178V424.343Z" fill="#E6E6E6"/>
<path d="M56.9254 583.969H32.0671V424.343H56.9254V583.969ZM53.0724 427.076H36.1687V581.236H53.0724V427.076Z" fill="#E6E6E6"/>
<path d="M49.9651 578.627H39.276V429.685H49.9651V578.627ZM46.2364 433.163H44.8691H44.2476H42.8805V575.149H44.2476H44.8691H46.2364V433.163Z" fill="#E6E6E6"/>
<path d="M44.2476 433.163H44.8691V575.149H44.2476V433.163Z" fill="#E6E6E6"/>
<path d="M31.8185 390.182H56.6768V419.374H31.8185V390.182Z" fill="#4D4D4D"/>
<path d="M31.8185 390.182H56.6768V419.374H31.8185V390.182Z" fill="#4D4D4D"/>
<path d="M6.96027 390.182H31.8185V419.374H6.96027V390.182Z" fill="#666666"/>
<path d="M56.5525 390.182H81.4108V419.374H56.5525V390.182Z" fill="#333333"/>
<path d="M29.2084 370.058H59.2869L49.2193 375.399H39.276L29.2084 370.058Z" fill="#808080"/>
<path d="M110.992 442.479H178.979V465.088H110.992V442.479Z" fill="#E6E6E6"/>
<path d="M152.257 442.479H178.979V465.088H152.257V442.479Z" fill="#B3B3B3"/>
<path d="M152.257 465.212H205.08V575.025H152.257V465.212Z" fill="#333333"/>
<path d="M69.7273 465.212H152.257V575.025H69.7273V465.212Z" fill="#4D4D4D"/>
<path d="M158.72 454.032H199.363V465.212H158.72V454.032Z" fill="#333333"/>
<path d="M82.0322 454.032H140.076V465.212H82.0322V454.032Z" fill="#4D4D4D"/>
<path d="M129.014 433.908H152.257V442.479H129.014V433.908Z" fill="#E6E6E6"/>
<path d="M140.698 425.213H152.257V433.784H140.698V425.213Z" fill="#4D4D4D"/>
<path d="M152.381 425.213H163.94V433.784H152.381V425.213Z" fill="#333333"/>
<path d="M152.257 433.908H170.03V442.479H152.257V433.908Z" fill="#B3B3B3"/>
<path d="M153.002 425.213L152.257 405.337L151.635 425.213H153.002Z" fill="#333333"/>
<path opacity="0.12" d="M188.425 469.684H192.776V474.032H188.425V469.684Z" fill="white"/>
<path opacity="0.25" d="M182.459 469.684H186.81V474.032H182.459V469.684Z" fill="white"/>
<path opacity="0.36" d="M176.494 469.684H180.844V474.032H176.494V469.684Z" fill="white"/>
<path opacity="0.12" d="M170.528 469.684H174.878V474.032H170.528V469.684Z" fill="white"/>
<path opacity="0.14" d="M164.562 469.684H168.912V474.032H164.562V469.684Z" fill="white"/>
<path opacity="0.28" d="M188.425 475.399H192.776V479.746H188.425V475.399Z" fill="white"/>
<path opacity="0.4" d="M182.459 475.399H186.81V479.746H182.459V475.399Z" fill="white"/>
<path opacity="0.16" d="M176.494 475.399H180.844V479.746H176.494V475.399Z" fill="white"/>
<path opacity="0.17" d="M164.562 475.399H168.912V479.746H164.562V475.399Z" fill="white"/>
<path opacity="0.27" d="M188.425 481.113H192.776V485.461H188.425V481.113Z" fill="white"/>
<path opacity="0.45" d="M182.459 481.113H186.81V485.461H182.459V481.113Z" fill="white"/>
<path opacity="0.45" d="M176.494 481.113H180.844V485.461H176.494V481.113Z" fill="white"/>
<path opacity="0.48" d="M170.528 481.113H174.878V485.461H170.528V481.113Z" fill="white"/>
<path opacity="0.25" d="M164.562 481.113H168.912V485.461H164.562V481.113Z" fill="white"/>
<path opacity="0.28" d="M188.425 486.827H192.776V491.175H188.425V486.827Z" fill="white"/>
<path opacity="0.13" d="M182.459 486.827H186.81V491.175H182.459V486.827Z" fill="white"/>
<path opacity="0.07" d="M176.494 486.827H180.844V491.175H176.494V486.827Z" fill="white"/>
<path opacity="0.39" d="M170.528 486.827H174.878V491.175H170.528V486.827Z" fill="white"/>
<path opacity="0.47" d="M164.562 486.827H168.912V491.175H164.562V486.827Z" fill="white"/>
<path opacity="0.28" d="M188.425 492.541H192.776V496.889H188.425V492.541Z" fill="white"/>
<path opacity="0.2" d="M182.459 492.541H186.81V496.889H182.459V492.541Z" fill="white"/>
<path opacity="0.04" d="M176.494 492.541H180.844V496.889H176.494V492.541Z" fill="white"/>
<path opacity="0.43" d="M170.528 492.541H174.878V496.889H170.528V492.541Z" fill="white"/>
<path opacity="0.48" d="M164.562 492.541H168.912V496.889H164.562V492.541Z" fill="white"/>
<path opacity="0.28" d="M188.425 498.255H192.776V502.603H188.425V498.255Z" fill="white"/>
<path opacity="0.19" d="M182.459 498.255H186.81V502.603H182.459V498.255Z" fill="white"/>
<path opacity="0.01" d="M176.494 498.255H180.844V502.603H176.494V498.255Z" fill="white"/>
<path opacity="0.27" d="M170.528 498.255H174.878V502.603H170.528V498.255Z" fill="white"/>
<path opacity="0.24" d="M164.562 498.255H168.912V502.603H164.562V498.255Z" fill="white"/>
<path opacity="0.07" d="M188.425 504.094H192.776V508.442H188.425V504.094Z" fill="white"/>
<path opacity="0.25" d="M182.459 504.094H186.81V508.442H182.459V504.094Z" fill="white"/>
<path opacity="0.26" d="M176.494 504.094H180.844V508.442H176.494V504.094Z" fill="white"/>
<path opacity="0.39" d="M170.528 504.094H174.878V508.442H170.528V504.094Z" fill="white"/>
<path opacity="0.22" d="M164.562 504.094H168.912V508.442H164.562V504.094Z" fill="white"/>
<path opacity="0.15" d="M188.425 509.808H192.776V514.156H188.425V509.808Z" fill="white"/>
<path opacity="0.23" d="M182.459 509.808H186.81V514.156H182.459V509.808Z" fill="white"/>
<path opacity="0.05" d="M176.494 509.808H180.844V514.156H176.494V509.808Z" fill="white"/>
<path opacity="0.2" d="M170.528 509.808H174.878V514.156H170.528V509.808Z" fill="white"/>
<path opacity="0.31" d="M164.562 509.808H168.912V514.156H164.562V509.808Z" fill="white"/>
<path opacity="0.15" d="M188.425 515.522H192.776V519.87H188.425V515.522Z" fill="white"/>
<path opacity="0.33" d="M182.459 515.522H186.81V519.87H182.459V515.522Z" fill="white"/>
<path opacity="0.46" d="M176.494 515.522H180.844V519.87H176.494V515.522Z" fill="white"/>
<path opacity="0.25" d="M170.528 515.522H174.878V519.87H170.528V515.522Z" fill="white"/>
<path opacity="0.43" d="M164.562 515.522H168.912V519.87H164.562V515.522Z" fill="white"/>
<path opacity="0.4" d="M188.425 521.237H192.776V525.584H188.425V521.237Z" fill="white"/>
<path opacity="0.39" d="M182.459 521.237H186.81V525.584H182.459V521.237Z" fill="white"/>
<path opacity="0.01" d="M176.494 521.237H180.844V525.584H176.494V521.237Z" fill="white"/>
<path opacity="0.12" d="M170.528 521.237H174.878V525.584H170.528V521.237Z" fill="white"/>
<path opacity="0.07" d="M164.562 521.237H168.912V525.584H164.562V521.237Z" fill="white"/>
<path opacity="0.07" d="M188.425 526.951H192.776V531.299H188.425V526.951Z" fill="white"/>
<path opacity="0.02" d="M182.459 526.951H186.81V531.299H182.459V526.951Z" fill="white"/>
<path opacity="0.12" d="M176.494 526.951H180.844V531.299H176.494V526.951Z" fill="white"/>
<path opacity="0.23" d="M170.528 526.951H174.878V531.299H170.528V526.951Z" fill="white"/>
<path opacity="0.26" d="M164.562 526.951H168.912V531.299H164.562V526.951Z" fill="white"/>
<path opacity="0.27" d="M188.425 532.665H192.776V537.013H188.425V532.665Z" fill="white"/>
<path opacity="0.38" d="M182.459 532.665H186.81V537.013H182.459V532.665Z" fill="white"/>
<path opacity="0.05" d="M176.494 532.665H180.844V537.013H176.494V532.665Z" fill="white"/>
<path opacity="0.45" d="M170.528 532.665H174.878V537.013H170.528V532.665Z" fill="white"/>
<path opacity="0.15" d="M164.562 532.665H168.912V537.013H164.562V532.665Z" fill="white"/>
<path opacity="0.06" d="M188.425 538.379H192.776V542.727H188.425V538.379Z" fill="white"/>
<path opacity="0.47" d="M182.459 538.379H186.81V542.727H182.459V538.379Z" fill="white"/>
<path opacity="0.15" d="M176.494 538.379H180.844V542.727H176.494V538.379Z" fill="white"/>
<path opacity="0.44" d="M170.528 538.379H174.878V542.727H170.528V538.379Z" fill="white"/>
<path opacity="0.14" d="M164.562 538.379H168.912V542.727H164.562V538.379Z" fill="white"/>
<path opacity="0.15" d="M188.425 544.094H192.776V548.441H188.425V544.094Z" fill="white"/>
<path opacity="0.43" d="M182.459 544.094H186.81V548.441H182.459V544.094Z" fill="white"/>
<path opacity="0.07" d="M176.494 544.094H180.844V548.441H176.494V544.094Z" fill="white"/>
<path opacity="0.47" d="M170.528 544.094H174.878V548.441H170.528V544.094Z" fill="white"/>
<path opacity="0.11" d="M164.562 544.094H168.912V548.441H164.562V544.094Z" fill="white"/>
<path opacity="0.07" d="M188.425 549.808H192.776V554.155H188.425V549.808Z" fill="white"/>
<path opacity="0.34" d="M182.459 549.808H186.81V554.155H182.459V549.808Z" fill="white"/>
<path opacity="0.5" d="M176.494 549.808H180.844V554.155H176.494V549.808Z" fill="white"/>
<path opacity="0.36" d="M170.528 549.808H174.878V554.155H170.528V549.808Z" fill="white"/>
<path opacity="0.34" d="M164.562 549.808H168.912V554.155H164.562V549.808Z" fill="white"/>
<path opacity="0.47" d="M188.425 555.522H192.776V559.87H188.425V555.522Z" fill="white"/>
<path opacity="0.41" d="M182.459 555.522H186.81V559.87H182.459V555.522Z" fill="white"/>
<path opacity="0.3" d="M176.494 555.522H180.844V559.87H176.494V555.522Z" fill="white"/>
<path opacity="0.33" d="M170.528 555.522H174.878V559.87H170.528V555.522Z" fill="white"/>
<path opacity="0.12" d="M164.562 555.522H168.912V559.87H164.562V555.522Z" fill="white"/>
<path opacity="0.3" d="M137.839 469.684H142.189V474.032H137.839V469.684Z" fill="white"/>
<path opacity="0.72" d="M132.122 469.684H136.472V474.032H132.122V469.684Z" fill="white"/>
<path opacity="0.7" d="M126.28 469.684H130.63V474.032H126.28V469.684Z" fill="white"/>
<path opacity="0.52" d="M120.438 469.684H124.788V474.032H120.438V469.684Z" fill="white"/>
<path opacity="0.2" d="M114.596 469.684H118.947V474.032H114.596V469.684Z" fill="white"/>
<path opacity="0.32" d="M108.879 469.684H113.229V474.032H108.879V469.684Z" fill="white"/>
<path opacity="0.13" d="M103.037 469.684H107.388V474.032H103.037V469.684Z" fill="white"/>
<path opacity="0.38" d="M97.1957 469.684H101.546V474.032H97.1957V469.684Z" fill="white"/>
<path opacity="0.61" d="M91.4783 469.684H95.8285V474.032H91.4783V469.684Z" fill="white"/>
<path d="M85.6367 469.684H89.9869V474.032H85.6367V469.684Z" fill="white"/>
<path opacity="0.91" d="M79.795 469.684H84.1451V474.032H79.795V469.684Z" fill="white"/>
<path opacity="0.66" d="M137.839 475.399H142.189V479.746H137.839V475.399Z" fill="white"/>
<path opacity="0.31" d="M132.122 475.399H136.472V479.746H132.122V475.399Z" fill="white"/>
<path opacity="0.95" d="M126.28 475.399H130.63V479.746H126.28V475.399Z" fill="white"/>
<path opacity="0.7" d="M120.438 475.399H124.788V479.746H120.438V475.399Z" fill="white"/>
<path opacity="0.12" d="M114.596 475.399H118.947V479.746H114.596V475.399Z" fill="white"/>
<path opacity="0.24" d="M108.879 475.399H113.229V479.746H108.879V475.399Z" fill="white"/>
<path opacity="0.66" d="M103.037 475.399H107.388V479.746H103.037V475.399Z" fill="white"/>
<path opacity="0.71" d="M97.1957 475.399H101.546V479.746H97.1957V475.399Z" fill="white"/>
<path opacity="0.42" d="M91.4783 475.399H95.8285V479.746H91.4783V475.399Z" fill="white"/>
<path opacity="0.09" d="M85.6367 475.399H89.9869V479.746H85.6367V475.399Z" fill="white"/>
<path opacity="0.32" d="M79.795 475.399H84.1451V479.746H79.795V475.399Z" fill="white"/>
<path opacity="0.65" d="M137.839 481.113H142.189V485.461H137.839V481.113Z" fill="white"/>
<path d="M132.122 481.113H136.472V485.461H132.122V481.113Z" fill="white"/>
<path d="M126.28 481.113H130.63V485.461H126.28V481.113Z" fill="white"/>
<path opacity="0.71" d="M120.438 481.113H124.788V485.461H120.438V481.113Z" fill="white"/>
<path opacity="0.2" d="M114.596 481.113H118.947V485.461H114.596V481.113Z" fill="white"/>
<path opacity="0.19" d="M108.879 481.113H113.229V485.461H108.879V481.113Z" fill="white"/>
<path opacity="0.62" d="M103.037 481.113H107.388V485.461H103.037V481.113Z" fill="white"/>
<path opacity="0.93" d="M97.1957 481.113H101.546V485.461H97.1957V481.113Z" fill="white"/>
<path opacity="0.56" d="M91.4783 481.113H95.8285V485.461H91.4783V481.113Z" fill="white"/>
<path opacity="0.57" d="M85.6367 481.113H89.9869V485.461H85.6367V481.113Z" fill="white"/>
<path opacity="0.52" d="M79.795 481.113H84.1451V485.461H79.795V481.113Z" fill="white"/>
<path opacity="0.74" d="M137.839 486.827H142.189V491.175H137.839V486.827Z" fill="white"/>
<path opacity="0.56" d="M132.122 486.827H136.472V491.175H132.122V486.827Z" fill="white"/>
<path opacity="0.78" d="M126.28 486.827H130.63V491.175H126.28V486.827Z" fill="white"/>
<path opacity="0.41" d="M120.438 486.827H124.788V491.175H120.438V486.827Z" fill="white"/>
<path opacity="0.14" d="M114.596 486.827H118.947V491.175H114.596V486.827Z" fill="white"/>
<path opacity="0.28" d="M108.879 486.827H113.229V491.175H108.879V486.827Z" fill="white"/>
<path opacity="0.36" d="M103.037 486.827H107.388V491.175H103.037V486.827Z" fill="white"/>
<path opacity="0.14" d="M97.1957 486.827H101.546V491.175H97.1957V486.827Z" fill="white"/>
<path opacity="0.5" d="M91.4783 486.827H95.8285V491.175H91.4783V486.827Z" fill="white"/>
<path opacity="0.98" d="M85.6367 486.827H89.9869V491.175H85.6367V486.827Z" fill="white"/>
<path opacity="0.59" d="M79.795 486.827H84.1451V491.175H79.795V486.827Z" fill="white"/>
<path opacity="0.07" d="M137.839 492.541H142.189V496.889H137.839V492.541Z" fill="white"/>
<path opacity="0.1" d="M132.122 492.541H136.472V496.889H132.122V492.541Z" fill="white"/>
<path opacity="0.88" d="M126.28 492.541H130.63V496.889H126.28V492.541Z" fill="white"/>
<path opacity="0.68" d="M120.438 492.541H124.788V496.889H120.438V492.541Z" fill="white"/>
<path opacity="0.81" d="M114.596 492.541H118.947V496.889H114.596V492.541Z" fill="white"/>
<path opacity="0.62" d="M108.879 492.541H113.229V496.889H108.879V492.541Z" fill="white"/>
<path opacity="0.97" d="M103.037 492.541H107.388V496.889H103.037V492.541Z" fill="white"/>
<path opacity="0.81" d="M97.1957 492.541H101.546V496.889H97.1957V492.541Z" fill="white"/>
<path opacity="0.79" d="M91.4783 492.541H95.8285V496.889H91.4783V492.541Z" fill="white"/>
<path opacity="0.03" d="M85.6367 492.541H89.9869V496.889H85.6367V492.541Z" fill="white"/>
<path opacity="0.95" d="M79.795 492.541H84.1451V496.889H79.795V492.541Z" fill="white"/>
<path opacity="0.62" d="M137.839 498.255H142.189V502.603H137.839V498.255Z" fill="white"/>
<path opacity="0.22" d="M132.122 498.255H136.472V502.603H132.122V498.255Z" fill="white"/>
<path opacity="0.42" d="M126.28 498.255H130.63V502.603H126.28V498.255Z" fill="white"/>
<path opacity="0.56" d="M120.438 498.255H124.788V502.603H120.438V498.255Z" fill="white"/>
<path opacity="0.03" d="M114.596 498.255H118.947V502.603H114.596V498.255Z" fill="white"/>
<path opacity="0.64" d="M108.879 498.255H113.229V502.603H108.879V498.255Z" fill="white"/>
<path opacity="0.82" d="M103.037 498.255H107.388V502.603H103.037V498.255Z" fill="white"/>
<path opacity="0.52" d="M97.1957 498.255H101.546V502.603H97.1957V498.255Z" fill="white"/>
<path opacity="0.46" d="M91.4783 498.255H95.8285V502.603H91.4783V498.255Z" fill="white"/>
<path opacity="0.27" d="M85.6367 498.255H89.9869V502.603H85.6367V498.255Z" fill="white"/>
<path opacity="0.46" d="M79.795 498.255H84.1451V502.603H79.795V498.255Z" fill="white"/>
<path opacity="0.66" d="M137.839 504.094H142.189V508.442H137.839V504.094Z" fill="white"/>
<path opacity="0.7" d="M132.122 504.094H136.472V508.442H132.122V504.094Z" fill="white"/>
<path opacity="0.94" d="M126.28 504.094H130.63V508.442H126.28V504.094Z" fill="white"/>
<path opacity="0.5" d="M120.438 504.094H124.788V508.442H120.438V504.094Z" fill="white"/>
<path opacity="0.12" d="M114.596 504.094H118.947V508.442H114.596V504.094Z" fill="white"/>
<path opacity="0.36" d="M108.879 504.094H113.229V508.442H108.879V504.094Z" fill="white"/>
<path opacity="0.51" d="M103.037 504.094H107.388V508.442H103.037V504.094Z" fill="white"/>
<path opacity="0.37" d="M97.1957 504.094H101.546V508.442H97.1957V504.094Z" fill="white"/>
<path opacity="0.66" d="M91.4783 504.094H95.8285V508.442H91.4783V504.094Z" fill="white"/>
<path opacity="0.42" d="M85.6367 504.094H89.9869V508.442H85.6367V504.094Z" fill="white"/>
<path opacity="0.5" d="M79.795 504.094H84.1451V508.442H79.795V504.094Z" fill="white"/>
<path opacity="0.52" d="M137.839 509.808H142.189V514.156H137.839V509.808Z" fill="white"/>
<path opacity="0.61" d="M132.122 509.808H136.472V514.156H132.122V509.808Z" fill="white"/>
<path opacity="0.84" d="M126.28 509.808H130.63V514.156H126.28V509.808Z" fill="white"/>
<path opacity="0.89" d="M120.438 509.808H124.788V514.156H120.438V509.808Z" fill="white"/>
<path opacity="0.33" d="M114.596 509.808H118.947V514.156H114.596V509.808Z" fill="white"/>
<path opacity="0.25" d="M108.879 509.808H113.229V514.156H108.879V509.808Z" fill="white"/>
<path opacity="0.95" d="M103.037 509.808H107.388V514.156H103.037V509.808Z" fill="white"/>
<path opacity="0.09" d="M97.1957 509.808H101.546V514.156H97.1957V509.808Z" fill="white"/>
<path opacity="0.44" d="M91.4783 509.808H95.8285V514.156H91.4783V509.808Z" fill="white"/>
<path opacity="0.51" d="M85.6367 509.808H89.9869V514.156H85.6367V509.808Z" fill="white"/>
<path opacity="0.97" d="M79.795 509.808H84.1451V514.156H79.795V509.808Z" fill="white"/>
<path opacity="0.26" d="M137.839 515.522H142.189V519.87H137.839V515.522Z" fill="white"/>
<path opacity="0.92" d="M132.122 515.522H136.472V519.87H132.122V515.522Z" fill="white"/>
<path opacity="0.33" d="M126.28 515.522H130.63V519.87H126.28V515.522Z" fill="white"/>
<path opacity="0.23" d="M120.438 515.522H124.788V519.87H120.438V515.522Z" fill="white"/>
<path opacity="0.42" d="M114.596 515.522H118.947V519.87H114.596V515.522Z" fill="white"/>
<path opacity="0.57" d="M108.879 515.522H113.229V519.87H108.879V515.522Z" fill="white"/>
<path opacity="0.73" d="M103.037 515.522H107.388V519.87H103.037V515.522Z" fill="white"/>
<path opacity="0.87" d="M97.1957 515.522H101.546V519.87H97.1957V515.522Z" fill="white"/>
<path opacity="0.22" d="M91.4783 515.522H95.8285V519.87H91.4783V515.522Z" fill="white"/>
<path opacity="0.89" d="M85.6367 515.522H89.9869V519.87H85.6367V515.522Z" fill="white"/>
<path opacity="0.73" d="M79.795 515.522H84.1451V519.87H79.795V515.522Z" fill="white"/>
<path opacity="0.35" d="M137.839 521.237H142.189V525.584H137.839V521.237Z" fill="white"/>
<path opacity="0.81" d="M132.122 521.237H136.472V525.584H132.122V521.237Z" fill="white"/>
<path opacity="0.56" d="M126.28 521.237H130.63V525.584H126.28V521.237Z" fill="white"/>
<path opacity="0.81" d="M120.438 521.237H124.788V525.584H120.438V521.237Z" fill="white"/>
<path opacity="0.87" d="M114.596 521.237H118.947V525.584H114.596V521.237Z" fill="white"/>
<path opacity="0.39" d="M108.879 521.237H113.229V525.584H108.879V521.237Z" fill="white"/>
<path opacity="0.31" d="M103.037 521.237H107.388V525.584H103.037V521.237Z" fill="white"/>
<path opacity="0.98" d="M97.1957 521.237H101.546V525.584H97.1957V521.237Z" fill="white"/>
<path opacity="0.17" d="M91.4783 521.237H95.8285V525.584H91.4783V521.237Z" fill="white"/>
<path opacity="0.06" d="M85.6367 521.237H89.9869V525.584H85.6367V521.237Z" fill="white"/>
<path opacity="0.57" d="M79.795 521.237H84.1451V525.584H79.795V521.237Z" fill="white"/>
<path opacity="0.67" d="M137.839 526.951H142.189V531.299H137.839V526.951Z" fill="white"/>
<path opacity="0.83" d="M132.122 526.951H136.472V531.299H132.122V526.951Z" fill="white"/>
<path opacity="0.99" d="M126.28 526.951H130.63V531.299H126.28V526.951Z" fill="white"/>
<path opacity="0.62" d="M120.438 526.951H124.788V531.299H120.438V526.951Z" fill="white"/>
<path opacity="0.87" d="M114.596 526.951H118.947V531.299H114.596V526.951Z" fill="white"/>
<path opacity="0.14" d="M108.879 526.951H113.229V531.299H108.879V526.951Z" fill="white"/>
<path opacity="0.12" d="M103.037 526.951H107.388V531.299H103.037V526.951Z" fill="white"/>
<path opacity="0.11" d="M97.1957 526.951H101.546V531.299H97.1957V526.951Z" fill="white"/>
<path opacity="0.39" d="M91.4783 526.951H95.8285V531.299H91.4783V526.951Z" fill="white"/>
<path opacity="0.58" d="M85.6367 526.951H89.9869V531.299H85.6367V526.951Z" fill="white"/>
<path opacity="0.54" d="M79.795 526.951H84.1451V531.299H79.795V526.951Z" fill="white"/>
<path opacity="0.99" d="M137.839 532.665H142.189V537.013H137.839V532.665Z" fill="white"/>
<path opacity="0.28" d="M132.122 532.665H136.472V537.013H132.122V532.665Z" fill="white"/>
<path opacity="0.78" d="M126.28 532.665H130.63V537.013H126.28V532.665Z" fill="white"/>
<path opacity="0.65" d="M120.438 532.665H124.788V537.013H120.438V532.665Z" fill="white"/>
<path opacity="0.32" d="M114.596 532.665H118.947V537.013H114.596V532.665Z" fill="white"/>
<path opacity="0.55" d="M108.879 532.665H113.229V537.013H108.879V532.665Z" fill="white"/>
<path opacity="0.4" d="M103.037 532.665H107.388V537.013H103.037V532.665Z" fill="white"/>
<path opacity="0.22" d="M97.1957 532.665H101.546V537.013H97.1957V532.665Z" fill="white"/>
<path opacity="0.87" d="M91.4783 532.665H95.8285V537.013H91.4783V532.665Z" fill="white"/>
<path opacity="0.02" d="M85.6367 532.665H89.9869V537.013H85.6367V532.665Z" fill="white"/>
<path opacity="0.39" d="M79.795 532.665H84.1451V537.013H79.795V532.665Z" fill="white"/>
<path opacity="0.89" d="M137.839 538.379H142.189V542.727H137.839V538.379Z" fill="white"/>
<path opacity="0.97" d="M132.122 538.379H136.472V542.727H132.122V538.379Z" fill="white"/>
<path opacity="0.79" d="M126.28 538.379H130.63V542.727H126.28V538.379Z" fill="white"/>
<path opacity="0.41" d="M120.438 538.379H124.788V542.727H120.438V538.379Z" fill="white"/>
<path opacity="0.13" d="M114.596 538.379H118.947V542.727H114.596V538.379Z" fill="white"/>
<path opacity="0.9" d="M108.879 538.379H113.229V542.727H108.879V538.379Z" fill="white"/>
<path opacity="0.98" d="M103.037 538.379H107.388V542.727H103.037V538.379Z" fill="white"/>
<path opacity="0.67" d="M97.1957 538.379H101.546V542.727H97.1957V538.379Z" fill="white"/>
<path opacity="0.65" d="M91.4783 538.379H95.8285V542.727H91.4783V538.379Z" fill="white"/>
<path opacity="0.89" d="M85.6367 538.379H89.9869V542.727H85.6367V538.379Z" fill="white"/>
<path opacity="0.98" d="M79.795 538.379H84.1451V542.727H79.795V538.379Z" fill="white"/>
<path opacity="0.29" d="M137.839 544.094H142.189V548.441H137.839V544.094Z" fill="white"/>
<path opacity="0.74" d="M132.122 544.094H136.472V548.441H132.122V544.094Z" fill="white"/>
<path opacity="0.64" d="M126.28 544.094H130.63V548.441H126.28V544.094Z" fill="white"/>
<path opacity="0.65" d="M120.438 544.094H124.788V548.441H120.438V544.094Z" fill="white"/>
<path opacity="0.07" d="M114.596 544.094H118.947V548.441H114.596V544.094Z" fill="white"/>
<path opacity="0.16" d="M108.879 544.094H113.229V548.441H108.879V544.094Z" fill="white"/>
<path opacity="0.84" d="M103.037 544.094H107.388V548.441H103.037V544.094Z" fill="white"/>
<path opacity="0.88" d="M97.1957 544.094H101.546V548.441H97.1957V544.094Z" fill="white"/>
<path opacity="0.57" d="M91.4783 544.094H95.8285V548.441H91.4783V544.094Z" fill="white"/>
<path opacity="0.31" d="M85.6367 544.094H89.9869V548.441H85.6367V544.094Z" fill="white"/>
<path opacity="0.03" d="M79.795 544.094H84.1451V548.441H79.795V544.094Z" fill="white"/>
<path opacity="0.3" d="M137.839 549.808H142.189V554.155H137.839V549.808Z" fill="white"/>
<path opacity="0.59" d="M132.122 549.808H136.472V554.155H132.122V549.808Z" fill="white"/>
<path opacity="0.93" d="M126.28 549.808H130.63V554.155H126.28V549.808Z" fill="white"/>
<path opacity="0.06" d="M120.438 549.808H124.788V554.155H120.438V549.808Z" fill="white"/>
<path opacity="0.74" d="M114.596 549.808H118.947V554.155H114.596V549.808Z" fill="white"/>
<path opacity="0.22" d="M108.879 549.808H113.229V554.155H108.879V549.808Z" fill="white"/>
<path opacity="0.51" d="M103.037 549.808H107.388V554.155H103.037V549.808Z" fill="white"/>
<path opacity="0.7" d="M97.1957 549.808H101.546V554.155H97.1957V549.808Z" fill="white"/>
<path opacity="0.47" d="M91.4783 549.808H95.8285V554.155H91.4783V549.808Z" fill="white"/>
<path opacity="0.08" d="M85.6367 549.808H89.9869V554.155H85.6367V549.808Z" fill="white"/>
<path opacity="0.93" d="M79.795 549.808H84.1451V554.155H79.795V549.808Z" fill="white"/>
<path opacity="0.81" d="M137.839 555.522H142.189V559.87H137.839V555.522Z" fill="white"/>
<path opacity="0.9" d="M132.122 555.522H136.472V559.87H132.122V555.522Z" fill="white"/>
<path opacity="0.55" d="M126.28 555.522H130.63V559.87H126.28V555.522Z" fill="white"/>
<path opacity="0.14" d="M120.438 555.522H124.788V559.87H120.438V555.522Z" fill="white"/>
<path opacity="0.66" d="M114.596 555.522H118.947V559.87H114.596V555.522Z" fill="white"/>
<path opacity="0.92" d="M108.879 555.522H113.229V559.87H108.879V555.522Z" fill="white"/>
<path opacity="0.4" d="M103.037 555.522H107.388V559.87H103.037V555.522Z" fill="white"/>
<path opacity="0.6" d="M97.1957 555.522H101.546V559.87H97.1957V555.522Z" fill="white"/>
<path opacity="0.99" d="M91.4783 555.522H95.8285V559.87H91.4783V555.522Z" fill="white"/>
<path opacity="0.68" d="M85.6367 555.522H89.9869V559.87H85.6367V555.522Z" fill="white"/>
<path opacity="0.01" d="M79.795 555.522H84.1451V559.87H79.795V555.522Z" fill="white"/>
<path d="M211.295 441.734H252.311V570.18H211.295V441.734Z" fill="#333333"/>
<path d="M233.667 435.274H252.311V442.479H233.667V435.274Z" fill="#333333"/>
<path d="M241.498 431.051H252.311V435.275H241.498V431.051Z" fill="#333333"/>
<path opacity="0.25" d="M228.571 450.802H235.283V457.51H228.571V450.802Z" fill="white"/>
<path opacity="0.15" d="M228.571 467.324H235.283V474.032H228.571V467.324Z" fill="white"/>
<path opacity="0.19" d="M228.571 500.243H235.283V506.951H228.571V500.243Z" fill="white"/>
<path opacity="0.17" d="M228.571 516.64H235.283V523.348H228.571V516.64Z" fill="white"/>
<path opacity="0.22" d="M228.571 533.037H235.283V539.745H228.571V533.037Z" fill="white"/>
<path d="M228.571 549.559H235.283V556.267H228.571V549.559Z" fill="white"/>
<path d="M241.746 513.286H280.152V524.591H241.746V513.286Z" fill="#333333"/>
<path d="M222.606 513.286H241.746V524.591H222.606V513.286Z" fill="#4D4D4D"/>
<path d="M280.152 513.286L268.22 507.572L241.746 513.286H280.152Z" fill="#333333"/>
<path d="M268.22 507.572L241.746 513.286H222.606L268.22 507.572Z" fill="#4D4D4D"/>
<path d="M232.797 521.236H288.977V572.664H232.797V521.236Z" fill="#333333"/>
<path d="M214.154 521.236H232.797V572.664H214.154V521.236Z" fill="#4D4D4D"/>
<path opacity="0.81" d="M218.504 524.839H228.571V528.565H218.504V524.839Z" fill="white"/>
<path opacity="0.76" d="M218.504 531.671H228.571V535.398H218.504V531.671Z" fill="white"/>
<path opacity="0.32" d="M218.504 538.503H228.571V542.23H218.504V538.503Z" fill="white"/>
<path opacity="0.49" d="M218.504 545.46H228.571V549.186H218.504V545.46Z" fill="white"/>
<path opacity="0.1" d="M269.96 524.839H280.028V528.565H269.96V524.839Z" fill="white"/>
<path opacity="0.04" d="M255.916 524.839H265.983V528.565H255.916V524.839Z" fill="white"/>
<path opacity="0.07" d="M241.746 524.839H251.814V528.565H241.746V524.839Z" fill="white"/>
<path opacity="0.06" d="M269.96 531.671H280.028V535.398H269.96V531.671Z" fill="white"/>
<path opacity="0.44" d="M255.916 531.671H265.983V535.398H255.916V531.671Z" fill="white"/>
<path opacity="0.24" d="M241.746 531.671H251.814V535.398H241.746V531.671Z" fill="white"/>
<path opacity="0.55" d="M269.96 538.503H280.028V542.23H269.96V538.503Z" fill="white"/>
<path opacity="0.02" d="M255.916 538.503H265.983V542.23H255.916V538.503Z" fill="white"/>
<path opacity="0.14" d="M241.746 538.503H251.814V542.23H241.746V538.503Z" fill="white"/>
<path opacity="0.43" d="M269.96 545.46H280.028V549.186H269.96V545.46Z" fill="white"/>
<path opacity="0.41" d="M255.916 545.46H265.983V549.186H255.916V545.46Z" fill="white"/>
<path opacity="0.46" d="M241.746 545.46H251.814V549.186H241.746V545.46Z" fill="white"/>
<path opacity="0.45" d="M269.96 552.292H280.028V556.019H269.96V552.292Z" fill="white"/>
<path opacity="0.33" d="M255.916 552.292H265.983V556.019H255.916V552.292Z" fill="white"/>
<path opacity="0.05" d="M241.746 552.292H251.814V556.019H241.746V552.292Z" fill="white"/>
<path d="M506.114 469.808H540.915V577.012H506.114V469.808Z" fill="#333333"/>
<path d="M466.465 469.808H505.989V577.012H466.465V469.808Z" fill="#4D4D4D"/>
<path d="M506.114 478.877H540.915V480.74H506.114V478.877Z" fill="#4D4D4D"/>
<path d="M466.465 478.877H505.989V480.74H466.465V478.877Z" fill="#333333"/>
<path opacity="0.47" d="M534.328 482.852H538.057V486.578H534.328V482.852Z" fill="white"/>
<path opacity="0.26" d="M529.232 482.852H532.961V486.578H529.232V482.852Z" fill="white"/>
<path opacity="0.32" d="M524.136 482.852H527.865V486.578H524.136V482.852Z" fill="white"/>
<path opacity="0.25" d="M519.04 482.852H522.769V486.578H519.04V482.852Z" fill="white"/>
<path opacity="0.12" d="M508.848 482.852H512.577V486.578H508.848V482.852Z" fill="white"/>
<path opacity="0.32" d="M534.328 487.945H538.057V491.671H534.328V487.945Z" fill="white"/>
<path opacity="0.22" d="M524.136 487.945H527.865V491.671H524.136V487.945Z" fill="white"/>
<path opacity="0.47" d="M519.04 487.945H522.769V491.671H519.04V487.945Z" fill="white"/>
<path opacity="0.22" d="M513.944 487.945H517.673V491.671H513.944V487.945Z" fill="white"/>
<path opacity="0.32" d="M508.848 487.945H512.577V491.671H508.848V487.945Z" fill="white"/>
<path opacity="0.37" d="M534.328 493.038H538.057V496.765H534.328V493.038Z" fill="white"/>
<path opacity="0.34" d="M529.232 493.038H532.961V496.765H529.232V493.038Z" fill="white"/>
<path opacity="0.18" d="M524.136 493.038H527.865V496.765H524.136V493.038Z" fill="white"/>
<path opacity="0.28" d="M519.04 493.038H522.769V496.765H519.04V493.038Z" fill="white"/>
<path opacity="0.2" d="M508.848 493.038H512.577V496.765H508.848V493.038Z" fill="white"/>
<path opacity="0.18" d="M534.328 498.131H538.057V501.858H534.328V498.131Z" fill="white"/>
<path opacity="0.33" d="M524.136 498.131H527.865V501.858H524.136V498.131Z" fill="white"/>
<path opacity="0.05" d="M519.04 498.131H522.769V501.858H519.04V498.131Z" fill="white"/>
<path opacity="0.08" d="M513.944 498.131H517.673V501.858H513.944V498.131Z" fill="white"/>
<path opacity="0.08" d="M519.04 503.224H522.769V506.951H519.04V503.224Z" fill="white"/>
<path opacity="0.02" d="M513.944 503.224H517.673V506.951H513.944V503.224Z" fill="white"/>
<path opacity="0.03" d="M534.328 508.317H538.057V512.044H534.328V508.317Z" fill="white"/>
<path opacity="0.46" d="M529.232 508.317H532.961V512.044H529.232V508.317Z" fill="white"/>
<path opacity="0.05" d="M524.136 508.317H527.865V512.044H524.136V508.317Z" fill="white"/>
<path opacity="0.2" d="M519.04 508.317H522.769V512.044H519.04V508.317Z" fill="white"/>
<path opacity="0.23" d="M513.944 508.317H517.673V512.044H513.944V508.317Z" fill="white"/>
<path opacity="0.17" d="M534.328 513.41H538.057V517.137H534.328V513.41Z" fill="white"/>
<path opacity="0.08" d="M529.232 513.41H532.961V517.137H529.232V513.41Z" fill="white"/>
<path opacity="0.14" d="M524.136 513.41H527.865V517.137H524.136V513.41Z" fill="white"/>
<path opacity="0.24" d="M513.944 513.41H517.673V517.137H513.944V513.41Z" fill="white"/>
<path opacity="0.28" d="M534.328 518.503H538.057V522.23H534.328V518.503Z" fill="white"/>
<path opacity="0.3" d="M529.232 518.503H532.961V522.23H529.232V518.503Z" fill="white"/>
<path opacity="0.23" d="M524.136 518.503H527.865V522.23H524.136V518.503Z" fill="white"/>
<path opacity="0.02" d="M519.04 518.503H522.769V522.23H519.04V518.503Z" fill="white"/>
<path opacity="0.04" d="M513.944 518.503H517.673V522.23H513.944V518.503Z" fill="white"/>
<path opacity="0.3" d="M508.848 518.503H512.577V522.23H508.848V518.503Z" fill="white"/>
<path opacity="0.08" d="M529.232 523.472H532.961V527.199H529.232V523.472Z" fill="white"/>
<path opacity="0.4" d="M508.848 523.472H512.577V527.199H508.848V523.472Z" fill="white"/>
<path opacity="0.31" d="M534.328 528.565H538.057V532.292H534.328V528.565Z" fill="white"/>
<path opacity="0.31" d="M529.232 528.565H532.961V532.292H529.232V528.565Z" fill="white"/>
<path opacity="0.12" d="M524.136 528.565H527.865V532.292H524.136V528.565Z" fill="white"/>
<path opacity="0.19" d="M513.944 528.565H517.673V532.292H513.944V528.565Z" fill="white"/>
<path opacity="0.43" d="M508.848 528.565H512.577V532.292H508.848V528.565Z" fill="white"/>
<path opacity="0.12" d="M534.328 533.659H538.057V537.385H534.328V533.659Z" fill="white"/>
<path opacity="0.42" d="M519.04 533.659H522.769V537.385H519.04V533.659Z" fill="white"/>
<path opacity="0.31" d="M508.848 533.659H512.577V537.385H508.848V533.659Z" fill="white"/>
<path opacity="0.23" d="M534.328 538.752H538.057V542.478H534.328V538.752Z" fill="white"/>
<path opacity="0.31" d="M519.04 538.752H522.769V542.478H519.04V538.752Z" fill="white"/>
<path opacity="0.33" d="M508.848 538.752H512.577V542.478H508.848V538.752Z" fill="white"/>
<path opacity="0.49" d="M534.328 543.845H538.057V547.572H534.328V543.845Z" fill="white"/>
<path opacity="0.06" d="M529.232 543.845H532.961V547.572H529.232V543.845Z" fill="white"/>
<path opacity="0.17" d="M519.04 543.845H522.769V547.572H519.04V543.845Z" fill="white"/>
<path opacity="0.01" d="M513.944 543.845H517.673V547.572H513.944V543.845Z" fill="white"/>
<path opacity="0.48" d="M508.848 543.845H512.577V547.572H508.848V543.845Z" fill="white"/>
<path opacity="0.05" d="M534.328 548.938H538.057V552.665H534.328V548.938Z" fill="white"/>
<path opacity="0.23" d="M529.232 548.938H532.961V552.665H529.232V548.938Z" fill="white"/>
<path opacity="0.28" d="M524.136 548.938H527.865V552.665H524.136V548.938Z" fill="white"/>
<path opacity="0.02" d="M519.04 548.938H522.769V552.665H519.04V548.938Z" fill="white"/>
<path opacity="0.17" d="M513.944 548.938H517.673V552.665H513.944V548.938Z" fill="white"/>
<path opacity="0.42" d="M508.848 548.938H512.577V552.665H508.848V548.938Z" fill="white"/>
<path opacity="0.13" d="M534.328 554.031H538.057V557.758H534.328V554.031Z" fill="white"/>
<path opacity="0.11" d="M524.136 554.031H527.865V557.758H524.136V554.031Z" fill="white"/>
<path opacity="0.02" d="M519.04 554.031H522.769V557.758H519.04V554.031Z" fill="white"/>
<path opacity="0.3" d="M508.848 554.031H512.577V557.758H508.848V554.031Z" fill="white"/>
<path opacity="0.08" d="M513.944 482.852H517.673V486.578H513.944V482.852Z" fill="white"/>
<path opacity="0.1" d="M529.232 487.945H532.961V491.671H529.232V487.945Z" fill="white"/>
<path opacity="0.08" d="M513.944 493.038H517.673V496.765H513.944V493.038Z" fill="white"/>
<path opacity="0.1" d="M529.232 498.131H532.961V501.858H529.232V498.131Z" fill="white"/>
<path opacity="0.01" d="M508.848 498.131H512.577V501.858H508.848V498.131Z" fill="white"/>
<path opacity="0.17" d="M534.328 503.224H538.057V506.951H534.328V503.224Z" fill="white"/>
<path opacity="0.01" d="M529.232 503.224H532.961V506.951H529.232V503.224Z" fill="white"/>
<path opacity="0.15" d="M524.136 503.224H527.865V506.951H524.136V503.224Z" fill="white"/>
<path opacity="0.12" d="M508.848 503.224H512.577V506.951H508.848V503.224Z" fill="white"/>
<path opacity="0.13" d="M519.04 513.41H522.769V517.137H519.04V513.41Z" fill="white"/>
<path opacity="0.07" d="M508.848 513.41H512.577V517.137H508.848V513.41Z" fill="white"/>
<path opacity="0.13" d="M534.328 523.472H538.057V527.199H534.328V523.472Z" fill="white"/>
<path opacity="0.02" d="M524.136 523.472H527.865V527.199H524.136V523.472Z" fill="white"/>
<path opacity="0.02" d="M519.04 523.472H522.769V527.199H519.04V523.472Z" fill="white"/>
<path opacity="0.14" d="M513.944 523.472H517.673V527.199H513.944V523.472Z" fill="white"/>
<path opacity="0.09" d="M524.136 533.659H527.865V537.385H524.136V533.659Z" fill="white"/>
<path opacity="0.02" d="M513.944 533.659H517.673V537.385H513.944V533.659Z" fill="white"/>
<path opacity="0.19" d="M524.136 538.752H527.865V542.478H524.136V538.752Z" fill="white"/>
<path opacity="0.06" d="M513.944 538.752H517.673V542.478H513.944V538.752Z" fill="white"/>
<path opacity="0.16" d="M524.136 543.845H527.865V547.572H524.136V543.845Z" fill="white"/>
<path opacity="0.19" d="M529.232 554.031H532.961V557.758H529.232V554.031Z" fill="white"/>
<path opacity="0.04" d="M513.944 554.031H517.673V557.758H513.944V554.031Z" fill="white"/>
<g opacity="0.7">
<path opacity="0.7" d="M498.532 480.74H502.385V572.292H498.532V480.74Z" fill="#E6E6E6"/>
<path opacity="0.7" d="M491.945 480.74H495.798V572.292H491.945V480.74Z" fill="#E6E6E6"/>
<path opacity="0.7" d="M485.233 480.74H489.086V572.292H485.233V480.74Z" fill="#E6E6E6"/>
<path opacity="0.7" d="M478.521 480.74H482.374V572.292H478.521V480.74Z" fill="#E6E6E6"/>
<path opacity="0.7" d="M471.809 480.74H475.662V572.292H471.809V480.74Z" fill="#E6E6E6"/>
</g>
<path d="M583.671 417.262L591.377 396.89L570.745 417.262H583.671Z" fill="#4D4D4D"/>
<path d="M601.694 417.262L591.377 396.89L583.671 417.262H601.694Z" fill="#333333"/>
<path d="M583.671 417.262H601.694V439.001H583.671V417.262Z" fill="#333333"/>
<path d="M570.745 417.262H583.671V439.001H570.745V417.262Z" fill="#4D4D4D"/>
<path d="M565.401 515.025H619.964V577.509H565.401V515.025Z" fill="#333333"/>
<path d="M572.858 470.305H612.383V515.025H572.858V470.305Z" fill="#333333"/>
<path d="M578.575 425.585H606.665V470.305H578.575V425.585Z" fill="#333333"/>
<path d="M559.31 425.585H578.7V470.305H559.31V425.585Z" fill="#4D4D4D"/>
<path d="M531.842 515.025H565.401V577.509H531.842V515.025Z" fill="#4D4D4D"/>
<path d="M547.378 470.305H572.858V515.025H547.378V470.305Z" fill="#4D4D4D"/>
<path opacity="0.53" d="M566.022 428.815H571.864V434.653H566.022V428.815Z" fill="white"/>
<path opacity="0.34" d="M566.022 436.144H571.864V441.982H566.022V436.144Z" fill="white"/>
<path opacity="0.9" d="M566.022 443.349H571.864V449.187H566.022V443.349Z" fill="white"/>
<path opacity="0.14" d="M566.022 450.554H571.864V456.392H566.022V450.554Z" fill="white"/>
<path d="M566.022 457.883H571.864V463.721H566.022V457.883Z" fill="white"/>
<path opacity="0.29" d="M561.672 474.156H567.514V479.994H561.672V474.156Z" fill="white"/>
<path opacity="0.81" d="M552.723 474.156H558.565V479.994H552.723V474.156Z" fill="white"/>
<path opacity="0.18" d="M561.672 481.485H567.514V487.324H561.672V481.485Z" fill="white"/>
<path opacity="0.41" d="M552.723 481.485H558.565V487.324H552.723V481.485Z" fill="white"/>
<path opacity="0.03" d="M552.723 488.938H558.565V494.777H552.723V488.938Z" fill="white"/>
<path opacity="0.85" d="M561.672 496.392H567.514V502.23H561.672V496.392Z" fill="white"/>
<path opacity="0.06" d="M552.723 496.392H558.565V502.23H552.723V496.392Z" fill="white"/>
<path opacity="0.94" d="M561.672 503.721H567.514V509.559H561.672V503.721Z" fill="white"/>
<path opacity="0.25" d="M552.723 503.721H558.565V509.559H552.723V503.721Z" fill="white"/>
<path opacity="0.6" d="M553.469 518.876H559.31V524.714H553.469V518.876Z" fill="white"/>
<path opacity="0.83" d="M545.638 518.876H551.48V524.714H545.638V518.876Z" fill="white"/>
<path opacity="0.74" d="M537.808 518.876H543.65V524.714H537.808V518.876Z" fill="white"/>
<path opacity="0.35" d="M545.638 525.957H551.48V531.795H545.638V525.957Z" fill="white"/>
<path opacity="0.54" d="M537.808 525.957H543.65V531.795H537.808V525.957Z" fill="white"/>
<path opacity="0.2" d="M553.469 533.037H559.31V538.876H553.469V533.037Z" fill="white"/>
<path opacity="0.04" d="M545.638 533.037H551.48V538.876H545.638V533.037Z" fill="white"/>
<path opacity="0.86" d="M537.808 533.037H543.65V538.876H537.808V533.037Z" fill="white"/>
<path opacity="0.06" d="M553.469 540.118H559.31V545.957H553.469V540.118Z" fill="white"/>
<path opacity="0.01" d="M545.638 540.118H551.48V545.957H545.638V540.118Z" fill="white"/>
<path opacity="0.39" d="M537.808 540.118H543.65V545.957H537.808V540.118Z" fill="white"/>
<path opacity="0.1" d="M553.469 547.323H559.31V553.161H553.469V547.323Z" fill="white"/>
<path d="M545.638 547.323H551.48V553.161H545.638V547.323Z" fill="white"/>
<path opacity="0.62" d="M537.808 547.323H543.65V553.161H537.808V547.323Z" fill="white"/>
<path opacity="0.48" d="M553.469 554.652H559.31V560.491H553.469V554.652Z" fill="white"/>
<path opacity="0.27" d="M545.638 554.652H551.48V560.491H545.638V554.652Z" fill="white"/>
<path opacity="0.42" d="M537.808 554.652H543.65V560.491H537.808V554.652Z" fill="white"/>
<path opacity="0.27" d="M608.281 518.876H614.123V524.714H608.281V518.876Z" fill="white"/>
<path opacity="0.11" d="M601.694 474.156H607.535V479.994H601.694V474.156Z" fill="white"/>
<path opacity="0.41" d="M597.095 428.815H602.937V434.653H597.095V428.815Z" fill="white"/>
<path opacity="0.38" d="M589.762 428.815H595.603V434.653H589.762V428.815Z" fill="white"/>
<path opacity="0.02" d="M582.304 428.815H588.146V434.653H582.304V428.815Z" fill="white"/>
<path opacity="0.46" d="M597.095 436.144H602.937V441.982H597.095V436.144Z" fill="white"/>
<path opacity="0.31" d="M589.762 436.144H595.603V441.982H589.762V436.144Z" fill="white"/>
<path opacity="0.61" d="M582.304 436.144H588.146V441.982H582.304V436.144Z" fill="white"/>
<path opacity="0.03" d="M597.095 443.349H602.937V449.187H597.095V443.349Z" fill="white"/>
<path opacity="0.03" d="M589.762 443.349H595.603V449.187H589.762V443.349Z" fill="white"/>
<path opacity="0.46" d="M582.304 443.349H588.146V449.187H582.304V443.349Z" fill="white"/>
<path opacity="0.32" d="M597.095 450.554H602.937V456.392H597.095V450.554Z" fill="white"/>
<path opacity="0.14" d="M589.762 450.554H595.603V456.392H589.762V450.554Z" fill="white"/>
<path opacity="0.3" d="M582.304 450.554H588.146V456.392H582.304V450.554Z" fill="white"/>
<path opacity="0.04" d="M597.095 457.883H602.937V463.721H597.095V457.883Z" fill="white"/>
<path opacity="0.64" d="M589.762 457.883H595.603V463.721H589.762V457.883Z" fill="white"/>
<path opacity="0.05" d="M582.304 457.883H588.146V463.721H582.304V457.883Z" fill="white"/>
<path opacity="0.15" d="M594.236 474.156H600.078V479.994H594.236V474.156Z" fill="white"/>
<path opacity="0.15" d="M586.779 474.156H592.62V479.994H586.779V474.156Z" fill="white"/>
<path opacity="0.52" d="M579.445 474.156H585.287V479.994H579.445V474.156Z" fill="white"/>
<path opacity="0.58" d="M601.694 481.485H607.535V487.324H601.694V481.485Z" fill="white"/>
<path opacity="0.62" d="M594.236 481.485H600.078V487.324H594.236V481.485Z" fill="white"/>
<path opacity="0.04" d="M586.779 481.485H592.62V487.324H586.779V481.485Z" fill="white"/>
<path opacity="0.06" d="M579.445 481.485H585.287V487.324H579.445V481.485Z" fill="white"/>
<path opacity="0.3" d="M601.694 488.938H607.535V494.777H601.694V488.938Z" fill="white"/>
<path opacity="0.01" d="M594.236 488.938H600.078V494.777H594.236V488.938Z" fill="white"/>
<path opacity="0.37" d="M586.779 488.938H592.62V494.777H586.779V488.938Z" fill="white"/>
<path opacity="0.62" d="M579.445 488.938H585.287V494.777H579.445V488.938Z" fill="white"/>
<path opacity="0.54" d="M601.694 496.392H607.535V502.23H601.694V496.392Z" fill="white"/>
<path opacity="0.21" d="M594.236 496.392H600.078V502.23H594.236V496.392Z" fill="white"/>
<path opacity="0.41" d="M586.779 496.392H592.62V502.23H586.779V496.392Z" fill="white"/>
<path opacity="0.1" d="M579.445 496.392H585.287V502.23H579.445V496.392Z" fill="white"/>
<path opacity="0.17" d="M601.694 503.721H607.535V509.559H601.694V503.721Z" fill="white"/>
<path opacity="0.17" d="M594.236 503.721H600.078V509.559H594.236V503.721Z" fill="white"/>
<path opacity="0.13" d="M586.779 503.721H592.62V509.559H586.779V503.721Z" fill="white"/>
<path opacity="0.5" d="M579.445 503.721H585.287V509.559H579.445V503.721Z" fill="white"/>
<path opacity="0.06" d="M600.824 518.876H606.665V524.714H600.824V518.876Z" fill="white"/>
<path opacity="0.27" d="M593.49 518.876H599.332V524.714H593.49V518.876Z" fill="white"/>
<path opacity="0.51" d="M586.033 518.876H591.875V524.714H586.033V518.876Z" fill="white"/>
<path opacity="0.42" d="M578.575 518.876H584.417V524.714H578.575V518.876Z" fill="white"/>
<path opacity="0.64" d="M571.242 518.876H577.084V524.714H571.242V518.876Z" fill="white"/>
<path opacity="0.29" d="M608.281 525.957H614.123V531.795H608.281V525.957Z" fill="white"/>
<path opacity="0.6" d="M600.824 525.957H606.665V531.795H600.824V525.957Z" fill="white"/>
<path opacity="0.2" d="M593.49 525.957H599.332V531.795H593.49V525.957Z" fill="white"/>
<path opacity="0.24" d="M586.033 525.957H591.875V531.795H586.033V525.957Z" fill="white"/>
<path opacity="0.62" d="M578.575 525.957H584.417V531.795H578.575V525.957Z" fill="white"/>
<path opacity="0.62" d="M571.242 525.957H577.084V531.795H571.242V525.957Z" fill="white"/>
<path opacity="0.25" d="M608.281 533.037H614.123V538.876H608.281V533.037Z" fill="white"/>
<path opacity="0.36" d="M600.824 533.037H606.665V538.876H600.824V533.037Z" fill="white"/>
<path opacity="0.16" d="M593.49 533.037H599.332V538.876H593.49V533.037Z" fill="white"/>
<path opacity="0.1" d="M586.033 533.037H591.875V538.876H586.033V533.037Z" fill="white"/>
<path opacity="0.04" d="M578.575 533.037H584.417V538.876H578.575V533.037Z" fill="white"/>
<path opacity="0.44" d="M571.242 533.037H577.084V538.876H571.242V533.037Z" fill="white"/>
<path opacity="0.68" d="M608.281 540.118H614.123V545.957H608.281V540.118Z" fill="white"/>
<path opacity="0.01" d="M600.824 540.118H606.665V545.957H600.824V540.118Z" fill="white"/>
<path opacity="0.29" d="M593.49 540.118H599.332V545.957H593.49V540.118Z" fill="white"/>
<path opacity="0.66" d="M586.033 540.118H591.875V545.957H586.033V540.118Z" fill="white"/>
<path opacity="0.12" d="M578.575 540.118H584.417V545.957H578.575V540.118Z" fill="white"/>
<path opacity="0.34" d="M571.242 540.118H577.084V545.957H571.242V540.118Z" fill="white"/>
<path opacity="0.36" d="M608.281 547.323H614.123V553.161H608.281V547.323Z" fill="white"/>
<path opacity="0.5" d="M600.824 547.323H606.665V553.161H600.824V547.323Z" fill="white"/>
<path opacity="0.07" d="M593.49 547.323H599.332V553.161H593.49V547.323Z" fill="white"/>
<path opacity="0.64" d="M586.033 547.323H591.875V553.161H586.033V547.323Z" fill="white"/>
<path opacity="0.4" d="M578.575 547.323H584.417V553.161H578.575V547.323Z" fill="white"/>
<path opacity="0.27" d="M571.242 547.323H577.084V553.161H571.242V547.323Z" fill="white"/>
<path opacity="0.09" d="M608.281 554.652H614.123V560.491H608.281V554.652Z" fill="white"/>
<path opacity="0.47" d="M600.824 554.652H606.665V560.491H600.824V554.652Z" fill="white"/>
<path opacity="0.57" d="M593.49 554.652H599.332V560.491H593.49V554.652Z" fill="white"/>
<path opacity="0.12" d="M586.033 554.652H591.875V560.491H586.033V554.652Z" fill="white"/>
<path opacity="0.23" d="M578.575 554.652H584.417V560.491H578.575V554.652Z" fill="white"/>
<path opacity="0.36" d="M571.242 554.652H577.084V560.491H571.242V554.652Z" fill="white"/>
<path d="M446.578 572.292H523.887L446.578 504.963V572.292Z" fill="#333333"/>
<path d="M612.383 573.658H719.522L612.383 480.491V573.658Z" fill="#333333"/>
<path d="M455.154 556.888H477.775V563.845H455.154V556.888Z" fill="#4D4D4D"/>
<path d="M457.764 559H475.289L469.199 548.814H463.855L457.764 559Z" fill="#4D4D4D"/>
<path d="M551.853 566.702C551.853 571.546 555.706 575.521 560.429 575.521C565.152 575.521 569.005 571.546 569.005 566.702C569.005 561.857 565.152 557.882 560.429 557.882C555.706 557.758 551.853 561.733 551.853 566.702Z" fill="#333333"/>
<path d="M321.044 562.851C321.044 566.081 323.654 568.814 326.762 568.814C329.869 568.814 332.479 566.205 332.479 562.851C332.479 559.621 329.869 556.888 326.762 556.888C323.654 556.888 321.044 559.621 321.044 562.851Z" fill="#333333"/>
<path d="M521.277 563.223C521.277 566.577 523.887 569.31 527.243 569.31C530.475 569.31 533.209 566.577 533.209 563.223C533.209 559.869 530.599 557.136 527.243 557.136C523.887 557.136 521.277 559.869 521.277 563.223Z" fill="#333333"/>
</g>
<defs>
<clipPath id="clip0">
<rect width="811" height="559" fill="white" transform="matrix(-1 0 0 1 811 0)"/>
</clipPath>
</defs>
</svg>
