<svg xmlns="http://www.w3.org/2000/svg" width="112" height="112" fill="none" viewBox="0 0 112 112">
    <circle cx="56" cy="46" r="36" fill="#E3B873" filter="url(#a)"/>
    <path fill="#fff" stroke="#fff" stroke-width=".1" d="M56.34 53.278a.68.68 0 0 0-.687.671v1.325a.68.68 0 0 0 .687.67c.378 0 .686-.298.686-.67v-1.325a.68.68 0 0 0-.686-.67z"/>
    <path fill="#fff" stroke="#fff" stroke-width=".1" d="M73.058 44a13.125 13.125 0 0 0-2.926-5.882 13.654 13.654 0 0 0-5.22-3.717c-.33-1.336-1.02-2.713-2.373-3.75-1.319-1.01-2.646-1.205-2.705-1.213a.699.699 0 0 0-.547.157.664.664 0 0 0-.237.507v3.303h-2.225c-.589-1.914-2.41-3.312-4.562-3.312-2.198 0-4.053 1.46-4.6 3.44a13.677 13.677 0 0 0-8.194 4.23l.037.033-.037-.034c-2.269 2.442-3.519 5.603-3.519 8.9 0 7.39 3.934 13.4 5.14 15.066a2.06 2.06 0 0 0 1.668.841h2.711c1.127 0 2.046-.894 2.046-1.996v-.801c.67.097 1.35.147 2.03.147h6.108v.654c0 1.102.919 1.996 2.046 1.996h2.977c.958 0 1.8-.662 2-1.577l.32-1.457c4.177-1.001 7.536-3.858 9.2-7.564h2.488c.752 0 1.366-.597 1.366-1.334v-5.3a1.31 1.31 0 0 0-.4-.943 1.374 1.374 0 0 0-.966-.39h-1.625V44zm1.618 6.587v.041h-1.965c.336-1.043.543-2.14.603-3.268a.677.677 0 0 0-.65-.705.681.681 0 0 0-.722.635c-.267 5.023-3.756 9.316-8.62 10.766l.872-3.966a.671.671 0 0 0-.528-.797.687.687 0 0 0-.816.515l-1.517 6.902a.672.672 0 0 1-.657.517h-2.978a.664.664 0 0 1-.671-.654v-2.65a.68.68 0 0 0-.687-.67.68.68 0 0 0-.687.67v.654h-6.108c-.681 0-1.362-.056-2.03-.164v-4.464a.679.679 0 0 0-.687-.671.68.68 0 0 0-.687.671v6.624c0 .36-.3.654-.672.654h-2.71a.665.665 0 0 1-.548-.274c-1.147-1.585-4.887-7.299-4.887-14.29 0-2.964 1.123-5.804 3.162-7.998l-.036-.035.036.034a12.285 12.285 0 0 1 7.018-3.75c.015.388.08.771.191 1.141h-.188c-.378 0-.686.3-.686.671a.68.68 0 0 0 .686.671h9.512a.68.68 0 0 0 .687-.671.68.68 0 0 0-.687-.671h-.188c.128-.422.195-.863.196-1.308h2.023v1.317c0 .371.309.67.687.67a.68.68 0 0 0 .687-.67V30.99c.594.229 1.419.677 2.105 1.533.711.887 1.277 2.217 1.277 4.203a.68.68 0 0 0 .687.671c.378 0 .687-.3.687-.67 0-.239-.008-.489-.026-.746 1.499.724 2.844 1.75 3.929 3.003a11.792 11.792 0 0 1 2.629 5.285c.13.625.693 1.078 1.337 1.077h1.627v5.24zM52.263 31.435c1.87 0 3.39 1.484 3.39 3.304 0 .455-.098.903-.282 1.316h-6.215a3.236 3.236 0 0 1-.282-1.316c0-1.82 1.52-3.304 3.39-3.304z"/>
    <path fill="#fff" stroke="#fff" stroke-width=".1" d="M63.912 44.44c.403-1.054 1.469-1.76 2.65-1.76 1.181 0 2.247.706 2.65 1.76l-.046.018a.617.617 0 0 1-.374.8l-4.88-.818zm0 0a.667.667 0 0 0 .404.864m-.404-.864l.404.864m0 0a.692.692 0 0 0 .883-.394l-.883.394zm4.253.042a.7.7 0 0 0 .24-.042l-3.61-.394c.202-.53.749-.889 1.363-.889s1.161.36 1.364.89c.103.27.365.435.643.435zM55.212 47.076c-.652-.442-1.492-.713-2.262-.925v-3.079c.595.077 1.098.25 1.455.462.37.222.568.478.568.707a.68.68 0 0 0 .687.67c.379 0 .687-.299.687-.67 0-.656-.374-1.242-.988-1.685-.605-.437-1.446-.738-2.409-.836v-.026a.68.68 0 0 0-.687-.67c-.378 0-.687.299-.687.67v.026c-.962.098-1.804.4-2.408.836-.615.443-.989 1.029-.989 1.685 0 .927.472 1.558 1.136 2.008.651.442 1.491.713 2.261.925v3.08c-.595-.078-1.098-.25-1.454-.463-.371-.222-.569-.478-.569-.706a.68.68 0 0 0-.687-.672.68.68 0 0 0-.687.672c0 .655.374 1.241.989 1.684.604.437 1.446.738 2.408.836v.026c0 .371.309.67.687.67a.68.68 0 0 0 .687-.67v-.026c.963-.098 1.804-.4 2.409-.836.614-.443.988-1.029.988-1.684 0-.928-.471-1.559-1.135-2.01zm-3.636-4.004v2.696c-.747-.232-1.251-.453-1.57-.695-.323-.245-.453-.51-.453-.832 0-.229.198-.485.569-.707.356-.213.86-.385 1.454-.462zm2.829 6.719c-.357.213-.86.385-1.455.462v-2.696c.748.232 1.252.453 1.57.695.324.246.453.51.453.833 0 .228-.197.484-.568.706z"/>
    <defs>
        <filter id="a" width="112" height="112" x="0" y="0" color-interpolation-filters="sRGB" filterUnits="userSpaceOnUse">
            <feFlood flood-opacity="0" result="BackgroundImageFix"/>
            <feColorMatrix in="SourceAlpha" values="0 0 0 0 0 0 0 0 0 0 0 0 0 0 0 0 0 0 127 0"/>
            <feOffset dy="10"/>
            <feGaussianBlur stdDeviation="10"/>
            <feColorMatrix values="0 0 0 0 0.929412 0 0 0 0 0.752941 0 0 0 0 0.470588 0 0 0 0.2 0"/>
            <feBlend in2="BackgroundImageFix" result="effect1_dropShadow"/>
            <feBlend in="SourceGraphic" in2="effect1_dropShadow" result="shape"/>
        </filter>
    </defs>
</svg>
